<?xml version="1.0" encoding="utf-8"?>
<!-- Generator: Adobe Illustrator 23.0.3, SVG Export Plug-In . SVG Version: 6.00 Build 0)  -->
<svg version="1.1" id="Layer_1" xmlns="http://www.w3.org/2000/svg" xmlns:xlink="http://www.w3.org/1999/xlink" x="0px" y="0px"
	 viewBox="0 0 24 24" style="enable-background:new 0 0 24 24;" xml:space="preserve">
<style type="text/css">
	.st0{fill:none;}
</style>
<g>
	<path d="M17.4,4.1c-0.4,0-0.8,0.2-1,0.4c-0.3,0.3-0.4,0.7-0.4,1v0.7l-3.4-3.8V0.7c0-0.3-0.2-0.5-0.5-0.5c-0.3,0-0.5,0.2-0.5,0.5
		v1.8L8.1,6.3l0-0.7c0-0.5-0.3-1-0.7-1.3c-0.5-0.3-1-0.3-1.5,0C5.4,4.6,5.1,5.1,5.1,5.6v13.8c0,0.1,0.1,0.3,0.1,0.3
		c0.1,0.1,0.2,0.1,0.3,0.1h0.5v3.4v0c0,0.3,0.2,0.5,0.5,0.5c0.3,0,0.5-0.2,0.5-0.5v-3.4h9.8v3.4v0c0,0.3,0.2,0.5,0.5,0.5
		c0.3,0,0.5-0.2,0.5-0.5v-3.4h0.5c0.1,0,0.3-0.1,0.3-0.1c0.1-0.1,0.1-0.2,0.1-0.3V5.6c0-0.4-0.2-0.8-0.4-1
		C18.2,4.3,17.8,4.1,17.4,4.1L17.4,4.1z M12,3.4l3.3,3.7H8.7L12,3.4z M8.1,8.1h7.9v2l-7.9,0V8.1z M6.1,18.9V5.6
		c0-0.3,0.2-0.5,0.5-0.5c0.3,0,0.5,0.2,0.5,0.5v13.3H6.1z M8.1,11l7.9,0v7.9H8.1V11z M17.9,18.9h-1V5.6c0-0.3,0.2-0.5,0.5-0.5
		c0.3,0,0.5,0.2,0.5,0.5V18.9z"/>
	<path d="M12,12c-0.8,0-1.5,0.3-2.1,0.9C9.4,13.4,9,14.2,9,15s0.3,1.5,0.9,2.1c0.6,0.6,1.3,0.9,2.1,0.9s1.5-0.3,2.1-0.9
		c0.6-0.6,0.9-1.3,0.9-2.1s-0.3-1.5-0.9-2.1C13.5,12.3,12.8,12,12,12z M12,16.9c-0.5,0-1-0.2-1.4-0.6C10.2,16,10,15.5,10,15
		c0-0.5,0.2-1,0.6-1.4C11,13.2,11.5,13,12,13c0.5,0,1,0.2,1.4,0.6c0.4,0.4,0.6,0.9,0.6,1.4c0,0.5-0.2,1-0.6,1.4
		C13,16.7,12.5,16.9,12,16.9z"/>
	<path d="M12.5,14.8V14c0-0.3-0.2-0.5-0.5-0.5c-0.3,0-0.5,0.2-0.5,0.5c0,1.4-0.1,1.1,0.6,1.8v0c0.2,0.2,0.5,0.2,0.7,0
		c0.2-0.2,0.2-0.5,0-0.7L12.5,14.8z"/>
	<path d="M8.6,21.4v2v0c0,0.3,0.2,0.5,0.5,0.5c0.3,0,0.5-0.2,0.5-0.5v-2c0-0.3-0.2-0.5-0.5-0.5C8.8,20.9,8.6,21.1,8.6,21.4L8.6,21.4
		z"/>
	<path d="M10.5,21.4v2v0c0,0.3,0.2,0.5,0.5,0.5c0.3,0,0.5-0.2,0.5-0.5v-2c0-0.3-0.2-0.5-0.5-0.5C10.7,20.9,10.5,21.1,10.5,21.4
		L10.5,21.4z"/>
	<path d="M12.5,21.4v2v0c0,0.3,0.2,0.5,0.5,0.5c0.3,0,0.5-0.2,0.5-0.5v-2c0-0.3-0.2-0.5-0.5-0.5C12.7,20.9,12.5,21.1,12.5,21.4
		L12.5,21.4z"/>
	<path d="M14.5,21.4v2v0c0,0.3,0.2,0.5,0.5,0.5c0.3,0,0.5-0.2,0.5-0.5v-2c0-0.3-0.2-0.5-0.5-0.5C14.7,20.9,14.5,21.1,14.5,21.4
		L14.5,21.4z"/>
</g>
</svg>
