<?xml version="1.0" encoding="utf-8"?>
<!-- Generator: Adobe Illustrator 23.0.3, SVG Export Plug-In . SVG Version: 6.00 Build 0)  -->
<svg version="1.1" id="Layer_1" xmlns="http://www.w3.org/2000/svg" xmlns:xlink="http://www.w3.org/1999/xlink" x="0px" y="0px"
	 viewBox="0 0 24 24" style="enable-background:new 0 0 24 24;" xml:space="preserve">
<style type="text/css">
	.st0{fill:#010101;}
</style>
<g>
	<path class="st0" d="M10.3,5.3V0.8h-1v10.9H7.1v0.8h2.1l0,1.3v9.3h6.5l0.6-1.9c0.4-1.5,0.7-3.1,0.7-4.6v-0.2
		C16.9,11.7,14.3,7.4,10.3,5.3L10.3,5.3z M10.4,6.8c2,1.3,3.5,3.1,4.4,5.3h-4.4V6.8z M10.4,13.7h5v0.6l-5,0V13.7z M14.6,21.8h-4.1
		v-0.6h4.1V21.8z M15.2,19.9h-4.8v-0.6h4.8V19.9z M15.7,18h-5.2v-0.6h5.2V18z M15.7,16.1h-5.1v-0.6h5.1V16.1z"/>
</g>
</svg>
