<?xml version="1.0" encoding="utf-8"?>
<!-- Generator: Adobe Illustrator 23.0.3, SVG Export Plug-In . SVG Version: 6.00 Build 0)  -->
<svg version="1.1" id="Layer_1" xmlns="http://www.w3.org/2000/svg" xmlns:xlink="http://www.w3.org/1999/xlink" x="0px" y="0px"
	 viewBox="0 0 24 24" style="enable-background:new 0 0 24 24;" xml:space="preserve">
<g>
	<rect x="10.9" y="18.4" width="2.2" height="0"/>
	<path d="M14.8,18.1v0.3h0C14.8,18.3,14.8,18.2,14.8,18.1z"/>
	<path d="M10,10c-0.4,0-0.7,0-1.1,0v0H10z"/>
	<path d="M14.6,10.9H9.1c0.9,0,1.8,0,2.7,0C12.7,10.9,13.6,10.9,14.6,10.9z"/>
	<path d="M15,10L15,10c-0.4,0-0.8,0-1.2,0H15z"/>
	<rect x="10.9" y="18.4" width="2.2" height="0"/>
	<path d="M15.9,13.4L15.9,13.4l-0.1,4.9h0L15.9,13.4C15.8,13.4,15.8,13.4,15.9,13.4C15.8,13.4,15.8,13.4,15.9,13.4z"/>
	<path d="M8.1,13.4L8.1,13.4L8.1,13.4C8.1,13.4,8.1,13.4,8.1,13.4z"/>
	<path d="M13.8,10H10c0.8,0,1.6,0,2.4,0C12.9,10,13.3,10,13.8,10z"/>
	<path d="M23.4,15c0-0.2-0.1-0.4-0.3-0.4c0-0.8-0.1-1.7-0.1-2.6c0.2-0.1,0.3-0.2,0.3-0.4c0-0.2-0.1-0.4-0.3-0.5
		c0-0.9-0.1-1.8-0.1-2.6v0C23,8.3,23.1,8.2,23.1,8c0-0.2-0.1-0.3-0.3-0.4V7.3c0,0,0,0,0,0c0,0,0-0.2-0.1-0.5
		c-0.1-0.1-0.2-0.2-0.2-0.3c-0.1-0.1-0.2-0.2-0.3-0.2c-0.1-0.1-0.2-0.1-0.3-0.2c-0.1-0.1-0.4-0.1-0.5,0c-0.1,0.1-0.2,0.1-0.3,0.2
		c0,0-0.1,0-0.1,0.1c-0.2,0.1-0.3,0.2-0.4,0.4c-0.1,0.2-0.1,0.3-0.1,0.5v0.2c-0.2,0.1-0.3,0.2-0.3,0.4c0,0.2,0.1,0.3,0.2,0.4
		c0,0.9-0.1,1.8-0.1,2.7v0c-0.2,0.1-0.3,0.2-0.3,0.5c0,0.2,0.1,0.4,0.3,0.4c0,0.8-0.1,1.7-0.1,2.5c-0.2,0.1-0.3,0.2-0.3,0.4
		c0,0.2,0.1,0.4,0.3,0.4c0,1-0.1,2-0.1,3h-1.7V13c0,0,0,0,0,0v-1.2c0-0.2,0-0.5-0.1-0.7c-0.1-0.3-0.3-0.5-0.5-0.7
		c-0.2-0.2-0.5-0.4-0.7-0.5c-0.2-0.1-0.4-0.1-0.6,0.1c-0.1,0.1-0.2,0.2-0.3,0.3l0,0c0,0,0,0,0,0c0,0,0,0,0,0c-0.1,0-0.1,0.1-0.2,0.1
		c-0.1,0.1-0.2,0.2-0.3,0.3v-0.1c0-0.1,0.1-0.1,0.1-0.2c0.1-0.2,0.2-0.3,0.2-0.5c0,0,0-0.1,0-0.1v0c0.2-0.7,0.2-1.5-0.1-2.1
		C15.9,7,15.5,6.5,15,6c-0.3-0.3-0.7-0.7-1.1-0.9c-0.1,0-0.1-0.1-0.2-0.1c-0.4-0.4-0.8-0.8-1.2-1.2l0,0V2.3c0-0.3-0.2-0.5-0.5-0.5
		c-0.3,0-0.5,0.2-0.5,0.5v1.3c-0.4,0.4-0.7,0.8-1.1,1.2c0,0-0.1,0.1-0.1,0.1h0C10.2,5,10,5.1,9.9,5.2c-0.4,0.3-0.8,0.6-1.1,1
		C8.3,6.7,8,7.3,7.8,7.9C7.6,8.6,7.6,9.3,7.9,10C8,10.2,8,10.4,8.1,10.5v0.1C8,10.6,8,10.5,7.9,10.4C7.6,10.2,7.4,10,7.1,9.8
		C6.9,9.7,6.7,9.8,6.5,9.9c-0.1,0.1-0.2,0.2-0.3,0.3c0,0,0,0,0,0c0,0,0,0,0,0c0,0,0,0,0,0c0,0,0,0,0,0c-0.1,0-0.1,0.1-0.2,0.1
		c-0.2,0.2-0.4,0.4-0.5,0.7c-0.1,0.2-0.1,0.4-0.1,0.6v6.6H3.7c0-1,0-1.9-0.1-2.9v0c0.2-0.1,0.3-0.2,0.3-0.4c0-0.2-0.1-0.4-0.3-0.4
		c0-0.8-0.1-1.7-0.1-2.6c0.2-0.1,0.3-0.2,0.3-0.4c0-0.2-0.1-0.4-0.3-0.5c0-0.9-0.1-1.8-0.1-2.6v0C3.5,8.3,3.6,8.2,3.6,8
		c0-0.2-0.1-0.3-0.3-0.4V7.3c0-0.1-0.1-0.5-0.3-0.7C2.9,6.5,2.8,6.4,2.8,6.4c0,0,0,0,0,0c-0.1,0-0.2-0.1-0.3-0.2
		C2.4,6.1,2.1,6.1,2,6.2C1.9,6.3,1.8,6.3,1.7,6.4c0,0-0.1,0-0.1,0.1C1.5,6.6,1.3,6.7,1.3,6.9C1.2,7.1,1.2,7.2,1.2,7.4v0.2
		C1,7.7,0.9,7.8,0.9,8c0,0.2,0.1,0.3,0.2,0.4c0,0.9-0.1,1.8-0.1,2.7v0c-0.2,0.1-0.3,0.2-0.3,0.5c0,0.2,0.1,0.4,0.3,0.4
		c0,0.9-0.1,1.7-0.1,2.6c-0.2,0.1-0.3,0.2-0.3,0.4c0,0.2,0.1,0.4,0.3,0.4c0,0.3,0,0.6,0,0.9c0,0.7,0,1.5-0.1,2.2c0,0.2,0,0.3,0,0.5
		c0,0,0,0.1,0,0.1v2.2c0,0.3,0.2,0.5,0.5,0.5h21.5c0.3,0,0.5-0.2,0.5-0.5v-2.6c0,0,0-0.1,0-0.1v0c0-1.1-0.1-2.2-0.1-3.3v0
		C23.3,15.3,23.4,15.2,23.4,15z M21.6,7.5c0,0,0-0.1,0-0.2c0,0,0,0,0.1-0.1c0,0,0,0,0,0c0,0,0,0,0,0c0,0,0,0,0,0h0l0,0l0,0
		c0,0,0,0,0,0c0,0,0,0,0,0c0,0,0,0,0,0l0,0c0,0,0,0,0,0c0,0,0,0,0,0c0,0,0,0,0,0v0.2L21.6,7.5L21.6,7.5z M21.6,8.5h0.4
		C22,9.4,22,10.2,22,11h-0.5C21.5,10.2,21.5,9.4,21.6,8.5z M21.4,12C21.4,12,21.4,12,21.4,12l0.6,0c0,0,0,0,0,0c0,0.8,0,1.6,0.1,2.5
		h-0.8C21.4,13.7,21.4,12.9,21.4,12z M21.2,18.4c0-1,0-1.9,0.1-2.9h0.9c0,1,0,1.9,0.1,2.9v0L21.2,18.4L21.2,18.4z M16.4,11.5
		C16.4,11.5,16.4,11.5,16.4,11.5C16.4,11.5,16.4,11.5,16.4,11.5C16.4,11.4,16.5,11.4,16.4,11.5L16.4,11.5c0-0.1,0.1-0.1,0.1-0.1
		c0,0,0,0,0,0l0,0c0,0,0,0,0,0c0,0,0,0,0,0c0,0,0,0,0,0c0,0,0.1-0.1,0.1-0.1c0,0,0,0,0,0c0,0,0,0,0,0c0,0,0,0,0,0
		c0.1-0.1,0.2-0.2,0.3-0.2c0.1,0.1,0.2,0.1,0.3,0.2c0,0,0,0,0,0c0,0,0,0,0,0c0,0,0,0,0,0c0,0,0.1,0.1,0.1,0.1c0,0,0,0,0,0
		c0,0,0,0,0,0l0,0c0,0,0,0,0,0.1c0,0,0,0,0,0c0,0,0,0,0,0c0,0,0,0,0,0c0,0,0,0,0,0v1h-1.2V11.5C16.4,11.5,16.4,11.5,16.4,11.5z
		 M15.8,13.4C15.8,13.4,15.8,13.4,15.8,13.4C15.8,13.4,15.8,13.4,15.8,13.4l1.9,0v4.9h-1.9V13.4z M12,4.6c0.1,0.1,0.2,0.2,0.3,0.3
		h-0.6C11.8,4.8,11.9,4.7,12,4.6z M8.7,8.5C8.7,8.5,8.7,8.4,8.7,8.5c0-0.1,0-0.2,0.1-0.3c0-0.1,0.1-0.2,0.1-0.3l0-0.1c0,0,0,0,0,0
		c0,0,0-0.1,0.1-0.1C9,7.5,9.1,7.3,9.3,7.1c0,0,0,0,0,0c0,0,0,0,0-0.1c0,0,0.1-0.1,0.1-0.1c0.1-0.1,0.1-0.2,0.2-0.2
		c0.1-0.1,0.3-0.3,0.4-0.4c0,0,0.1-0.1,0.1-0.1c0,0,0,0,0,0c0,0,0,0,0,0c0,0,0,0,0,0c0,0,0.1-0.1,0.1-0.1c0.1-0.1,0.2-0.1,0.3-0.2
		h2.6c0.1,0,0.1,0.1,0.2,0.1c0.1,0.1,0.2,0.1,0.3,0.2c0,0,0,0,0,0c0,0,0,0,0,0s0,0,0,0h0c0,0,0.1,0,0.1,0c0.1,0.1,0.1,0.1,0.2,0.2
		c0.1,0.1,0.3,0.3,0.4,0.4c0.1,0.1,0.1,0.1,0.2,0.2c0,0,0,0,0,0c0,0,0,0,0,0c0,0,0,0.1,0.1,0.1c0.1,0.2,0.2,0.4,0.3,0.5
		c0,0,0,0.1,0,0.1c0,0,0,0,0,0c0,0,0,0,0,0.1c0,0.1,0.1,0.2,0.1,0.3c0,0.1,0,0.1,0,0.2c0,0,0,0,0,0.1c0,0,0,0,0,0c0,0.1,0,0.3,0,0.4
		c0,0.1,0,0.1,0,0.2v0c0,0,0,0,0,0v0c0,0.1,0,0.3-0.1,0.4c0,0,0,0,0,0c0,0,0,0,0,0c0,0,0,0,0,0C15.1,9.8,15.1,9.9,15,10v0
		c-0.4,0-0.8,0-1.2,0H10c-0.4,0-0.7,0-1.1,0v0c0,0,0,0,0-0.1c0,0,0,0,0,0c0,0,0,0,0-0.1c0-0.1-0.1-0.2-0.1-0.2
		c0-0.1-0.1-0.3-0.1-0.4c0,0,0,0,0-0.1v0c0-0.1,0-0.1,0-0.2C8.6,8.7,8.6,8.6,8.7,8.5z M14,15.4c-0.1-0.9-0.8-1.5-1.6-1.8
		c-0.2-0.1-0.4-0.2-0.6-0.1c-0.2,0.1-0.5,0.2-0.7,0.3c-0.7,0.4-1.2,1-1.2,1.8v2.8H9.1V13c0,0,0,0,0,0v-0.7h5.8v6.1H14L14,15.4
		C14,15.5,14,15.4,14,15.4z M13.1,15.5v2.9h-2.2v-2.9c0,0,0,0,0-0.1c0,0,0,0,0,0c0,0,0-0.1,0-0.1c0,0,0,0,0,0c0,0,0,0,0,0
		c0,0,0,0,0,0c0-0.1,0.1-0.1,0.1-0.2c0,0,0,0,0.1-0.1c0,0,0.1-0.1,0.1-0.1c0,0,0,0,0,0c0,0,0.1,0,0.1-0.1c0.1,0,0.1-0.1,0.2-0.1
		c0,0,0.1,0,0.2-0.1c0,0,0,0,0.1,0c0,0,0.1,0,0.1,0c0,0,0.1,0,0.1,0c0,0,0.1,0,0.1,0c0,0,0,0,0,0c0,0,0,0,0,0c0,0,0,0,0.1,0
		c0,0,0,0,0,0c0.1,0,0.2,0.1,0.3,0.1c0,0,0.1,0.1,0.1,0.1c0,0,0,0,0,0c0,0,0,0,0,0c0,0,0,0,0,0c0,0,0,0,0,0c0.1,0,0.1,0.1,0.2,0.2
		c0,0,0,0,0,0c0,0,0,0,0,0c0,0,0,0,0,0c0,0,0,0,0,0.1c0,0,0,0,0,0c0,0,0,0,0,0c0,0,0,0,0,0c0,0,0,0.1,0,0.1c0,0,0,0,0,0
		C13.1,15.4,13.1,15.5,13.1,15.5z M9.1,11.3c0-0.1,0-0.3,0-0.4c0.9,0,1.8,0,2.7,0c0.9,0,1.9,0,2.8,0h0.3v0.4H9.1z M6.3,11.5
		C6.3,11.4,6.3,11.4,6.3,11.5L6.3,11.5c0-0.1,0.1-0.1,0.1-0.1c0,0,0,0,0,0s0,0,0,0c0,0,0,0,0,0c0,0,0.1-0.1,0.1-0.1l0,0c0,0,0,0,0,0
		c0.1-0.1,0.2-0.2,0.3-0.2C7,10.9,7.1,11,7.2,11.1c0,0,0,0,0,0c0,0,0,0,0,0c0,0,0,0,0,0c0,0,0.1,0.1,0.1,0.1c0,0,0,0,0,0l0,0l0,0
		c0,0,0,0,0,0.1c0,0,0,0,0,0c0,0,0,0,0,0c0,0,0,0,0,0c0,0,0,0,0,0c0,0,0,0,0,0v0.3c0,0,0,0.1,0,0.1v0.6H6.3V11.5z M6.3,13.4h1.8
		c0,0,0.1,0,0.1,0v5H6.3V13.4z M2.1,7.5c0,0,0-0.1,0-0.2v0h0v0c0,0,0.1,0,0.1-0.1c0,0,0,0,0,0c0,0,0,0,0,0h0c0,0,0,0,0,0v0h0
		c0,0,0,0,0,0s0,0,0,0c0,0,0,0,0,0c0,0,0,0,0,0c0,0,0,0,0,0v0.2L2.1,7.5L2.1,7.5z M2.1,8.5h0.4c0,0.8,0,1.7,0.1,2.5H2
		C2,10.2,2,9.4,2.1,8.5z M1.9,12C1.9,12,1.9,12,1.9,12l0.6,0c0,0,0,0,0,0c0,0.8,0.1,1.6,0.1,2.5H1.9C1.9,13.7,1.9,12.9,1.9,12z
		 M1.7,18.4c0-0.2,0-0.5,0-0.7c0-0.7,0-1.5,0.1-2.2c0,0,0,0,0,0h0.9c0,1,0.1,1.9,0.1,2.9v0L1.7,18.4L1.7,18.4z M22.3,21H1.7v-1.6
		h20.6V21z"/>
	<path d="M16.4,11.5C16.4,11.5,16.4,11.5,16.4,11.5C16.4,11.5,16.4,11.5,16.4,11.5z"/>
	<path d="M17.7,13.4L17.7,13.4l-1.7,0c0,0-0.1,0-0.1,0H17.7z"/>
	<path d="M10.9,18.4L10.9,18.4l2.2,0v0H10.9z M10.9,18.4L10.9,18.4l2.2,0v0H10.9z M21.2,18.4L21.2,18.4l1,0v0H21.2z M1.7,18.4
		L1.7,18.4l1,0v0H1.7z"/>
	<path d="M8.1,13.4C8,13.4,8,13.4,8.1,13.4l-1.8,0v0H8.1z"/>
	<path d="M2.6,12C2.6,12,2.6,12,2.6,12l-0.6,0c0,0,0,0,0,0H2.6z"/>
	<path d="M21.6,7.3C21.6,7.3,21.6,7.3,21.6,7.3C21.6,7.3,21.6,7.3,21.6,7.3L21.6,7.3z"/>
	<path d="M22.1,12C22.1,12,22.1,12,22.1,12l-0.6,0c0,0,0,0,0,0H22.1z"/>
</g>
</svg>
