<svg width="30" height="31" viewBox="0 0 30 31" fill="none" xmlns="http://www.w3.org/2000/svg">
<mask id="path-1-inside-1_896_61" fill="white">
<path d="M10.5523 16.0487C10.3545 19.0165 7.45159 19.7728 5.70114 19.7728H5.39235C4.99275 19.7507 4.68766 19.4151 4.71019 19.0235C4.73273 18.6318 5.07516 18.3325 5.47443 18.3549C5.83602 18.3658 6.19795 18.3421 6.55485 18.2841C7.43714 18.1423 8.58483 17.7312 8.96595 16.6015C9.04096 16.3945 9.08637 16.1782 9.10083 15.9587C9.12741 15.5674 9.47286 15.271 9.87246 15.2971C10.2717 15.3231 10.5741 15.6617 10.5476 16.0533L10.5523 16.0487ZM12.8958 7.0173C12.884 6.62568 12.5503 6.31778 12.1507 6.32966C11.7514 6.3412 11.4373 6.6682 11.4494 7.05982C11.4783 8.06162 10.3642 8.67606 9.75679 8.94999C8.31005 7.78271 6.19328 7.97157 6.09675 8.00491C5.72372 8.05831 5.45529 8.38302 5.47951 8.75156C5.52256 9.13924 5.87339 9.42273 6.27031 9.38943C6.47717 9.37493 6.68505 9.37493 6.89226 9.38943C7.6908 9.39108 8.46042 9.68217 9.05278 10.207C9.50048 10.7509 9.69625 11.4534 9.59265 12.1446C9.59265 12.3147 9.55901 12.4944 9.53008 12.6833C9.49645 12.8685 9.53984 13.0588 9.65016 13.2124C9.76083 13.366 9.92935 13.4698 10.1184 13.5008C10.1601 13.5058 10.2021 13.5058 10.2439 13.5008C10.595 13.4988 10.8941 13.2496 10.9526 12.9101C11.1638 11.9607 11.071 10.9708 10.6872 10.0747C11.5988 9.63038 12.949 8.67109 12.8958 7.0265L12.8958 7.0173ZM9.87716 15.3017C9.47923 15.2773 9.13613 15.5733 9.11057 15.9633C9.09611 16.1825 9.0507 16.3988 8.97535 16.6058C8.58482 17.7352 7.43716 18.1466 6.56426 18.2883C6.20737 18.3467 5.84577 18.3704 5.48417 18.3592C5.08457 18.3371 4.74248 18.6365 4.71994 19.0277C4.69707 19.4194 5.00283 19.7546 5.4021 19.777H5.71089C7.46134 19.777 10.3642 19.0208 10.562 16.053C10.5738 15.8641 10.5082 15.6785 10.3794 15.5374C10.2509 15.3963 10.0699 15.3113 9.87716 15.3017ZM12.1534 6.3226C11.9586 6.32887 11.775 6.41095 11.6435 6.55137C11.5119 6.69214 11.4437 6.87872 11.4541 7.06892C11.483 8.07072 10.3689 8.68516 9.7615 8.95909C8.31476 7.79181 6.19799 7.98067 6.10146 8.014C5.73078 8.0651 5.46067 8.38499 5.47951 8.75156C5.52256 9.13924 5.87339 9.42273 6.27031 9.38943C6.47717 9.37493 6.68505 9.37493 6.89226 9.38943C7.6908 9.39108 8.46042 9.68217 9.05278 10.207C9.50048 10.7509 9.69625 11.4534 9.59265 12.1446C9.59265 12.3147 9.55901 12.4944 9.53008 12.6833C9.49645 12.8685 9.53984 13.0588 9.65016 13.2124C9.76083 13.366 9.92935 13.4698 10.1184 13.5008C10.1601 13.5058 10.2021 13.5058 10.2439 13.5008C10.595 13.4988 10.8941 13.2496 10.9526 12.9101C11.1638 11.9607 11.071 10.9708 10.6872 10.0747C11.6226 9.60203 12.9728 8.65677 12.92 7.00754C12.9113 6.81799 12.8252 6.63998 12.6809 6.51373C12.5366 6.38747 12.3465 6.32352 12.1535 6.33637L12.1534 6.3226ZM27.5844 22.301C27.5555 22.9956 27.3577 24.9286 26.0173 26.1288C25.3042 26.7558 24.3809 27.1036 23.4229 27.1069C23.4003 27.8516 23.1514 28.5729 22.7081 29.1781C22.2648 29.7837 21.6472 30.2455 20.9344 30.5046C20.2512 30.7815 19.5183 30.9213 18.7789 30.916C17.2414 30.9259 15.759 30.3536 14.6416 29.3185C13.5228 30.3622 12.0344 30.9401 10.4898 30.9302C9.75043 30.9355 9.01745 30.7957 8.33433 30.5188C7.62157 30.2597 7.00401 29.7979 6.56063 29.1923C6.11729 28.587 5.86837 27.8658 5.84584 27.1211C4.88786 27.1178 3.96449 26.7697 3.25141 26.1427C1.91101 24.9424 1.71322 23.0094 1.68428 22.3148C-1.69116 17.7024 0.922404 13.2125 1.68428 12.0741C1.31798 9.90505 1.62172 8.11868 2.58612 6.7622C3.25314 5.83425 4.20638 5.13997 5.30601 4.78233C5.34637 3.76863 5.81426 2.81697 6.59836 2.15468C7.5671 1.46967 8.76361 1.16774 9.94961 1.30884C10.6842 0.596797 11.6796 0.203498 12.7129 0.217C13.4566 0.196562 14.1687 0.514011 14.6416 1.07702C15.1145 0.513977 15.8267 0.196493 16.5703 0.217C17.6117 0.197221 18.6172 0.590822 19.3578 1.30884C20.5435 1.16775 21.7403 1.4697 22.709 2.15468C23.4931 2.81694 23.961 3.76863 24.0014 4.78233C25.0919 5.14461 26.0361 5.83821 26.6971 6.7622C27.6614 8.11834 27.946 9.90471 27.5649 12.0741C28.3608 13.213 30.9841 17.7025 27.5989 22.3148L27.5844 22.301ZM13.9187 2.8584C13.8847 2.64083 13.6775 1.63441 12.7131 1.63441C12.258 1.6288 11.8103 1.74319 11.4158 1.96504C11.8359 2.3059 12.1333 2.76972 12.2644 3.28828C12.4814 4.18627 12.1296 5.14089 11.218 6.12395C11.0798 6.27295 10.8833 6.35701 10.6782 6.35536C10.4999 6.35767 10.3277 6.29339 10.1958 6.17603C10.0535 6.05077 9.96774 5.8754 9.95765 5.68816C9.9479 5.50092 10.0145 5.31764 10.143 5.17885C10.293 5.01798 10.4302 4.84558 10.5527 4.66361C10.7915 4.3689 10.9008 3.9931 10.8564 3.61928C10.7703 3.33908 10.5836 3.09909 10.331 2.9435C10.2284 2.8723 10.1204 2.809 10.0078 2.75428C9.6798 2.71176 8.3441 2.57463 7.4954 3.26458C6.96965 3.68983 6.7093 4.38933 6.7093 5.34403C6.70729 5.69082 6.45097 5.98619 6.10182 6.04355C5.14789 6.26079 4.30865 6.81427 3.74385 7.59852C2.98668 8.68538 2.7795 10.1978 3.17 12.093C3.28605 12.4282 3.44818 12.746 3.65202 13.038C3.99209 13.5724 4.53836 13.9489 5.16636 14.0824C5.46574 14.1371 5.77318 14.1371 6.07285 14.0824C6.47246 14.0184 6.84919 14.2838 6.91444 14.6754C6.9797 15.067 6.70859 15.4362 6.30898 15.5002C6.07352 15.5407 5.8347 15.5612 5.59554 15.5615C4.27124 15.5477 3.05192 14.8531 2.38387 13.7326C1.19718 15.8216 1.14466 18.3513 2.24394 20.4857C2.34754 20.3453 2.46931 20.2181 2.60554 20.1076C3.12994 19.7045 3.81307 19.5565 4.46226 19.7061C4.86152 19.775 5.12827 20.1485 5.05763 20.5401C4.987 20.9317 4.60622 21.1928 4.20662 21.1236C3.97352 21.0511 3.71922 21.0877 3.51706 21.2232C3.28665 21.4707 3.15344 21.7905 3.141 22.1257C3.141 22.1966 3.141 24.1247 4.25002 25.1219C4.74179 25.5432 5.38194 25.7601 6.03414 25.7268C6.21478 25.025 6.59689 24.389 7.13541 23.8939C7.67394 23.3988 8.3463 23.0655 9.07221 22.9337C9.26663 22.899 9.46308 22.877 9.66052 22.8674C9.79844 22.7949 9.90472 22.6755 9.95956 22.5321C9.96763 22.3261 9.89497 22.125 9.75706 21.9698C9.71838 21.9124 9.67633 21.857 9.63159 21.8043C9.39714 21.5017 9.44827 21.0715 9.74697 20.8295C10.0457 20.5872 10.486 20.6192 10.7457 20.9017C11.2724 21.4192 11.5035 22.1589 11.3629 22.8769C11.3081 23.0968 11.2095 23.3038 11.0733 23.4864C11.2768 23.6572 11.4413 23.8682 11.5557 24.1055C11.7844 24.632 11.7578 25.2313 11.4833 25.7359C11.3626 25.9838 11.1076 26.1421 10.8274 26.1424C10.7211 26.1411 10.6162 26.1187 10.519 26.0765C10.158 25.908 10.0033 25.4861 10.1718 25.131C10.3118 24.8475 10.2539 24.72 10.2344 24.6583C10.1227 24.4787 9.95287 24.3409 9.75205 24.2664C7.70761 24.3419 7.39408 26.2466 7.34095 26.4638C7.22322 27.0285 7.31741 27.6156 7.60635 28.1173C7.89529 28.6194 8.35914 29.0021 8.91316 29.1952C9.77056 29.5246 10.7104 29.5879 11.6055 29.3765C12.5009 29.1652 13.3082 28.6896 13.9187 28.0138L13.9187 2.8584ZM26.9093 13.7278C26.247 14.8543 25.029 15.556 23.7024 15.5755C23.4632 15.5752 23.2244 15.5548 22.9889 15.5142C22.5893 15.4503 22.3182 15.0811 22.3835 14.6894C22.4487 14.2978 22.8255 14.0325 23.2251 14.0964C23.5248 14.1511 23.8322 14.1511 24.1316 14.0964C24.7596 13.9629 25.3059 13.5864 25.6459 13.0521C25.8497 12.76 26.0119 12.4419 26.1279 12.1067C26.504 10.2165 26.3112 8.69942 25.5541 7.61223C24.989 6.82635 24.1474 6.2732 23.1914 6.05759C22.8452 5.9966 22.5923 5.70289 22.5886 5.3584C22.5886 4.41332 22.3235 3.69963 21.7978 3.27895C20.9538 2.59361 19.6134 2.72613 19.2902 2.76865C19.1785 2.82535 19.0705 2.88799 18.9669 2.95754C18.7143 3.11314 18.5276 3.35312 18.4415 3.63332C18.3971 4.00714 18.5064 4.38294 18.7452 4.67764C18.8636 4.85434 18.9958 5.0218 19.1405 5.17871C19.2706 5.31782 19.3379 5.50209 19.3282 5.69032C19.3181 5.87888 19.2316 6.05524 19.0877 6.18051C18.9558 6.29786 18.7836 6.36214 18.6053 6.36017C18.3991 6.3605 18.2027 6.27446 18.0654 6.12381C17.1539 5.13121 16.802 4.17693 17.019 3.28814C17.1526 2.77587 17.4499 2.31867 17.8677 1.98406C17.4714 1.76188 17.022 1.64782 16.5656 1.65309C15.6012 1.65309 15.3987 2.65024 15.3648 2.87708V28.0135C15.974 28.6955 16.7829 29.1768 17.6813 29.3914C18.5795 29.6063 19.5237 29.5443 20.3848 29.214C20.9388 29.0205 21.4026 28.6378 21.6916 28.1361C21.9805 27.6341 22.0747 27.047 21.957 26.4822C21.9281 26.2554 21.6099 24.3603 19.5459 24.2848C19.3451 24.3593 19.1752 24.4974 19.0635 24.6771C19.0635 24.715 18.9865 24.8426 19.1261 25.1498C19.2946 25.5048 19.1399 25.9265 18.779 26.0949C18.6818 26.1371 18.5768 26.1595 18.4705 26.1612C18.1903 26.1605 17.9354 26.0026 17.8146 25.7547C17.5324 25.2355 17.5125 24.6171 17.7614 24.0818C17.8761 23.8444 18.0403 23.6334 18.2438 23.4627C18.1076 23.2801 18.0094 23.0727 17.9545 22.8528C17.8136 22.1349 18.0447 21.3952 18.5718 20.8776C18.8311 20.5951 19.2714 20.5634 19.5705 20.8054C19.8692 21.0477 19.92 21.4776 19.6855 21.7802C19.6408 21.8333 19.5991 21.8883 19.5604 21.9457C19.4221 22.1009 19.3495 22.302 19.3579 22.5081C19.411 22.6524 19.5177 22.7724 19.6566 22.8436C19.854 22.8529 20.0508 22.875 20.2449 22.9096C20.9711 23.0414 21.6432 23.3747 22.1817 23.8698C22.7202 24.365 23.1023 25.0012 23.283 25.7027C23.9355 25.737 24.576 25.5201 25.0671 25.0978C26.1858 24.1052 26.1761 22.182 26.1761 22.1016C26.1633 21.7667 26.0305 21.4469 25.8004 21.1991C25.5982 21.0639 25.3439 21.0273 25.1105 21.0998C24.7112 21.1691 24.3301 20.9077 24.2595 20.516C24.1888 20.1247 24.4556 19.7512 24.8552 19.682C25.504 19.5327 26.1872 19.6804 26.7116 20.0839C26.8492 20.193 26.971 20.3202 27.0732 20.4616C28.1408 18.3282 28.0797 15.8183 26.9094 13.7368L26.9093 13.7278ZM24.5706 19.0207C24.5897 19.4097 24.287 19.7419 23.8904 19.7673H23.5816C21.8312 19.7673 18.9283 19.0111 18.7305 16.0433C18.7177 15.8554 18.782 15.6701 18.9084 15.5284C19.0353 15.3866 19.2142 15.2999 19.4059 15.2874C19.8055 15.261 20.151 15.5574 20.1776 15.949C20.1917 16.1682 20.2371 16.3845 20.3124 16.5915C20.703 17.7209 21.8506 18.1323 22.7235 18.274C23.0804 18.3321 23.4424 18.3558 23.8036 18.3449C23.9984 18.3347 24.1894 18.4013 24.3334 18.5302C24.4777 18.6591 24.5631 18.8391 24.5705 19.0303L24.5706 19.0207ZM19.0635 13.5152C18.7124 13.5129 18.4133 13.2637 18.3548 12.9245C18.1436 11.9748 18.2361 10.9849 18.6198 10.0888C17.6844 9.61612 16.3342 8.67101 16.387 7.02177C16.388 6.83255 16.4681 6.65191 16.6083 6.52137C16.7486 6.39115 16.937 6.32259 17.1297 6.33182C17.3224 6.33775 17.5048 6.41918 17.6363 6.55763C17.7675 6.69608 17.8367 6.88002 17.829 7.06891C17.8001 8.07071 18.9142 8.68515 19.5216 8.95908C20.9683 7.7918 23.0804 7.98066 23.1817 8.014C23.5813 8.05322 23.8725 8.40233 23.8325 8.79395C23.7928 9.18524 23.4366 9.47104 23.037 9.43182C22.8298 9.41599 22.6219 9.41599 22.4151 9.43182C21.6165 9.43775 20.8479 9.73048 20.2545 10.2543C19.8065 10.7979 19.6107 11.5004 19.7143 12.1916C19.7143 12.3617 19.748 12.5414 19.7769 12.7303C19.8105 12.9152 19.7675 13.1061 19.6568 13.2594C19.5465 13.413 19.378 13.5168 19.1889 13.5481C19.1459 13.5419 19.1039 13.5307 19.0635 13.5152ZM9.87716 15.3017C9.47923 15.2773 9.13613 15.5733 9.11057 15.9633C9.09611 16.1825 9.0507 16.3988 8.97535 16.6058C8.58482 17.7352 7.43716 18.1466 6.56426 18.2883C6.20737 18.3467 5.84577 18.3704 5.48417 18.3592C5.08457 18.3371 4.74248 18.6365 4.71994 19.0277C4.69707 19.4194 5.00283 19.7546 5.4021 19.777H5.71089C7.46134 19.777 10.3642 19.0208 10.562 16.053C10.5738 15.8641 10.5082 15.6785 10.3794 15.5374C10.2509 15.3963 10.0699 15.3113 9.87716 15.3017ZM12.8958 7.0265C12.884 6.63521 12.5504 6.32724 12.1508 6.33878C11.7515 6.35065 11.4374 6.67766 11.4495 7.06895C11.4784 8.07074 10.3643 8.68518 9.75688 8.95911C8.31013 7.79183 6.19336 7.98069 6.09683 8.01403C5.72783 8.06743 5.46034 8.38665 5.47951 8.75156C5.52256 9.13924 5.87339 9.42273 6.27031 9.38943C6.47717 9.37493 6.68505 9.37493 6.89226 9.38943C7.6908 9.39108 8.46042 9.68217 9.05278 10.207C9.50048 10.7509 9.69625 11.4534 9.59265 12.1446C9.59265 12.3147 9.55901 12.4944 9.53008 12.6833C9.49645 12.8685 9.53984 13.0588 9.65016 13.2124C9.76083 13.366 9.92935 13.4698 10.1184 13.5008C10.1601 13.5058 10.2021 13.5058 10.2439 13.5008C10.595 13.4988 10.8941 13.2496 10.9526 12.9101C11.1638 11.9607 11.071 10.9708 10.6872 10.0747C11.5988 9.63038 12.949 8.67109 12.8958 7.0265ZM19.1648 13.5011C19.3538 13.4701 19.5223 13.3659 19.633 13.2123C19.7433 13.0587 19.7867 12.8685 19.7531 12.6832C19.7242 12.4943 19.705 12.3147 19.6905 12.1446C19.5869 11.4533 19.7827 10.7508 20.2304 10.2069C20.8238 9.68308 21.5923 9.39067 22.3909 9.38474C22.5978 9.36859 22.806 9.36859 23.0129 9.38474C23.4125 9.42397 23.7687 9.13816 23.8087 8.74654C23.8484 8.35525 23.5571 8.00616 23.1575 7.96692C23.0563 7.96692 20.9345 7.76847 19.4975 8.91201C18.89 8.65225 17.7759 8.03781 17.8049 7.02184C17.8116 6.83361 17.7416 6.65099 17.6105 6.51353C17.4793 6.37606 17.2976 6.2953 17.1059 6.28937C16.9128 6.28014 16.7245 6.3487 16.5842 6.47892C16.4443 6.60946 16.3642 6.79011 16.3632 6.97933C16.31 8.62392 17.6602 9.58318 18.596 10.0464C18.2122 10.9424 18.1194 11.9323 18.3306 12.8817C18.3892 13.2213 18.6882 13.4705 19.0394 13.4725C19.0878 13.4886 19.1379 13.4982 19.1891 13.5008L19.1648 13.5011ZM23.8037 18.3591C23.4424 18.3699 23.0805 18.3462 22.7236 18.2882C21.8413 18.1464 20.6936 17.7354 20.3125 16.6056C20.2371 16.3986 20.1917 16.1823 20.1776 15.9631C20.151 15.5715 19.8056 15.2752 19.406 15.3015C19.0064 15.3276 18.7043 15.6661 18.7309 16.0574C18.9287 19.0252 21.8315 19.7815 23.582 19.7815H23.8908C24.2904 19.7594 24.5955 19.4238 24.5729 19.0325C24.5504 18.6409 24.208 18.3415 23.8087 18.3636L23.8037 18.3591ZM23.8037 18.3591C23.4424 18.3699 23.0805 18.3462 22.7236 18.2882C21.8413 18.1464 20.6936 17.7354 20.3125 16.6056C20.2371 16.3986 20.1917 16.1823 20.1776 15.9631C20.151 15.5715 19.8056 15.2752 19.406 15.3015C19.0064 15.3276 18.7043 15.6661 18.7309 16.0574C18.9287 19.0252 21.8315 19.7815 23.582 19.7815H23.8908C24.2904 19.7594 24.5955 19.4238 24.5729 19.0325C24.5504 18.6409 24.208 18.3415 23.8087 18.3636L23.8037 18.3591ZM23.1767 7.96221C23.0754 7.96221 20.9536 7.76376 19.5166 8.9073C18.9091 8.64754 17.7951 8.0331 17.824 7.01713C17.8304 6.8289 17.7608 6.64595 17.6296 6.50882C17.4984 6.37135 17.3168 6.29059 17.1251 6.28432C16.932 6.27542 16.7439 6.34399 16.6037 6.4742C16.4634 6.60441 16.3837 6.78506 16.3823 6.97428C16.3292 8.61887 17.6793 9.57813 18.6152 10.0413C18.2314 10.937 18.1389 11.9276 18.3498 12.877C18.4083 13.2165 18.7074 13.4658 19.0589 13.4677C19.1006 13.4724 19.1426 13.4724 19.1843 13.4677C19.3734 13.4368 19.5419 13.3326 19.6522 13.1793C19.7626 13.0257 19.8059 12.8351 19.7726 12.6502C19.7437 12.4613 19.7245 12.2817 19.7101 12.1116C19.6065 11.42 19.8019 10.7174 20.2499 10.1739C20.843 9.65008 21.6115 9.35768 22.4101 9.35142C22.6173 9.33559 22.8252 9.33559 23.0324 9.35142C23.4317 9.39064 23.7879 9.10517 23.8279 8.71355C23.868 8.32193 23.5763 7.97283 23.177 7.93393L23.1767 7.96221Z"/>
</mask>
<path d="M10.5523 16.0487C10.3545 19.0165 7.45159 19.7728 5.70114 19.7728H5.39235C4.99275 19.7507 4.68766 19.4151 4.71019 19.0235C4.73273 18.6318 5.07516 18.3325 5.47443 18.3549C5.83602 18.3658 6.19795 18.3421 6.55485 18.2841C7.43714 18.1423 8.58483 17.7312 8.96595 16.6015C9.04096 16.3945 9.08637 16.1782 9.10083 15.9587C9.12741 15.5674 9.47286 15.271 9.87246 15.2971C10.2717 15.3231 10.5741 15.6617 10.5476 16.0533L10.5523 16.0487ZM12.8958 7.0173C12.884 6.62568 12.5503 6.31778 12.1507 6.32966C11.7514 6.3412 11.4373 6.6682 11.4494 7.05982C11.4783 8.06162 10.3642 8.67606 9.75679 8.94999C8.31005 7.78271 6.19328 7.97157 6.09675 8.00491C5.72372 8.05831 5.45529 8.38302 5.47951 8.75156C5.52256 9.13924 5.87339 9.42273 6.27031 9.38943C6.47717 9.37493 6.68505 9.37493 6.89226 9.38943C7.6908 9.39108 8.46042 9.68217 9.05278 10.207C9.50048 10.7509 9.69625 11.4534 9.59265 12.1446C9.59265 12.3147 9.55901 12.4944 9.53008 12.6833C9.49645 12.8685 9.53984 13.0588 9.65016 13.2124C9.76083 13.366 9.92935 13.4698 10.1184 13.5008C10.1601 13.5058 10.2021 13.5058 10.2439 13.5008C10.595 13.4988 10.8941 13.2496 10.9526 12.9101C11.1638 11.9607 11.071 10.9708 10.6872 10.0747C11.5988 9.63038 12.949 8.67109 12.8958 7.0265L12.8958 7.0173ZM9.87716 15.3017C9.47923 15.2773 9.13613 15.5733 9.11057 15.9633C9.09611 16.1825 9.0507 16.3988 8.97535 16.6058C8.58482 17.7352 7.43716 18.1466 6.56426 18.2883C6.20737 18.3467 5.84577 18.3704 5.48417 18.3592C5.08457 18.3371 4.74248 18.6365 4.71994 19.0277C4.69707 19.4194 5.00283 19.7546 5.4021 19.777H5.71089C7.46134 19.777 10.3642 19.0208 10.562 16.053C10.5738 15.8641 10.5082 15.6785 10.3794 15.5374C10.2509 15.3963 10.0699 15.3113 9.87716 15.3017ZM12.1534 6.3226C11.9586 6.32887 11.775 6.41095 11.6435 6.55137C11.5119 6.69214 11.4437 6.87872 11.4541 7.06892C11.483 8.07072 10.3689 8.68516 9.7615 8.95909C8.31476 7.79181 6.19799 7.98067 6.10146 8.014C5.73078 8.0651 5.46067 8.38499 5.47951 8.75156C5.52256 9.13924 5.87339 9.42273 6.27031 9.38943C6.47717 9.37493 6.68505 9.37493 6.89226 9.38943C7.6908 9.39108 8.46042 9.68217 9.05278 10.207C9.50048 10.7509 9.69625 11.4534 9.59265 12.1446C9.59265 12.3147 9.55901 12.4944 9.53008 12.6833C9.49645 12.8685 9.53984 13.0588 9.65016 13.2124C9.76083 13.366 9.92935 13.4698 10.1184 13.5008C10.1601 13.5058 10.2021 13.5058 10.2439 13.5008C10.595 13.4988 10.8941 13.2496 10.9526 12.9101C11.1638 11.9607 11.071 10.9708 10.6872 10.0747C11.6226 9.60203 12.9728 8.65677 12.92 7.00754C12.9113 6.81799 12.8252 6.63998 12.6809 6.51373C12.5366 6.38747 12.3465 6.32352 12.1535 6.33637L12.1534 6.3226ZM27.5844 22.301C27.5555 22.9956 27.3577 24.9286 26.0173 26.1288C25.3042 26.7558 24.3809 27.1036 23.4229 27.1069C23.4003 27.8516 23.1514 28.5729 22.7081 29.1781C22.2648 29.7837 21.6472 30.2455 20.9344 30.5046C20.2512 30.7815 19.5183 30.9213 18.7789 30.916C17.2414 30.9259 15.759 30.3536 14.6416 29.3185C13.5228 30.3622 12.0344 30.9401 10.4898 30.9302C9.75043 30.9355 9.01745 30.7957 8.33433 30.5188C7.62157 30.2597 7.00401 29.7979 6.56063 29.1923C6.11729 28.587 5.86837 27.8658 5.84584 27.1211C4.88786 27.1178 3.96449 26.7697 3.25141 26.1427C1.91101 24.9424 1.71322 23.0094 1.68428 22.3148C-1.69116 17.7024 0.922404 13.2125 1.68428 12.0741C1.31798 9.90505 1.62172 8.11868 2.58612 6.7622C3.25314 5.83425 4.20638 5.13997 5.30601 4.78233C5.34637 3.76863 5.81426 2.81697 6.59836 2.15468C7.5671 1.46967 8.76361 1.16774 9.94961 1.30884C10.6842 0.596797 11.6796 0.203498 12.7129 0.217C13.4566 0.196562 14.1687 0.514011 14.6416 1.07702C15.1145 0.513977 15.8267 0.196493 16.5703 0.217C17.6117 0.197221 18.6172 0.590822 19.3578 1.30884C20.5435 1.16775 21.7403 1.4697 22.709 2.15468C23.4931 2.81694 23.961 3.76863 24.0014 4.78233C25.0919 5.14461 26.0361 5.83821 26.6971 6.7622C27.6614 8.11834 27.946 9.90471 27.5649 12.0741C28.3608 13.213 30.9841 17.7025 27.5989 22.3148L27.5844 22.301ZM13.9187 2.8584C13.8847 2.64083 13.6775 1.63441 12.7131 1.63441C12.258 1.6288 11.8103 1.74319 11.4158 1.96504C11.8359 2.3059 12.1333 2.76972 12.2644 3.28828C12.4814 4.18627 12.1296 5.14089 11.218 6.12395C11.0798 6.27295 10.8833 6.35701 10.6782 6.35536C10.4999 6.35767 10.3277 6.29339 10.1958 6.17603C10.0535 6.05077 9.96774 5.8754 9.95765 5.68816C9.9479 5.50092 10.0145 5.31764 10.143 5.17885C10.293 5.01798 10.4302 4.84558 10.5527 4.66361C10.7915 4.3689 10.9008 3.9931 10.8564 3.61928C10.7703 3.33908 10.5836 3.09909 10.331 2.9435C10.2284 2.8723 10.1204 2.809 10.0078 2.75428C9.6798 2.71176 8.3441 2.57463 7.4954 3.26458C6.96965 3.68983 6.7093 4.38933 6.7093 5.34403C6.70729 5.69082 6.45097 5.98619 6.10182 6.04355C5.14789 6.26079 4.30865 6.81427 3.74385 7.59852C2.98668 8.68538 2.7795 10.1978 3.17 12.093C3.28605 12.4282 3.44818 12.746 3.65202 13.038C3.99209 13.5724 4.53836 13.9489 5.16636 14.0824C5.46574 14.1371 5.77318 14.1371 6.07285 14.0824C6.47246 14.0184 6.84919 14.2838 6.91444 14.6754C6.9797 15.067 6.70859 15.4362 6.30898 15.5002C6.07352 15.5407 5.8347 15.5612 5.59554 15.5615C4.27124 15.5477 3.05192 14.8531 2.38387 13.7326C1.19718 15.8216 1.14466 18.3513 2.24394 20.4857C2.34754 20.3453 2.46931 20.2181 2.60554 20.1076C3.12994 19.7045 3.81307 19.5565 4.46226 19.7061C4.86152 19.775 5.12827 20.1485 5.05763 20.5401C4.987 20.9317 4.60622 21.1928 4.20662 21.1236C3.97352 21.0511 3.71922 21.0877 3.51706 21.2232C3.28665 21.4707 3.15344 21.7905 3.141 22.1257C3.141 22.1966 3.141 24.1247 4.25002 25.1219C4.74179 25.5432 5.38194 25.7601 6.03414 25.7268C6.21478 25.025 6.59689 24.389 7.13541 23.8939C7.67394 23.3988 8.3463 23.0655 9.07221 22.9337C9.26663 22.899 9.46308 22.877 9.66052 22.8674C9.79844 22.7949 9.90472 22.6755 9.95956 22.5321C9.96763 22.3261 9.89497 22.125 9.75706 21.9698C9.71838 21.9124 9.67633 21.857 9.63159 21.8043C9.39714 21.5017 9.44827 21.0715 9.74697 20.8295C10.0457 20.5872 10.486 20.6192 10.7457 20.9017C11.2724 21.4192 11.5035 22.1589 11.3629 22.8769C11.3081 23.0968 11.2095 23.3038 11.0733 23.4864C11.2768 23.6572 11.4413 23.8682 11.5557 24.1055C11.7844 24.632 11.7578 25.2313 11.4833 25.7359C11.3626 25.9838 11.1076 26.1421 10.8274 26.1424C10.7211 26.1411 10.6162 26.1187 10.519 26.0765C10.158 25.908 10.0033 25.4861 10.1718 25.131C10.3118 24.8475 10.2539 24.72 10.2344 24.6583C10.1227 24.4787 9.95287 24.3409 9.75205 24.2664C7.70761 24.3419 7.39408 26.2466 7.34095 26.4638C7.22322 27.0285 7.31741 27.6156 7.60635 28.1173C7.89529 28.6194 8.35914 29.0021 8.91316 29.1952C9.77056 29.5246 10.7104 29.5879 11.6055 29.3765C12.5009 29.1652 13.3082 28.6896 13.9187 28.0138L13.9187 2.8584ZM26.9093 13.7278C26.247 14.8543 25.029 15.556 23.7024 15.5755C23.4632 15.5752 23.2244 15.5548 22.9889 15.5142C22.5893 15.4503 22.3182 15.0811 22.3835 14.6894C22.4487 14.2978 22.8255 14.0325 23.2251 14.0964C23.5248 14.1511 23.8322 14.1511 24.1316 14.0964C24.7596 13.9629 25.3059 13.5864 25.6459 13.0521C25.8497 12.76 26.0119 12.4419 26.1279 12.1067C26.504 10.2165 26.3112 8.69942 25.5541 7.61223C24.989 6.82635 24.1474 6.2732 23.1914 6.05759C22.8452 5.9966 22.5923 5.70289 22.5886 5.3584C22.5886 4.41332 22.3235 3.69963 21.7978 3.27895C20.9538 2.59361 19.6134 2.72613 19.2902 2.76865C19.1785 2.82535 19.0705 2.88799 18.9669 2.95754C18.7143 3.11314 18.5276 3.35312 18.4415 3.63332C18.3971 4.00714 18.5064 4.38294 18.7452 4.67764C18.8636 4.85434 18.9958 5.0218 19.1405 5.17871C19.2706 5.31782 19.3379 5.50209 19.3282 5.69032C19.3181 5.87888 19.2316 6.05524 19.0877 6.18051C18.9558 6.29786 18.7836 6.36214 18.6053 6.36017C18.3991 6.3605 18.2027 6.27446 18.0654 6.12381C17.1539 5.13121 16.802 4.17693 17.019 3.28814C17.1526 2.77587 17.4499 2.31867 17.8677 1.98406C17.4714 1.76188 17.022 1.64782 16.5656 1.65309C15.6012 1.65309 15.3987 2.65024 15.3648 2.87708V28.0135C15.974 28.6955 16.7829 29.1768 17.6813 29.3914C18.5795 29.6063 19.5237 29.5443 20.3848 29.214C20.9388 29.0205 21.4026 28.6378 21.6916 28.1361C21.9805 27.6341 22.0747 27.047 21.957 26.4822C21.9281 26.2554 21.6099 24.3603 19.5459 24.2848C19.3451 24.3593 19.1752 24.4974 19.0635 24.6771C19.0635 24.715 18.9865 24.8426 19.1261 25.1498C19.2946 25.5048 19.1399 25.9265 18.779 26.0949C18.6818 26.1371 18.5768 26.1595 18.4705 26.1612C18.1903 26.1605 17.9354 26.0026 17.8146 25.7547C17.5324 25.2355 17.5125 24.6171 17.7614 24.0818C17.8761 23.8444 18.0403 23.6334 18.2438 23.4627C18.1076 23.2801 18.0094 23.0727 17.9545 22.8528C17.8136 22.1349 18.0447 21.3952 18.5718 20.8776C18.8311 20.5951 19.2714 20.5634 19.5705 20.8054C19.8692 21.0477 19.92 21.4776 19.6855 21.7802C19.6408 21.8333 19.5991 21.8883 19.5604 21.9457C19.4221 22.1009 19.3495 22.302 19.3579 22.5081C19.411 22.6524 19.5177 22.7724 19.6566 22.8436C19.854 22.8529 20.0508 22.875 20.2449 22.9096C20.9711 23.0414 21.6432 23.3747 22.1817 23.8698C22.7202 24.365 23.1023 25.0012 23.283 25.7027C23.9355 25.737 24.576 25.5201 25.0671 25.0978C26.1858 24.1052 26.1761 22.182 26.1761 22.1016C26.1633 21.7667 26.0305 21.4469 25.8004 21.1991C25.5982 21.0639 25.3439 21.0273 25.1105 21.0998C24.7112 21.1691 24.3301 20.9077 24.2595 20.516C24.1888 20.1247 24.4556 19.7512 24.8552 19.682C25.504 19.5327 26.1872 19.6804 26.7116 20.0839C26.8492 20.193 26.971 20.3202 27.0732 20.4616C28.1408 18.3282 28.0797 15.8183 26.9094 13.7368L26.9093 13.7278ZM24.5706 19.0207C24.5897 19.4097 24.287 19.7419 23.8904 19.7673H23.5816C21.8312 19.7673 18.9283 19.0111 18.7305 16.0433C18.7177 15.8554 18.782 15.6701 18.9084 15.5284C19.0353 15.3866 19.2142 15.2999 19.4059 15.2874C19.8055 15.261 20.151 15.5574 20.1776 15.949C20.1917 16.1682 20.2371 16.3845 20.3124 16.5915C20.703 17.7209 21.8506 18.1323 22.7235 18.274C23.0804 18.3321 23.4424 18.3558 23.8036 18.3449C23.9984 18.3347 24.1894 18.4013 24.3334 18.5302C24.4777 18.6591 24.5631 18.8391 24.5705 19.0303L24.5706 19.0207ZM19.0635 13.5152C18.7124 13.5129 18.4133 13.2637 18.3548 12.9245C18.1436 11.9748 18.2361 10.9849 18.6198 10.0888C17.6844 9.61612 16.3342 8.67101 16.387 7.02177C16.388 6.83255 16.4681 6.65191 16.6083 6.52137C16.7486 6.39115 16.937 6.32259 17.1297 6.33182C17.3224 6.33775 17.5048 6.41918 17.6363 6.55763C17.7675 6.69608 17.8367 6.88002 17.829 7.06891C17.8001 8.07071 18.9142 8.68515 19.5216 8.95908C20.9683 7.7918 23.0804 7.98066 23.1817 8.014C23.5813 8.05322 23.8725 8.40233 23.8325 8.79395C23.7928 9.18524 23.4366 9.47104 23.037 9.43182C22.8298 9.41599 22.6219 9.41599 22.4151 9.43182C21.6165 9.43775 20.8479 9.73048 20.2545 10.2543C19.8065 10.7979 19.6107 11.5004 19.7143 12.1916C19.7143 12.3617 19.748 12.5414 19.7769 12.7303C19.8105 12.9152 19.7675 13.1061 19.6568 13.2594C19.5465 13.413 19.378 13.5168 19.1889 13.5481C19.1459 13.5419 19.1039 13.5307 19.0635 13.5152ZM9.87716 15.3017C9.47923 15.2773 9.13613 15.5733 9.11057 15.9633C9.09611 16.1825 9.0507 16.3988 8.97535 16.6058C8.58482 17.7352 7.43716 18.1466 6.56426 18.2883C6.20737 18.3467 5.84577 18.3704 5.48417 18.3592C5.08457 18.3371 4.74248 18.6365 4.71994 19.0277C4.69707 19.4194 5.00283 19.7546 5.4021 19.777H5.71089C7.46134 19.777 10.3642 19.0208 10.562 16.053C10.5738 15.8641 10.5082 15.6785 10.3794 15.5374C10.2509 15.3963 10.0699 15.3113 9.87716 15.3017ZM12.8958 7.0265C12.884 6.63521 12.5504 6.32724 12.1508 6.33878C11.7515 6.35065 11.4374 6.67766 11.4495 7.06895C11.4784 8.07074 10.3643 8.68518 9.75688 8.95911C8.31013 7.79183 6.19336 7.98069 6.09683 8.01403C5.72783 8.06743 5.46034 8.38665 5.47951 8.75156C5.52256 9.13924 5.87339 9.42273 6.27031 9.38943C6.47717 9.37493 6.68505 9.37493 6.89226 9.38943C7.6908 9.39108 8.46042 9.68217 9.05278 10.207C9.50048 10.7509 9.69625 11.4534 9.59265 12.1446C9.59265 12.3147 9.55901 12.4944 9.53008 12.6833C9.49645 12.8685 9.53984 13.0588 9.65016 13.2124C9.76083 13.366 9.92935 13.4698 10.1184 13.5008C10.1601 13.5058 10.2021 13.5058 10.2439 13.5008C10.595 13.4988 10.8941 13.2496 10.9526 12.9101C11.1638 11.9607 11.071 10.9708 10.6872 10.0747C11.5988 9.63038 12.949 8.67109 12.8958 7.0265ZM19.1648 13.5011C19.3538 13.4701 19.5223 13.3659 19.633 13.2123C19.7433 13.0587 19.7867 12.8685 19.7531 12.6832C19.7242 12.4943 19.705 12.3147 19.6905 12.1446C19.5869 11.4533 19.7827 10.7508 20.2304 10.2069C20.8238 9.68308 21.5923 9.39067 22.3909 9.38474C22.5978 9.36859 22.806 9.36859 23.0129 9.38474C23.4125 9.42397 23.7687 9.13816 23.8087 8.74654C23.8484 8.35525 23.5571 8.00616 23.1575 7.96692C23.0563 7.96692 20.9345 7.76847 19.4975 8.91201C18.89 8.65225 17.7759 8.03781 17.8049 7.02184C17.8116 6.83361 17.7416 6.65099 17.6105 6.51353C17.4793 6.37606 17.2976 6.2953 17.1059 6.28937C16.9128 6.28014 16.7245 6.3487 16.5842 6.47892C16.4443 6.60946 16.3642 6.79011 16.3632 6.97933C16.31 8.62392 17.6602 9.58318 18.596 10.0464C18.2122 10.9424 18.1194 11.9323 18.3306 12.8817C18.3892 13.2213 18.6882 13.4705 19.0394 13.4725C19.0878 13.4886 19.1379 13.4982 19.1891 13.5008L19.1648 13.5011ZM23.8037 18.3591C23.4424 18.3699 23.0805 18.3462 22.7236 18.2882C21.8413 18.1464 20.6936 17.7354 20.3125 16.6056C20.2371 16.3986 20.1917 16.1823 20.1776 15.9631C20.151 15.5715 19.8056 15.2752 19.406 15.3015C19.0064 15.3276 18.7043 15.6661 18.7309 16.0574C18.9287 19.0252 21.8315 19.7815 23.582 19.7815H23.8908C24.2904 19.7594 24.5955 19.4238 24.5729 19.0325C24.5504 18.6409 24.208 18.3415 23.8087 18.3636L23.8037 18.3591ZM23.8037 18.3591C23.4424 18.3699 23.0805 18.3462 22.7236 18.2882C21.8413 18.1464 20.6936 17.7354 20.3125 16.6056C20.2371 16.3986 20.1917 16.1823 20.1776 15.9631C20.151 15.5715 19.8056 15.2752 19.406 15.3015C19.0064 15.3276 18.7043 15.6661 18.7309 16.0574C18.9287 19.0252 21.8315 19.7815 23.582 19.7815H23.8908C24.2904 19.7594 24.5955 19.4238 24.5729 19.0325C24.5504 18.6409 24.208 18.3415 23.8087 18.3636L23.8037 18.3591ZM23.1767 7.96221C23.0754 7.96221 20.9536 7.76376 19.5166 8.9073C18.9091 8.64754 17.7951 8.0331 17.824 7.01713C17.8304 6.8289 17.7608 6.64595 17.6296 6.50882C17.4984 6.37135 17.3168 6.29059 17.1251 6.28432C16.932 6.27542 16.7439 6.34399 16.6037 6.4742C16.4634 6.60441 16.3837 6.78506 16.3823 6.97428C16.3292 8.61887 17.6793 9.57813 18.6152 10.0413C18.2314 10.937 18.1389 11.9276 18.3498 12.877C18.4083 13.2165 18.7074 13.4658 19.0589 13.4677C19.1006 13.4724 19.1426 13.4724 19.1843 13.4677C19.3734 13.4368 19.5419 13.3326 19.6522 13.1793C19.7626 13.0257 19.8059 12.8351 19.7726 12.6502C19.7437 12.4613 19.7245 12.2817 19.7101 12.1116C19.6065 11.42 19.8019 10.7174 20.2499 10.1739C20.843 9.65008 21.6115 9.35768 22.4101 9.35142C22.6173 9.33559 22.8252 9.33559 23.0324 9.35142C23.4317 9.39064 23.7879 9.10517 23.8279 8.71355C23.868 8.32193 23.5763 7.97283 23.177 7.93393L23.1767 7.96221Z" fill="white"/>
<path d="M6.27031 9.38943L6.20036 8.39179L6.18673 8.39293L6.27031 9.38943ZM6.89226 9.38943L6.82243 10.387L6.85628 10.3894L6.8902 10.3894L6.89226 9.38943ZM9.05278 10.207L9.82487 9.57145L9.77484 9.51066L9.71591 9.45846L9.05278 10.207ZM9.59265 12.1446L8.60369 11.9964L8.59265 12.0701V12.1446H9.59265ZM9.53008 12.6833L10.514 12.8619L10.5165 12.8483L10.5186 12.8347L9.53008 12.6833ZM9.65016 13.2124L8.83794 13.7957L8.8388 13.7969L9.65016 13.2124ZM10.1184 13.5008L9.95662 14.4876L9.97858 14.4912L10.0007 14.4939L10.1184 13.5008ZM10.2439 13.5008L10.2382 12.5008L10.182 12.5011L10.1261 12.5078L10.2439 13.5008ZM10.9526 12.9101L9.97646 12.6929L9.97122 12.7164L9.96712 12.7402L10.9526 12.9101ZM10.6872 10.0747L10.249 9.17586L9.39304 9.59312L9.76796 10.4685L10.6872 10.0747ZM9.87716 15.3017L9.81597 16.2999L9.82761 16.3005L9.87716 15.3017ZM9.11057 15.9633L10.1084 16.0291L10.1084 16.0287L9.11057 15.9633ZM8.97535 16.6058L8.03566 16.2638L8.0329 16.2713L8.03026 16.279L8.97535 16.6058ZM6.56426 18.2883L6.40394 17.3013L6.40291 17.3014L6.56426 18.2883ZM5.48417 18.3592L5.42899 19.3577L5.44108 19.3584L5.45319 19.3587L5.48417 18.3592ZM4.71994 19.0277L5.71824 19.0861L5.71829 19.0852L4.71994 19.0277ZM5.4021 19.777L5.34605 20.7755L5.37405 20.777H5.4021V19.777ZM10.562 16.053L11.5598 16.1195L11.5601 16.1152L10.562 16.053ZM10.3794 15.5374L9.64002 16.2108L9.6409 16.2117L10.3794 15.5374ZM23.8037 18.3591L24.475 17.6179L24.1763 17.3474L23.7736 17.3595L23.8037 18.3591ZM22.7236 18.2882L22.884 17.3011L22.8822 17.3008L22.7236 18.2882ZM20.3125 16.6056L21.26 16.286L21.2562 16.2747L21.2522 16.2636L20.3125 16.6056ZM20.1776 15.9631L21.1755 15.8988L21.1753 15.8954L20.1776 15.9631ZM19.406 15.3015L19.471 16.2994L19.4718 16.2994L19.406 15.3015ZM18.7309 16.0574L19.7287 15.9909L19.7286 15.9896L18.7309 16.0574ZM23.8908 19.7815V20.7815H23.9184L23.946 20.7799L23.8908 19.7815ZM24.5729 19.0325L23.5746 19.0899L23.5746 19.09L24.5729 19.0325ZM23.8087 18.3636L23.1374 19.1048L23.4469 19.3852L23.8639 19.3621L23.8087 18.3636ZM4.48562 8.86195C4.59036 9.80509 5.43426 10.4631 6.35389 10.3859L6.18673 8.39293C6.31252 8.38238 6.45476 8.47338 6.47339 8.64118L4.48562 8.86195ZM6.34025 10.387C6.50051 10.3757 6.66168 10.3757 6.82243 10.387L6.96209 8.39188C6.70843 8.37412 6.45384 8.37411 6.20037 8.39188L6.34025 10.387ZM6.8902 10.3894C7.44771 10.3906 7.9816 10.594 8.38964 10.9555L9.71591 9.45846C8.93925 8.77038 7.93389 8.39158 6.89433 8.38944L6.8902 10.3894ZM8.28069 10.8425C8.55002 11.1697 8.66492 11.5879 8.60369 11.9964L10.5816 12.2929C10.7276 11.3189 10.451 10.3321 9.82487 9.57145L8.28069 10.8425ZM8.59265 12.1446C8.59265 12.2164 8.57877 12.2893 8.54161 12.5319L10.5186 12.8347C10.5393 12.6995 10.5926 12.4131 10.5926 12.1446H8.59265ZM8.54617 12.5046C8.46362 12.9593 8.57102 13.4241 8.83794 13.7957L10.4624 12.629C10.5087 12.6934 10.5293 12.7778 10.514 12.8619L8.54617 12.5046ZM8.8388 13.7969C9.10617 14.168 9.50966 14.4144 9.95662 14.4876L10.2802 12.514C10.349 12.5253 10.4155 12.5639 10.4615 12.6278L8.8388 13.7969ZM10.0007 14.4939C10.1206 14.5081 10.2417 14.5081 10.3616 14.4939L10.1261 12.5078C10.1626 12.5034 10.1996 12.5034 10.2361 12.5078L10.0007 14.4939ZM10.2495 14.5008C11.0712 14.4962 11.7948 13.9108 11.9381 13.08L9.96712 12.7402C9.99328 12.5885 10.1188 12.5015 10.2382 12.5008L10.2495 14.5008ZM11.9287 13.1273C12.1856 11.9726 12.0725 10.7691 11.6064 9.68103L9.76796 10.4685C10.0695 11.1725 10.142 11.9488 9.97646 12.6929L11.9287 13.1273ZM11.1254 10.9736C12.0932 10.5018 13.9692 9.28146 13.8952 6.99416L11.8963 7.05884C11.9287 8.06072 11.1043 8.75893 10.249 9.17586L11.1254 10.9736ZM9.93835 14.3036C9.00985 14.2466 8.17552 14.9396 8.11271 15.8979L10.1084 16.0287C10.0967 16.207 9.94862 16.3079 9.81597 16.2998L9.93835 14.3036ZM8.11274 15.8975C8.10449 16.0225 8.0786 16.1458 8.03566 16.2638L9.91505 16.9478C10.0228 16.6517 10.0877 16.3425 10.1084 16.0291L8.11274 15.8975ZM8.03026 16.279C7.83272 16.8503 7.20541 17.1711 6.40394 17.3013L6.72457 19.2754C7.66892 19.122 9.33693 18.6201 9.92045 16.9326L8.03026 16.279ZM6.40291 17.3014C6.10958 17.3494 5.81239 17.3689 5.51516 17.3597L5.45319 19.3587C5.87915 19.3719 6.30516 19.344 6.72561 19.2752L6.40291 17.3014ZM5.53936 17.3607C4.60866 17.3093 3.77694 18.0092 3.7216 18.9702L5.71829 19.0852C5.70801 19.2637 5.56047 19.365 5.42899 19.3577L5.53936 17.3607ZM3.72164 18.9694C3.66535 19.9332 4.4146 20.7232 5.34605 20.7755L5.45815 18.7786C5.59106 18.7861 5.72878 18.9055 5.71824 19.0861L3.72164 18.9694ZM5.4021 20.777H5.71089V18.777H5.4021V20.777ZM5.71089 20.777C6.70127 20.777 8.05267 20.5677 9.21899 19.8938C10.4313 19.1934 11.4354 17.9856 11.5598 16.1195L9.56423 15.9865C9.4908 17.0882 8.94462 17.7425 8.2184 18.1621C7.44622 18.6083 6.47095 18.777 5.71089 18.777V20.777ZM11.5601 16.1152C11.5888 15.6538 11.4281 15.2029 11.1178 14.8631L9.6409 16.2117C9.58832 16.1541 9.55873 16.0744 9.56395 15.9908L11.5601 16.1152ZM11.1187 14.8641C10.8105 14.5257 10.3807 14.3254 9.92671 14.3029L9.82761 16.3005C9.75906 16.2971 9.69119 16.2669 9.64002 16.2108L11.1187 14.8641ZM23.7736 17.3595C23.4761 17.3685 23.1779 17.3489 22.884 17.3011L22.5631 19.2752C22.983 19.3435 23.4087 19.3714 23.8337 19.3586L23.7736 17.3595ZM22.8822 17.3008C22.0684 17.1701 21.4499 16.8489 21.26 16.286L19.3649 16.9253C19.9373 18.6218 21.6142 19.1228 22.5649 19.2755L22.8822 17.3008ZM21.2522 16.2636C21.2092 16.1456 21.1835 16.0228 21.1755 15.8988L19.1797 16.0275C19.1999 16.3418 19.265 16.6516 19.3728 16.9476L21.2522 16.2636ZM21.1753 15.8954C21.1101 14.9353 20.2717 14.2422 19.3401 14.3037L19.4718 16.2994C19.3394 16.3081 19.1919 16.2077 19.1799 16.0308L21.1753 15.8954ZM19.3409 14.3036C18.4079 14.3645 17.6678 15.1633 17.7332 16.1252L19.7286 15.9896C19.7407 16.169 19.6048 16.2907 19.471 16.2994L19.3409 14.3036ZM17.7331 16.1239C17.8574 17.99 18.8616 19.1978 20.0739 19.8982C21.2402 20.5721 22.5916 20.7815 23.582 20.7815V18.7815C22.8219 18.7815 21.8467 18.6127 21.0745 18.1665C20.3483 17.7469 19.8021 17.0926 19.7287 15.9909L17.7331 16.1239ZM23.582 20.7815H23.8908V18.7815H23.582V20.7815ZM23.946 20.7799C24.88 20.7283 25.6266 19.9363 25.5713 18.975L23.5746 19.09C23.5643 18.9113 23.7007 18.7904 23.8356 18.783L23.946 20.7799ZM25.5713 18.975C25.516 18.0137 24.6839 17.3137 23.7535 17.3652L23.8639 19.3621C23.732 19.3694 23.5848 19.268 23.5746 19.0899L25.5713 18.975ZM24.48 17.6225L24.475 17.6179L23.1323 19.1002L23.1374 19.1048L24.48 17.6225ZM10.5523 16.0487L12.5478 16.1817L12.8941 10.9866L9.15891 14.6139L10.5523 16.0487ZM5.39235 19.7728L5.28198 21.7697L5.33713 21.7728H5.39235V19.7728ZM4.71019 19.0235L2.7135 18.9086L2.7135 18.9086L4.71019 19.0235ZM5.47443 18.3549L5.36233 20.3518L5.38829 20.3532L5.41428 20.354L5.47443 18.3549ZM6.55485 18.2841L6.2376 16.3094L6.23395 16.31L6.55485 18.2841ZM8.96595 16.6015L7.08558 15.9202L7.078 15.9411L7.07088 15.9622L8.96595 16.6015ZM9.10083 15.9587L7.10543 15.8232L7.10516 15.8272L9.10083 15.9587ZM9.87246 15.2971L10.0026 13.3013L10.0025 13.3013L9.87246 15.2971ZM10.5476 16.0533L8.55214 15.9179L8.19901 21.1219L11.9409 17.4881L10.5476 16.0533ZM12.8958 7.0173L14.8958 7.01846L14.8958 6.98783L14.8949 6.9572L12.8958 7.0173ZM12.1507 6.32966L12.2085 8.32882L12.2101 8.32878L12.1507 6.32966ZM11.4494 7.05982L13.4486 7.0021L13.4484 6.99798L11.4494 7.05982ZM9.75679 8.94999L8.50093 10.5065L9.45798 11.2787L10.579 10.7732L9.75679 8.94999ZM6.09675 8.00491L6.38018 9.98472L6.56913 9.95767L6.74957 9.89536L6.09675 8.00491ZM5.47951 8.75156L3.48381 8.88269L7.47687 8.64895L5.47951 8.75156ZM12.8958 7.0265L10.8967 7.08665L14.8958 7.02766L12.8958 7.0265ZM12.1534 6.3226L14.1534 6.31458L14.1451 4.25752L12.0891 4.32364L12.1534 6.3226ZM11.6435 6.55137L10.1838 5.18417L10.1821 5.18597L11.6435 6.55137ZM11.4541 7.06892L13.4533 7.01119L13.4525 6.9853L13.4511 6.95944L11.4541 7.06892ZM9.7615 8.95909L8.50564 10.5156L9.4627 11.2878L10.5837 10.7823L9.7615 8.95909ZM6.10146 8.014L6.37456 9.99527L6.56887 9.96849L6.75428 9.90446L6.10146 8.014ZM12.92 7.00754L14.919 6.94356L14.9186 6.92946L14.9179 6.91536L12.92 7.00754ZM12.1535 6.33637L10.1535 6.3444L10.162 8.47336L12.2863 8.33196L12.1535 6.33637ZM27.5844 22.301L28.9676 20.8564L25.7703 17.7952L25.5862 22.2178L27.5844 22.301ZM26.0173 26.1288L27.3379 27.6308L27.3447 27.6249L27.3514 27.6188L26.0173 26.1288ZM23.4229 27.1069L23.416 25.1069L21.4823 25.1136L21.4238 27.0464L23.4229 27.1069ZM22.7081 29.1781L21.0946 27.9962L21.0943 27.9967L22.7081 29.1781ZM20.9344 30.5046L20.251 28.625L20.2168 28.6374L20.1831 28.6511L20.9344 30.5046ZM18.7789 30.916L18.7932 28.9161L18.7796 28.916L18.7661 28.9161L18.7789 30.916ZM14.6416 29.3185L16.0007 27.8513L14.6368 26.5879L13.2773 27.8561L14.6416 29.3185ZM10.4898 30.9302L10.5026 28.9302L10.489 28.9302L10.4755 28.9303L10.4898 30.9302ZM8.33433 30.5188L9.08565 28.6653L9.05188 28.6516L9.01762 28.6391L8.33433 30.5188ZM6.56063 29.1923L8.17434 28.0108L8.17408 28.0104L6.56063 29.1923ZM5.84584 27.1211L7.84492 27.0606L7.78643 25.1278L5.85272 25.1211L5.84584 27.1211ZM3.25141 26.1427L1.91722 27.6326L1.92396 27.6387L1.93075 27.6446L3.25141 26.1427ZM1.68428 22.3148L3.68255 22.2316L3.65725 21.6242L3.29826 21.1337L1.68428 22.3148ZM1.68428 12.0741L3.34641 13.1865L3.78882 12.5254L3.65636 11.7411L1.68428 12.0741ZM2.58612 6.7622L0.962115 5.59484L0.956092 5.60332L2.58612 6.7622ZM5.30601 4.78233L5.9246 6.68426L7.24901 6.25351L7.30443 4.8619L5.30601 4.78233ZM6.59836 2.15468L5.44365 0.521687L5.37347 0.571313L5.30781 0.626776L6.59836 2.15468ZM9.94961 1.30884L9.71334 3.29483L10.6583 3.40725L11.3416 2.74496L9.94961 1.30884ZM12.7129 0.217L12.6868 2.21683L12.7273 2.21736L12.7678 2.21625L12.7129 0.217ZM14.6416 1.07702L13.1102 2.36339L14.6416 4.18656L16.173 2.36337L14.6416 1.07702ZM16.5703 0.217L16.5152 2.21624L16.5617 2.21752L16.6083 2.21664L16.5703 0.217ZM19.3578 1.30884L17.9657 2.74481L18.649 3.40728L19.5941 3.29483L19.3578 1.30884ZM22.709 2.15468L23.9996 0.626766L23.9339 0.571293L23.8637 0.521661L22.709 2.15468ZM24.0014 4.78233L22.003 4.86194L22.0581 6.24419L23.3708 6.68033L24.0014 4.78233ZM26.6971 6.7622L28.327 5.60316L28.3237 5.59856L26.6971 6.7622ZM27.5649 12.0741L25.5951 11.7281L25.4521 12.5422L25.9255 13.2197L27.5649 12.0741ZM27.5989 22.3148L26.2157 23.7595L27.8624 25.336L29.2112 23.4982L27.5989 22.3148ZM13.9187 2.8584L15.9187 2.8584V2.70319L15.8947 2.54983L13.9187 2.8584ZM12.7131 1.63441L12.6885 3.63425L12.7008 3.63441H12.7131V1.63441ZM11.4158 1.96504L10.4355 0.22173L7.87042 1.66405L10.1557 3.51816L11.4158 1.96504ZM12.2644 3.28828L14.2085 2.81859L14.206 2.80816L14.2034 2.79776L12.2644 3.28828ZM11.218 6.12395L12.6841 7.48429L12.6846 7.4838L11.218 6.12395ZM10.6782 6.35536L10.6942 4.35543L10.6732 4.35526L10.6523 4.35553L10.6782 6.35536ZM10.1958 6.17603L11.5255 4.68201L11.5174 4.67493L10.1958 6.17603ZM9.95765 5.68816L7.96036 5.79221L7.96055 5.79581L9.95765 5.68816ZM10.143 5.17885L8.68034 3.81478L8.67537 3.82014L10.143 5.17885ZM10.5527 4.66361L8.99883 3.40442L8.94292 3.47342L8.89334 3.5471L10.5527 4.66361ZM10.8564 3.61928L12.8425 3.38336L12.8212 3.20421L12.7682 3.03176L10.8564 3.61928ZM10.331 2.9435L9.19066 4.58655L9.23559 4.61773L9.28216 4.64642L10.331 2.9435ZM10.0078 2.75428L10.8814 0.955181L10.5882 0.812802L10.2649 0.770889L10.0078 2.75428ZM7.4954 3.26458L8.75316 4.81959L8.757 4.81647L7.4954 3.26458ZM6.7093 5.34403L8.7093 5.35567V5.34403H6.7093ZM6.10182 6.04355L5.7776 4.07001L5.71731 4.07991L5.65773 4.09348L6.10182 6.04355ZM3.74385 7.59852L2.12092 6.42972L2.11177 6.44243L2.10282 6.45528L3.74385 7.59852ZM3.17 12.093L1.21115 12.4966L1.23743 12.6241L1.28003 12.7472L3.17 12.093ZM3.65202 13.038L5.33931 11.9642L5.31644 11.9283L5.29207 11.8934L3.65202 13.038ZM5.16636 14.0824L4.75049 16.0387L4.77854 16.0446L4.80675 16.0498L5.16636 14.0824ZM6.07285 14.0824L5.7568 12.1075L5.73515 12.111L5.71358 12.1149L6.07285 14.0824ZM6.91444 14.6754L4.94164 15.0041L4.94164 15.0041L6.91444 14.6754ZM6.30898 15.5002L5.99294 13.5253L5.98124 13.5272L5.96957 13.5292L6.30898 15.5002ZM5.59554 15.5615L5.57463 17.5614L5.58646 17.5615L5.59829 17.5615L5.59554 15.5615ZM2.38387 13.7326L4.10172 12.7084L2.34209 9.75704L0.644875 12.7447L2.38387 13.7326ZM2.24394 20.4857L0.465896 21.4015L1.94091 24.2655L3.85338 21.673L2.24394 20.4857ZM2.60554 20.1076L1.38655 18.522L1.36611 18.5378L1.34608 18.554L2.60554 20.1076ZM4.46226 19.7061L4.01298 21.655L4.06727 21.6675L4.12217 21.677L4.46226 19.7061ZM5.05763 20.5401L7.02587 20.8951L7.02587 20.8951L5.05763 20.5401ZM4.20662 21.1236L3.61247 23.0333L3.73687 23.072L3.86524 23.0943L4.20662 21.1236ZM3.51706 21.2232L2.40358 19.5618L2.211 19.6909L2.05304 19.8606L3.51706 21.2232ZM3.141 22.1257L1.14238 22.0515L1.141 22.0886V22.1257H3.141ZM4.25002 25.1219L2.91281 26.6091L2.93063 26.6252L2.94884 26.6407L4.25002 25.1219ZM6.03414 25.7268L6.1361 27.7242L7.60453 27.6492L7.97102 26.2253L6.03414 25.7268ZM7.13541 23.8939L8.48905 25.3662L8.48906 25.3662L7.13541 23.8939ZM9.07221 22.9337L8.72165 20.9646L8.71475 20.9659L9.07221 22.9337ZM9.66052 22.8674L9.75724 24.8651L10.1995 24.8436L10.5914 24.6376L9.66052 22.8674ZM9.95956 22.5321L11.8276 23.2465L11.9451 22.9392L11.958 22.6104L9.95956 22.5321ZM9.75706 21.9698L8.0989 23.088L8.17334 23.1984L8.26175 23.2979L9.75706 21.9698ZM9.63159 21.8043L8.05058 23.0292L8.07769 23.0642L8.10632 23.0979L9.63159 21.8043ZM9.74697 20.8295L11.0059 22.3835L11.0069 22.3827L9.74697 20.8295ZM10.7457 20.9017L9.2733 22.2552L9.30771 22.2927L9.34399 22.3283L10.7457 20.9017ZM11.3629 22.8769L13.3035 23.3608L13.3158 23.3113L13.3256 23.2613L11.3629 22.8769ZM11.0733 23.4864L9.47021 22.2906L8.34086 23.8045L9.78775 25.0186L11.0733 23.4864ZM11.5557 24.1055L13.39 23.3085L13.3744 23.2726L13.3574 23.2373L11.5557 24.1055ZM11.4833 25.7359L9.7264 24.7803L9.70496 24.8197L9.68531 24.8601L11.4833 25.7359ZM10.8274 26.1424L10.8026 28.1422L10.8162 28.1424L10.8298 28.1424L10.8274 26.1424ZM10.519 26.0765L9.67312 27.8888L9.69773 27.9003L9.72264 27.9111L10.519 26.0765ZM10.1718 25.131L8.37841 24.2458L8.37163 24.2595L8.36508 24.2734L10.1718 25.131ZM10.2344 24.6583L12.1412 24.0549L12.0655 23.8156L11.933 23.6025L10.2344 24.6583ZM9.75205 24.2664L10.4477 22.3912L10.0752 22.2531L9.67825 22.2677L9.75205 24.2664ZM7.34095 26.4638L5.39822 25.9886L5.39006 26.022L5.38305 26.0556L7.34095 26.4638ZM7.60635 28.1173L9.33976 27.1197L9.33954 27.1193L7.60635 28.1173ZM8.91316 29.1952L9.63025 27.3282L9.6011 27.317L9.57162 27.3067L8.91316 29.1952ZM11.6055 29.3765L11.1461 27.43L11.146 27.43L11.6055 29.3765ZM13.9187 28.0138L15.4027 29.3546L15.9187 28.7835V28.0138L13.9187 28.0138ZM26.9093 13.7278L28.9091 13.7008L28.8124 6.5452L25.1852 12.7141L26.9093 13.7278ZM23.7024 15.5755L23.6996 17.5755L23.7157 17.5756L23.7318 17.5753L23.7024 15.5755ZM22.9889 15.5142L23.3284 13.5432L23.3167 13.5412L23.305 13.5394L22.9889 15.5142ZM23.2251 14.0964L23.5843 12.1289L23.5628 12.125L23.5412 12.1215L23.2251 14.0964ZM24.1316 14.0964L24.4912 16.0638L24.5194 16.0587L24.5474 16.0527L24.1316 14.0964ZM25.6459 13.0521L24.0058 11.9074L23.9815 11.9424L23.9586 11.9783L25.6459 13.0521ZM26.1279 12.1067L28.0179 12.7609L28.0627 12.6314L28.0895 12.4969L26.1279 12.1067ZM25.5541 7.61223L27.1953 6.46922L27.1867 6.45686L27.1779 6.44462L25.5541 7.61223ZM23.1914 6.05759L23.6314 4.10659L23.5851 4.09616L23.5384 4.08793L23.1914 6.05759ZM22.5886 5.3584H20.5886V5.36915L20.5887 5.3799L22.5886 5.3584ZM21.7978 3.27895L20.537 4.83151L20.5426 4.83606L20.5482 4.84056L21.7978 3.27895ZM19.2902 2.76865L19.0293 0.785735L18.69 0.830378L18.3847 0.985334L19.2902 2.76865ZM18.9669 2.95754L20.0158 4.66043L20.0492 4.63987L20.0817 4.61803L18.9669 2.95754ZM18.4415 3.63332L16.5297 3.0458L16.4767 3.21826L16.4555 3.39743L18.4415 3.63332ZM18.7452 4.67764L20.4067 3.56431L20.3562 3.48895L20.2991 3.41846L18.7452 4.67764ZM19.1405 5.17871L17.6699 6.53419L17.675 6.53974L17.6801 6.54525L19.1405 5.17871ZM19.3282 5.69032L21.3253 5.79721L21.3255 5.79385L19.3282 5.69032ZM19.0877 6.18051L17.7748 4.67171L17.7664 4.67907L17.758 4.68654L19.0877 6.18051ZM18.6053 6.36017L18.6275 4.36029L18.6148 4.36015L18.6021 4.36017L18.6053 6.36017ZM18.0654 6.12381L19.544 4.77696L19.5385 4.771L18.0654 6.12381ZM17.019 3.28814L15.0837 2.78363L15.0798 2.79867L15.0761 2.81377L17.019 3.28814ZM17.8677 1.98406L19.118 3.54509L21.4335 1.69052L18.8458 0.239582L17.8677 1.98406ZM16.5656 1.65309V3.65309H16.5772L16.5887 3.65296L16.5656 1.65309ZM15.3648 2.87708L13.3868 2.58124L13.3648 2.72835V2.87708H15.3648ZM15.3648 28.0135H13.3648V28.7766L13.8731 29.3457L15.3648 28.0135ZM17.6813 29.3914L18.1468 27.4463L18.146 27.4461L17.6813 29.3914ZM20.3848 29.214L19.7253 27.3259L19.6967 27.3359L19.6685 27.3467L20.3848 29.214ZM21.6916 28.1361L23.4246 29.1344L23.425 29.1337L21.6916 28.1361ZM21.957 26.4822L19.9731 26.7353L19.983 26.8134L19.9991 26.8904L21.957 26.4822ZM19.5459 24.2848L19.6189 22.2861L19.2223 22.2717L18.8502 22.4097L19.5459 24.2848ZM19.0635 24.6771L17.365 23.6212L17.0635 24.1061V24.6771H19.0635ZM19.1261 25.1498L17.3052 25.9771L17.3121 25.9923L17.3193 26.0074L19.1261 25.1498ZM18.779 26.0949L19.5753 27.9295L19.6002 27.9187L19.6248 27.9073L18.779 26.0949ZM18.4705 26.1612L18.4658 28.1611L18.4837 28.1612L18.5015 28.1609L18.4705 26.1612ZM17.8146 25.7547L19.6126 24.8788L19.5931 24.8387L19.5718 24.7996L17.8146 25.7547ZM17.7614 24.0818L15.9607 23.2115L15.9542 23.225L15.9479 23.2386L17.7614 24.0818ZM18.2438 23.4627L19.5294 24.9948L20.9762 23.7808L19.8469 22.2669L18.2438 23.4627ZM17.9545 22.8528L15.992 23.2381L16.0017 23.2877L16.0139 23.3367L17.9545 22.8528ZM18.5718 20.8776L19.973 22.3046L20.01 22.2683L20.0451 22.2301L18.5718 20.8776ZM19.5705 20.8054L20.8304 19.2521L20.8285 19.2506L19.5705 20.8054ZM19.6855 21.7802L21.2147 23.0692L21.2413 23.0376L21.2666 23.005L19.6855 21.7802ZM19.5604 21.9457L21.0541 23.2757L21.1434 23.1753L21.2186 23.0639L19.5604 21.9457ZM19.3579 22.5081L17.3596 22.5896L17.3724 22.9038L17.481 23.1989L19.3579 22.5081ZM19.6566 22.8436L18.7443 24.6234L19.1301 24.8212L19.5632 24.8415L19.6566 22.8436ZM20.2449 22.9096L20.6022 20.9417L20.596 20.9406L20.2449 22.9096ZM22.1817 23.8698L20.828 25.3421H20.828L22.1817 23.8698ZM23.283 25.7027L21.3462 26.2015L21.7122 27.6229L23.178 27.6999L23.283 25.7027ZM25.0671 25.0978L26.3711 26.6143L26.3828 26.6041L26.3944 26.5938L25.0671 25.0978ZM26.1761 22.1016H28.1761V22.0635L28.1747 22.0253L26.1761 22.1016ZM25.8004 21.1991L27.2662 19.8384L27.1068 19.6667L26.912 19.5364L25.8004 21.1991ZM25.1105 21.0998L25.4522 23.0704L25.58 23.0483L25.7039 23.0098L25.1105 21.0998ZM24.2595 20.516L26.2277 20.161L26.2277 20.1607L24.2595 20.516ZM24.8552 19.682L25.1966 21.6527L25.2504 21.6433L25.3037 21.6311L24.8552 19.682ZM26.7116 20.0839L27.9545 18.5169L27.9429 18.5077L27.9312 18.4988L26.7116 20.0839ZM27.0732 20.4616L25.4525 21.6335L27.3855 24.3068L28.8618 21.3567L27.0732 20.4616ZM26.9094 13.7368L24.9096 13.7638L24.9165 14.273L25.1661 14.7169L26.9094 13.7368ZM24.5706 19.0207L26.5681 18.9222L22.5706 19.0192L24.5706 19.0207ZM23.8904 19.7673V21.7673H23.9544L24.0182 21.7632L23.8904 19.7673ZM18.7305 16.0433L20.7261 15.9103L20.7259 15.9075L18.7305 16.0433ZM18.9084 15.5284L17.4179 14.1949L17.4161 14.1969L18.9084 15.5284ZM19.4059 15.2874L19.5364 17.2831L19.5376 17.2831L19.4059 15.2874ZM20.1776 15.949L22.1734 15.8204L22.173 15.8136L20.1776 15.949ZM20.3124 16.5915L22.2026 15.9379L22.1974 15.9226L22.1918 15.9075L20.3124 16.5915ZM22.7235 18.274L23.0445 16.3L23.0442 16.2999L22.7235 18.274ZM23.8036 18.3449L23.8638 20.344L23.8861 20.3433L23.9084 20.3422L23.8036 18.3449ZM24.3334 18.5302L22.9993 20.0202L23.0011 20.0218L24.3334 18.5302ZM24.5705 19.0303L22.572 19.1076L26.5705 19.0317L24.5705 19.0303ZM19.0635 13.5152L19.7802 11.6481L19.4405 11.5177L19.0767 11.5153L19.0635 13.5152ZM18.3548 12.9245L20.3257 12.5844L20.3175 12.5371L20.3071 12.4903L18.3548 12.9245ZM18.6198 10.0888L20.4583 10.8763L21.1975 9.15057L19.5219 8.30383L18.6198 10.0888ZM16.387 7.02177L18.386 7.08575L18.3868 7.0591L18.387 7.03244L16.387 7.02177ZM16.6083 6.52137L15.2476 5.05561L15.2458 5.05732L16.6083 6.52137ZM17.1297 6.33182L17.034 8.32953L17.0511 8.33035L17.0682 8.33087L17.1297 6.33182ZM17.6363 6.55763L19.0881 5.18204L19.0863 5.18019L17.6363 6.55763ZM17.829 7.06891L15.8307 6.98711L15.8302 6.99914L15.8298 7.01119L17.829 7.06891ZM19.5216 8.95908L18.6994 10.7823L19.8204 11.2878L20.7775 10.5156L19.5216 8.95908ZM23.1817 8.014L22.5563 9.91372L22.7663 9.98283L22.9863 10.0044L23.1817 8.014ZM23.8325 8.79395L21.8429 8.5906L21.8427 8.5921L23.8325 8.79395ZM23.037 9.43182L23.2324 7.44138L23.2109 7.43927L23.1893 7.43762L23.037 9.43182ZM22.4151 9.43182L22.4299 11.4318L22.4989 11.4312L22.5676 11.426L22.4151 9.43182ZM20.2545 10.2543L18.931 8.7549L18.8121 8.85985L18.7112 8.98223L20.2545 10.2543ZM19.7143 12.1916H21.7143V12.0426L21.6922 11.8952L19.7143 12.1916ZM19.7769 12.7303L17.8 13.033L17.8042 13.0607L17.8092 13.0882L19.7769 12.7303ZM19.6568 13.2594L18.0352 12.0887L18.0324 12.0927L19.6568 13.2594ZM19.1889 13.5481L18.901 15.5273L19.2089 15.5721L19.5158 15.5212L19.1889 13.5481ZM12.1508 6.33878L12.093 4.33961L12.0914 4.33966L12.1508 6.33878ZM11.4495 7.06895L13.4486 7.01122L13.4485 7.00705L11.4495 7.06895ZM9.75688 8.95911L8.50101 10.5156L9.45807 11.2878L10.5791 10.7823L9.75688 8.95911ZM6.09683 8.01403L6.38329 9.99341L6.57068 9.96629L6.74965 9.90449L6.09683 8.01403ZM19.1648 13.5011L18.8413 11.5274L19.1862 15.5009L19.1648 13.5011ZM19.633 13.2123L21.2558 14.3814L21.2575 14.379L19.633 13.2123ZM19.7531 12.6832L17.7761 12.986L17.7803 13.0133L17.7853 13.0406L19.7531 12.6832ZM19.6905 12.1446L21.6833 11.9751L21.6779 11.9114L21.6684 11.8481L19.6905 12.1446ZM20.2304 10.2069L18.9068 8.70754L18.7874 8.8129L18.6863 8.93582L20.2304 10.2069ZM22.3909 9.38474L22.4058 11.3847L22.4763 11.3842L22.5466 11.3787L22.3909 9.38474ZM23.0129 9.38474L23.2083 7.39431L23.1884 7.39236L23.1686 7.39081L23.0129 9.38474ZM23.8087 8.74654L25.7984 8.94993L25.7985 8.94838L23.8087 8.74654ZM23.1575 7.96692L23.3529 5.97649L23.2555 5.96692H23.1575V7.96692ZM19.4975 8.91201L18.7111 10.7509L19.8087 11.2203L20.7428 10.477L19.4975 8.91201ZM17.8049 7.02184L15.8061 6.9504L15.8059 6.95765L15.8057 6.96491L17.8049 7.02184ZM17.6105 6.51353L16.1636 7.89429L16.1636 7.8943L17.6105 6.51353ZM17.1059 6.28937L17.0104 8.28709L17.0272 8.28789L17.044 8.28841L17.1059 6.28937ZM16.5842 6.47892L15.2235 5.01314L15.2199 5.0165L16.5842 6.47892ZM16.3632 6.97933L18.3621 7.04392L18.363 7.01696L18.3632 6.98997L16.3632 6.97933ZM18.596 10.0464L20.4345 10.8339L21.1799 9.09373L19.4832 8.25395L18.596 10.0464ZM18.3306 12.8817L20.3016 12.542L20.2934 12.4944L20.2829 12.4473L18.3306 12.8817ZM19.0394 13.4725L19.6721 11.5752L19.3695 11.4743L19.0506 11.4725L19.0394 13.4725ZM19.1891 13.5008L19.2105 15.5007L19.2921 11.5035L19.1891 13.5008ZM23.1767 7.96221V9.96221H25.1496L25.1765 7.98943L23.1767 7.96221ZM19.5166 8.9073L18.7303 10.7462L19.8279 11.2156L20.762 10.4723L19.5166 8.9073ZM17.824 7.01713L15.8251 6.94926L15.8248 6.9602L17.824 7.01713ZM17.6296 6.50882L16.1827 7.88958L16.1844 7.89132L17.6296 6.50882ZM17.1251 6.28432L17.033 8.2822L17.0463 8.28282L17.0597 8.28325L17.1251 6.28432ZM16.6037 6.4742L15.243 5.00843L15.243 5.00844L16.6037 6.4742ZM16.3823 6.97428L18.3813 7.03888L18.3821 7.01368L18.3823 6.98848L16.3823 6.97428ZM18.6152 10.0413L20.4535 10.8291L21.1993 9.0888L19.5024 8.2489L18.6152 10.0413ZM18.3498 12.877L20.3207 12.5373L20.3126 12.4901L20.3022 12.4433L18.3498 12.877ZM19.0589 13.4677L19.2788 11.4799L19.1748 11.4684L19.0701 11.4678L19.0589 13.4677ZM19.1843 13.4677L19.4043 15.4556L19.4563 15.4499L19.5079 15.4414L19.1843 13.4677ZM19.6522 13.1793L21.2755 14.3477L21.2767 14.346L19.6522 13.1793ZM19.7726 12.6502L17.7957 12.953L17.7997 12.9789L17.8043 13.0047L19.7726 12.6502ZM19.7101 12.1116L21.7029 11.9421L21.6975 11.8785L21.688 11.8153L19.7101 12.1116ZM20.2499 10.1739L18.9259 8.67491L18.8073 8.77967L18.7067 8.90178L20.2499 10.1739ZM22.4101 9.35142L22.4258 11.3514L22.4942 11.3508L22.5624 11.3456L22.4101 9.35142ZM23.0324 9.35142L23.228 7.361L23.2063 7.35888L23.1847 7.35722L23.0324 9.35142ZM23.8279 8.71355L25.8176 8.91694L25.8176 8.91691L23.8279 8.71355ZM23.177 7.93393L23.371 5.94335L21.2068 5.73248L21.1772 7.90671L23.177 7.93393ZM8.55669 15.9157C8.50874 16.6353 8.19156 17.0128 7.70837 17.292C7.13325 17.6243 6.34604 17.7728 5.70114 17.7728V21.7728C6.80669 21.7728 8.34615 21.5431 9.70953 20.7554C11.1648 19.9145 12.398 18.43 12.5478 16.1817L8.55669 15.9157ZM5.70114 17.7728H5.39235V21.7728H5.70114V17.7728ZM5.50273 17.7758C6.17267 17.8128 6.74991 18.3907 6.70689 19.1384L2.7135 18.9086C2.6254 20.4395 3.81283 21.6885 5.28198 21.7697L5.50273 17.7758ZM6.70689 19.1384C6.66387 19.8859 6.02687 20.3891 5.36233 20.3518L5.58652 16.3581C4.12345 16.2759 2.80159 17.3777 2.7135 18.9086L6.70689 19.1384ZM5.41428 20.354C5.90331 20.3687 6.39284 20.3366 6.87576 20.2581L6.23395 16.31C6.00307 16.3475 5.76874 16.3629 5.53457 16.3558L5.41428 20.354ZM6.87211 20.2587C7.89137 20.095 10.0975 19.5041 10.861 17.2408L7.07088 15.9622C7.06643 15.9754 7.06119 16.0148 6.93421 16.0895C6.77923 16.1806 6.53695 16.2613 6.2376 16.3094L6.87211 20.2587ZM10.8463 17.2828C10.9853 16.8993 11.0696 16.4979 11.0965 16.0902L7.10516 15.8272C7.1031 15.8585 7.09662 15.8897 7.08558 15.9202L10.8463 17.2828ZM11.0962 16.0942C11.0456 16.8405 10.4048 17.336 9.7424 17.2928L10.0025 13.3013C8.54095 13.2061 7.20926 14.2942 7.10543 15.8232L11.0962 16.0942ZM9.74229 17.2928C9.07481 17.2493 8.50128 16.6675 8.55214 15.9179L12.543 16.1887C12.647 14.6558 11.4687 13.3969 10.0026 13.3013L9.74229 17.2928ZM11.9409 17.4881L11.9456 17.4835L9.15891 14.6139L9.1542 14.6185L11.9409 17.4881ZM14.8949 6.9572C14.8488 5.42352 13.5561 4.28702 12.0913 4.33054L12.2101 8.32878C11.5446 8.34855 10.9192 7.82784 10.8967 7.0774L14.8949 6.9572ZM12.0929 4.33049C10.6252 4.37291 9.40288 5.5876 9.45034 7.12167L13.4484 6.99798C13.4717 7.74881 12.8777 8.30948 12.2085 8.32882L12.0929 4.33049ZM9.45021 7.11755C9.44604 6.97316 9.48769 6.85363 9.5241 6.78644C9.55288 6.73331 9.5645 6.73706 9.51009 6.78562C9.45771 6.83236 9.37646 6.89182 9.26512 6.95752C9.15643 7.02167 9.04194 7.0784 8.93459 7.12681L10.579 10.7732C10.9479 10.6068 11.5961 10.2852 12.1733 9.77009C12.7484 9.25695 13.4869 8.33127 13.4485 7.0021L9.45021 7.11755ZM11.0127 7.39345C9.89163 6.48897 8.59335 6.16369 7.68004 6.04414C7.2071 5.98223 6.78842 5.96905 6.47049 5.97468C6.31134 5.9775 6.16899 5.98518 6.04934 5.99557C5.99072 6.00066 5.92719 6.00729 5.86359 6.0161C5.83259 6.02039 5.78956 6.02684 5.7405 6.03611C5.7186 6.04025 5.59296 6.06299 5.44393 6.11445L6.74957 9.89536C6.60657 9.94474 6.49091 9.9651 6.48277 9.96663C6.44747 9.9733 6.42197 9.97694 6.41214 9.97831C6.39086 9.98125 6.38411 9.98155 6.39544 9.98057C6.41568 9.97881 6.46584 9.97539 6.54132 9.97405C6.69264 9.97137 6.91167 9.97768 7.16084 10.0103C7.69173 10.0798 8.17521 10.2437 8.50093 10.5065L11.0127 7.39345ZM5.81332 6.02509C4.43923 6.2218 3.38887 7.43763 3.48381 8.88269L7.4752 8.62044C7.52172 9.3284 7.0082 9.89481 6.38018 9.98472L5.81332 6.02509ZM14.8958 7.02766L14.8958 7.01846L10.8958 7.01614L10.8958 7.02534L14.8958 7.02766ZM12.0891 4.32364C11.3748 4.34661 10.6856 4.64837 10.1838 5.18417L13.1032 7.91858C12.8644 8.17353 12.5425 8.31112 12.2177 8.32157L12.0891 4.32364ZM10.1821 5.18597C9.68343 5.71967 9.41645 6.43706 9.45709 7.17841L13.4511 6.95944C13.4709 7.32037 13.3405 7.66461 13.1049 7.91678L10.1821 5.18597ZM9.45492 7.12665C9.45076 6.98226 9.4924 6.86273 9.52881 6.79554C9.5576 6.74241 9.56922 6.74616 9.5148 6.79472C9.46243 6.84146 9.38117 6.90092 9.26983 6.96662C9.16114 7.03077 9.04665 7.0875 8.9393 7.13591L10.5837 10.7823C10.9526 10.6159 11.6008 10.2943 12.1781 9.77919C12.7531 9.26605 13.4916 8.34037 13.4533 7.01119L9.45492 7.12665ZM11.0174 7.40255C9.89634 6.49807 8.59806 6.17279 7.68475 6.05323C7.21181 5.99132 6.79313 5.97815 6.4752 5.98377C6.31605 5.98659 6.1737 5.99427 6.05405 6.00467C5.99543 6.00976 5.9319 6.01639 5.8683 6.0252C5.83731 6.02949 5.79427 6.03594 5.74521 6.04521C5.72331 6.04934 5.59767 6.07208 5.44864 6.12355L6.75428 9.90446C6.61128 9.95384 6.49562 9.97419 6.48748 9.97573C6.45218 9.9824 6.42668 9.98604 6.41685 9.9874C6.39557 9.99035 6.38882 9.99065 6.40015 9.98967C6.42039 9.98791 6.47055 9.98448 6.54602 9.98315C6.69735 9.98047 6.91638 9.98678 7.16555 10.0194C7.69645 10.0889 8.17992 10.2528 8.50564 10.5156L11.0174 7.40255ZM5.82835 6.03274C4.46344 6.22088 3.40828 7.4165 3.48214 8.85418L7.47687 8.64895C7.51307 9.35348 6.99811 9.90932 6.37456 9.99527L5.82835 6.03274ZM11.5893 11.8598C12.5933 11.3523 15.0132 9.88515 14.919 6.94356L10.9211 7.07152C10.9276 7.27678 10.8662 7.44436 10.6824 7.6502C10.4688 7.88937 10.1433 8.10873 9.78513 8.28973L11.5893 11.8598ZM14.9179 6.91536C14.8838 6.17642 14.548 5.48992 13.9979 5.00856L11.3639 8.0189C11.1023 7.79005 10.9388 7.45957 10.9222 7.09972L14.9179 6.91536ZM13.9979 5.00856C13.4507 4.52977 12.7379 4.29305 12.0206 4.34079L12.2863 8.33196C11.9552 8.354 11.6225 8.24517 11.3639 8.0189L13.9979 5.00856ZM14.1534 6.32835L14.1534 6.31458L10.1534 6.33063L10.1535 6.3444L14.1534 6.32835ZM25.5862 22.2178C25.5758 22.4655 25.5338 22.9388 25.3804 23.4395C25.2251 23.9462 24.993 24.3614 24.6832 24.6388L27.3514 27.6188C29.3503 25.8291 29.5515 23.133 29.5827 22.3842L25.5862 22.2178ZM24.6967 24.6268C24.3509 24.9309 23.8956 25.1053 23.416 25.1069L23.4297 29.1069C24.8661 29.102 26.2575 28.5808 27.3379 27.6308L24.6967 24.6268ZM21.4238 27.0464C21.4136 27.3839 21.3008 27.7148 21.0946 27.9962L24.3215 30.3599C25.002 29.4309 25.3871 28.3193 25.422 27.1674L21.4238 27.0464ZM21.0943 27.9967C20.8878 28.2788 20.5957 28.4997 20.251 28.625L21.6178 32.3843C22.6987 31.9913 23.6417 31.2886 24.3218 30.3595L21.0943 27.9967ZM20.1831 28.6511C19.7441 28.829 19.2714 28.9195 18.7932 28.9161L18.7647 32.916C19.7652 32.9231 20.7583 32.734 21.6856 32.3582L20.1831 28.6511ZM18.7661 28.9161C17.7315 28.9227 16.7412 28.5372 16.0007 27.8513L13.2825 30.7858C14.7769 32.1701 16.7514 32.9291 18.7918 32.916L18.7661 28.9161ZM13.2773 27.8561C12.536 28.5477 11.5417 28.9369 10.5026 28.9302L10.477 32.9302C12.5271 32.9433 14.5097 32.1767 16.0059 30.781L13.2773 27.8561ZM10.4755 28.9303C9.99732 28.9337 9.52456 28.8432 9.08565 28.6653L7.58301 32.3723C8.51033 32.7482 9.50354 32.9373 10.504 32.9302L10.4755 28.9303ZM9.01762 28.6391C8.67312 28.5139 8.38098 28.293 8.17434 28.0108L4.94691 30.3738C5.62704 31.3027 6.57001 32.0055 7.65104 32.3985L9.01762 28.6391ZM8.17408 28.0104C7.9679 27.729 7.85513 27.3981 7.84492 27.0606L3.84675 27.1816C3.88161 28.3334 4.26669 29.4451 4.94717 30.3741L8.17408 28.0104ZM5.85272 25.1211C5.3735 25.1195 4.91814 24.945 4.57207 24.6407L1.93075 27.6446C3.01084 28.5943 4.40221 29.1161 5.83896 29.1211L5.85272 25.1211ZM4.5856 24.6527C4.27569 24.3752 4.04358 23.96 3.88832 23.4533C3.73493 22.9526 3.69287 22.4793 3.68255 22.2316L-0.313982 22.3981C-0.28279 23.1468 -0.0815481 25.8428 1.91722 27.6326L4.5856 24.6527ZM3.29826 21.1337C0.741879 17.6405 2.64865 14.2291 3.34641 13.1865L0.0221637 10.9618C-0.80384 12.196 -4.12421 17.7643 0.0703091 23.496L3.29826 21.1337ZM3.65636 11.7411C3.34904 9.92126 3.648 8.72022 4.21615 7.92108L0.956092 5.60332C-0.404557 7.51715 -0.713078 9.88884 -0.287792 12.4072L3.65636 11.7411ZM4.21011 7.92953C4.6259 7.35108 5.22515 6.91175 5.9246 6.68426L4.68743 2.88039C3.18761 3.36819 1.88038 4.31741 0.962137 5.59486L4.21011 7.92953ZM7.30443 4.8619C7.32218 4.41601 7.52804 3.98739 7.88891 3.68258L5.30781 0.626776C4.10048 1.64655 3.37057 3.12126 3.30759 4.70275L7.30443 4.8619ZM7.75306 3.78767C8.31472 3.39051 9.01496 3.21174 9.71334 3.29483L10.1859 -0.677158C8.51226 -0.876271 6.81949 -0.451179 5.44365 0.521687L7.75306 3.78767ZM11.3416 2.74496C11.6923 2.40499 12.1761 2.21016 12.6868 2.21683L12.739 -1.78283C11.183 -1.80316 9.67615 -1.21139 8.55765 -0.127282L11.3416 2.74496ZM12.7678 2.21625C12.9104 2.21233 13.0352 2.2741 13.1102 2.36339L16.173 -0.209355C15.3022 -1.24608 14.0029 -1.81921 12.658 -1.78225L12.7678 2.21625ZM16.173 2.36337C16.2481 2.27401 16.3729 2.21232 16.5152 2.21624L16.6254 -1.78224C15.2804 -1.81933 13.981 -1.24606 13.1102 -0.209338L16.173 2.36337ZM16.6083 2.21664C17.1233 2.20686 17.6121 2.40205 17.9657 2.74481L20.7499 -0.127137C19.6222 -1.22041 18.1002 -1.81242 16.5323 -1.78264L16.6083 2.21664ZM19.5941 3.29483C20.2922 3.21176 20.9927 3.39054 21.5544 3.78769L23.8637 0.521661C22.4879 -0.45114 20.7949 -0.876271 19.1215 -0.677153L19.5941 3.29483ZM21.4185 3.68259C21.7793 3.98735 21.9852 4.41599 22.003 4.86194L25.9998 4.70271C25.9368 3.12128 25.2069 1.64654 23.9996 0.626766L21.4185 3.68259ZM23.3708 6.68033C24.0648 6.91087 24.6584 7.34986 25.0704 7.92583L28.3237 5.59856C27.4138 4.32657 26.119 3.37835 24.6319 2.88433L23.3708 6.68033ZM25.0672 7.92123C25.6266 8.70788 25.9164 9.89886 25.5951 11.7281L29.5347 12.4202C29.9756 9.91056 29.6963 7.5288 28.327 5.60316L25.0672 7.92123ZM25.9255 13.2197C26.6331 14.2323 28.5471 17.6427 25.9865 21.1315L29.2112 23.4982C33.4211 17.7623 30.0885 12.1938 29.2043 10.9285L25.9255 13.2197ZM28.982 20.8702L28.9676 20.8564L26.2013 23.7456L26.2157 23.7595L28.982 20.8702ZM15.8947 2.54983C15.8617 2.33854 15.7474 1.71513 15.3544 1.09463C14.9103 0.393549 14.0475 -0.365595 12.7131 -0.365595V3.63441C12.5855 3.63441 12.4092 3.59515 12.2395 3.48851C12.086 3.39204 12.0061 3.28384 11.9752 3.235C11.9459 3.18866 11.9404 3.16494 11.9436 3.17504C11.9455 3.1812 11.9452 3.18329 11.9426 3.16696L15.8947 2.54983ZM12.7377 -0.365443C11.9316 -0.375369 11.1373 -0.172837 10.4355 0.22173L12.396 3.70836C12.4834 3.65922 12.5844 3.63297 12.6885 3.63425L12.7377 -0.365443ZM10.1557 3.51816C10.2447 3.59037 10.3013 3.68309 10.3255 3.7788L14.2034 2.79776C13.9652 1.85634 13.4271 1.02144 12.6759 0.411926L10.1557 3.51816ZM10.3204 3.75797C10.3268 3.78439 10.3394 3.84272 10.288 3.982C10.2287 4.14272 10.0826 4.40695 9.75147 4.7641L12.6846 7.4838C13.8317 6.24665 14.6461 4.62968 14.2085 2.81859L10.3204 3.75797ZM9.75192 4.76361C10.001 4.49511 10.345 4.35263 10.6942 4.35543L10.6621 8.3553C11.4217 8.36139 12.1585 8.05079 12.6841 7.48429L9.75192 4.76361ZM10.6523 4.35553C10.9706 4.35141 11.2826 4.46586 11.5254 4.68203L8.86616 7.67004C9.37277 8.12092 10.0291 8.36393 10.704 8.3552L10.6523 4.35553ZM11.5174 4.67493C11.7719 4.89895 11.9355 5.22294 11.9548 5.58051L7.96055 5.79581C8.00001 6.52786 8.33517 7.20258 8.87418 7.67714L11.5174 4.67493ZM11.9549 5.58411C11.9735 5.94019 11.846 6.28335 11.6106 6.53756L8.67537 3.82014C8.18305 4.35192 7.9223 5.06164 7.96036 5.79221L11.9549 5.58411ZM11.6056 6.54291C11.8268 6.30582 12.0299 6.05075 12.212 5.78011L8.89334 3.5471C8.83057 3.6404 8.75927 3.73015 8.68035 3.81479L11.6056 6.54291ZM12.1065 5.92279C12.6823 5.21225 12.9511 4.29823 12.8425 3.38336L8.87039 3.85521C8.85052 3.68798 8.90068 3.52555 8.99883 3.40442L12.1065 5.92279ZM12.7682 3.03176C12.5373 2.2806 12.04 1.64716 11.3799 1.24059L9.28216 4.64642C9.12728 4.55102 9.00329 4.39756 8.94466 4.2068L12.7682 3.03176ZM11.4714 1.30046C11.2848 1.17099 11.0877 1.05538 10.8814 0.955181L9.13413 4.55339C9.15315 4.56262 9.17202 4.57361 9.19066 4.58655L11.4714 1.30046ZM10.2649 0.770889C10.0336 0.740894 9.44917 0.67666 8.75381 0.744092C8.0871 0.808747 7.09187 1.01512 6.23379 1.7127L8.757 4.81647C8.74763 4.82409 8.84461 4.75405 9.1399 4.72542C9.40656 4.69956 9.65395 4.72515 9.75058 4.73768L10.2649 0.770889ZM6.23764 1.70958C5.06438 2.65856 4.7093 4.05945 4.7093 5.34403H8.7093C8.7093 5.04002 8.75181 4.87717 8.77689 4.81057C8.79635 4.7589 8.7963 4.78469 8.75316 4.81959L6.23764 1.70958ZM4.70934 5.33239C4.71316 4.67606 5.19262 4.16611 5.7776 4.07001L6.42604 8.0171C7.70932 7.80628 8.70141 6.70559 8.70927 5.35567L4.70934 5.33239ZM5.65773 4.09348C4.23518 4.41743 2.97419 5.24491 2.12092 6.42972L5.36679 8.76732C5.64311 8.38363 6.0606 8.10414 6.5459 7.99363L5.65773 4.09348ZM2.10282 6.45528C0.920824 8.15193 0.756503 10.2901 1.21115 12.4966L5.12885 11.6893C4.80249 10.1055 5.05254 9.21882 5.38489 8.74176L2.10282 6.45528ZM1.28003 12.7472C1.45672 13.2576 1.7032 13.7403 2.01198 14.1827L5.29207 11.8934C5.19316 11.7517 5.11539 11.5988 5.05997 11.4387L1.28003 12.7472ZM1.96473 14.1119C2.59781 15.1066 3.60625 15.7954 4.75049 16.0387L5.58224 12.1261C5.47047 12.1023 5.38637 12.0382 5.33931 11.9642L1.96473 14.1119ZM4.80675 16.0498C5.34401 16.148 5.89502 16.1479 6.43212 16.0498L5.71358 12.1149C5.65134 12.1263 5.58746 12.1262 5.52598 12.115L4.80675 16.0498ZM6.3889 16.0572C5.73899 16.1613 5.06309 15.7329 4.94164 15.0041L8.88725 14.3467C8.63529 12.8346 7.20592 11.8756 5.7568 12.1075L6.3889 16.0572ZM4.94164 15.0041C4.81847 14.2649 5.33363 13.6308 5.99294 13.5253L6.62503 17.4751C8.08355 17.2416 9.14093 15.8691 8.88724 14.3467L4.94164 15.0041ZM5.96957 13.5292C5.84614 13.5505 5.71995 13.5613 5.59279 13.5615L5.59829 17.5615C5.94945 17.561 6.30091 17.531 6.64839 17.4712L5.96957 13.5292ZM5.61645 13.5616C4.97654 13.5549 4.40638 13.2194 4.10172 12.7084L0.666021 14.7568C1.69746 16.4868 3.56594 17.5404 5.57463 17.5614L5.61645 13.5616ZM0.644875 12.7447C-0.875079 15.4204 -0.942923 18.666 0.465896 21.4015L4.02199 19.57C3.23223 18.0366 3.26944 16.2228 4.12287 14.7205L0.644875 12.7447ZM3.85338 21.673C3.85541 21.6703 3.85929 21.6659 3.86499 21.6613L1.34608 18.554C1.07933 18.7702 0.839672 19.0203 0.634502 19.2984L3.85338 21.673ZM3.82453 21.6932C3.87191 21.6568 3.94235 21.6387 4.01298 21.655L4.91153 17.7572C3.68379 17.4742 2.38796 17.7522 1.38655 18.522L3.82453 21.6932ZM4.12217 21.677C3.46199 21.5631 2.95669 20.9209 3.08939 20.1851L7.02587 20.8951C7.29985 19.3762 6.26106 17.987 4.80234 17.7352L4.12217 21.677ZM3.08939 20.1851C3.2201 19.4605 3.89947 19.0406 4.548 19.153L3.86524 23.0943C5.31298 23.3451 6.7539 22.403 7.02587 20.8951L3.08939 20.1851ZM4.80077 19.2139C3.99347 18.9627 3.11096 19.0877 2.40358 19.5618L4.63054 22.8845C4.32747 23.0877 3.95357 23.1394 3.61247 23.0333L4.80077 19.2139ZM2.05304 19.8606C1.4984 20.4565 1.17278 21.2325 1.14238 22.0515L5.13963 22.1999C5.13411 22.3485 5.07489 22.485 4.98108 22.5857L2.05304 19.8606ZM1.141 22.1257C1.141 22.2279 1.14342 22.8941 1.3285 23.7159C1.50361 24.4934 1.90602 25.7039 2.91281 26.6091L5.58723 23.6347C5.485 23.5427 5.3329 23.2905 5.23076 22.837C5.18613 22.6389 5.16288 22.4539 5.15131 22.3161C5.14565 22.2487 5.14308 22.1962 5.14193 22.1635C5.14135 22.1472 5.14113 22.136 5.14105 22.1304C5.14101 22.1277 5.141 22.1262 5.141 22.126C5.141 22.1258 5.141 22.1259 5.141 22.1262C5.141 22.1264 5.141 22.1266 5.141 22.1257H1.141ZM2.94884 26.6407C3.83376 27.3988 4.97746 27.7833 6.1361 27.7242L5.93219 23.7294C5.78643 23.7368 5.64982 23.6875 5.5512 23.603L2.94884 26.6407ZM7.97102 26.2253C8.05439 25.9014 8.23202 25.6025 8.48905 25.3662L5.78178 22.4216C4.96177 23.1755 4.37517 24.1486 4.09727 25.2283L7.97102 26.2253ZM8.48906 25.3662C8.74641 25.1296 9.07242 24.9664 9.42968 24.9015L8.71475 20.9659C7.62018 21.1647 6.60147 21.668 5.78176 22.4216L8.48906 25.3662ZM9.42277 24.9027C9.5328 24.8831 9.64445 24.8705 9.75724 24.8651L9.5638 20.8697C9.2817 20.8834 9.00047 20.915 8.72166 20.9646L9.42277 24.9027ZM10.5914 24.6376C11.1541 24.3417 11.5969 23.8499 11.8276 23.2465L8.09147 21.8178C8.21255 21.5012 8.44281 21.2481 8.72967 21.0972L10.5914 24.6376ZM11.958 22.6104C11.9866 21.8815 11.7289 21.178 11.2524 20.6416L8.26175 23.2979C8.06109 23.072 7.94867 22.7708 7.96109 22.4538L11.958 22.6104ZM11.4152 20.8515C11.3347 20.7322 11.2482 20.6183 11.1569 20.5106L8.10632 23.0979C8.10447 23.0957 8.10202 23.0926 8.0989 23.088L11.4152 20.8515ZM11.2126 20.5794C11.6502 21.1442 11.5448 21.9469 11.0059 22.3835L8.488 19.2755C7.35171 20.196 7.1441 21.8592 8.05058 23.0292L11.2126 20.5794ZM11.0069 22.3827C10.487 22.8044 9.73036 22.7524 9.2733 22.2552L12.2181 19.5481C11.2416 18.4859 9.60431 18.37 8.48704 19.2762L11.0069 22.3827ZM9.34399 22.3283C9.3966 22.38 9.41022 22.4414 9.4002 22.4926L13.3256 23.2613C13.5968 21.8765 13.1483 20.4585 12.1474 19.4751L9.34399 22.3283ZM9.42234 22.393C9.43242 22.3526 9.44967 22.3181 9.47021 22.2906L12.6764 24.6823C12.9694 24.2895 13.1838 23.841 13.3035 23.3608L9.42234 22.393ZM9.78775 25.0186C9.77642 25.009 9.76394 24.9945 9.75394 24.9737L13.3574 23.2373C13.1186 22.7418 12.7772 22.3053 12.3588 21.9543L9.78775 25.0186ZM9.72131 24.9025C9.70438 24.8635 9.70683 24.8163 9.7264 24.7803L13.2403 26.6915C13.8088 25.6462 13.8644 24.4004 13.39 23.3085L9.72131 24.9025ZM9.68531 24.8601C9.90524 24.4086 10.355 24.1429 10.8251 24.1424L10.8298 28.1424C11.8602 28.1412 12.8199 27.5591 13.2814 26.6118L9.68531 24.8601ZM10.8522 24.1425C11.0104 24.1445 11.1678 24.1778 11.3153 24.2418L9.72264 27.9111C10.0646 28.0595 10.4319 28.1376 10.8026 28.1422L10.8522 24.1425ZM11.3648 24.2641C11.9878 24.5549 12.2961 25.3198 11.9786 25.9887L8.36508 24.2734C7.71049 25.6523 8.32831 27.2611 9.67312 27.8888L11.3648 24.2641ZM11.9653 26.0162C12.1367 25.669 12.2594 25.2689 12.2629 24.8272C12.2664 24.3745 12.1266 24.0088 12.1412 24.0549L8.32761 25.2618C8.36597 25.3829 8.3235 25.251 8.30718 25.1826C8.28073 25.0718 8.26184 24.9404 8.26298 24.7958C8.26526 24.5041 8.34696 24.3095 8.37841 24.2458L11.9653 26.0162ZM11.933 23.6025C11.583 23.0394 11.057 22.6173 10.4477 22.3912L9.05642 26.1415C8.84873 26.0644 8.66249 25.9179 8.53583 25.7142L11.933 23.6025ZM9.67825 22.2677C7.91367 22.3329 6.77197 23.2445 6.13376 24.2054C5.83661 24.6528 5.65905 25.0896 5.55177 25.4175C5.45137 25.7243 5.38383 26.0475 5.39822 25.9886L9.28369 26.939C9.32465 26.7715 9.31622 26.7751 9.35344 26.6614C9.38377 26.5687 9.42234 26.4839 9.46576 26.4185C9.50582 26.3582 9.5368 26.3336 9.55697 26.3214C9.56835 26.3145 9.63685 26.272 9.82585 26.265L9.67825 22.2677ZM5.38305 26.0556C5.16477 27.1026 5.34027 28.1899 5.87315 29.1154L9.33954 27.1193C9.29454 27.0412 9.28168 26.9544 9.29885 26.872L5.38305 26.0556ZM5.87293 29.115C6.40479 30.0391 7.25316 30.7345 8.2547 31.0837L9.57162 27.3067C9.46512 27.2696 9.38579 27.1997 9.33976 27.1197L5.87293 29.115ZM8.19607 31.0623C9.4293 31.5359 10.7792 31.6266 12.065 31.323L11.146 27.43C10.6416 27.5491 10.1118 27.5132 9.63025 27.3282L8.19607 31.0623ZM12.0649 31.3231C13.3512 31.0195 14.5172 30.3347 15.4027 29.3546L12.4347 26.673C12.0991 27.0444 11.6505 27.311 11.1461 27.43L12.0649 31.3231ZM15.9187 28.0138L15.9187 2.8584L11.9187 2.8584L11.9187 28.0138L15.9187 28.0138ZM25.1852 12.7141C24.8835 13.2273 24.3144 13.5663 23.673 13.5758L23.7318 17.5753C25.7436 17.5458 27.6105 16.4812 28.6334 14.7415L25.1852 12.7141ZM23.7051 13.5755C23.578 13.5754 23.4518 13.5645 23.3284 13.5432L22.6495 17.4852C22.997 17.545 23.3485 17.5751 23.6996 17.5755L23.7051 13.5755ZM23.305 13.5394C23.9642 13.6449 24.4795 14.2789 24.3563 15.0182L20.4107 14.3607C20.157 15.8832 21.2144 17.2557 22.6729 17.4891L23.305 13.5394ZM24.3563 15.0182C24.2348 15.7469 23.559 16.1753 22.909 16.0713L23.5412 12.1215C22.0919 11.8896 20.6627 12.8487 20.4107 14.3607L24.3563 15.0182ZM22.8658 16.0639C23.4029 16.1619 23.9539 16.162 24.4912 16.0638L23.7719 12.129C23.7105 12.1402 23.6466 12.1403 23.5843 12.1289L22.8658 16.0639ZM24.5474 16.0527C25.6916 15.8095 26.7001 15.1207 27.3332 14.1259L23.9586 11.9783C23.9116 12.0522 23.8275 12.1164 23.7157 12.1401L24.5474 16.0527ZM27.286 14.1967C27.5951 13.7539 27.8414 13.2708 28.0179 12.7609L24.238 11.4524C24.1824 11.6131 24.1044 11.7662 24.0058 11.9074L27.286 14.1967ZM28.0895 12.4969C28.5228 10.319 28.382 8.17321 27.1953 6.46922L23.9129 8.75523C24.2405 9.22564 24.4852 10.114 24.1664 11.7164L28.0895 12.4969ZM27.1779 6.44462C26.3226 5.25526 25.0568 4.42807 23.6314 4.10659L22.7513 8.00858C23.238 8.11834 23.6553 8.39744 23.9303 8.77984L27.1779 6.44462ZM23.5384 4.08793C24.1137 4.18928 24.5816 4.6921 24.5885 5.33691L20.5887 5.3799C20.603 6.71368 21.5768 7.80392 22.8443 8.02725L23.5384 4.08793ZM24.5886 5.3584C24.5886 4.08466 24.2291 2.66297 23.0473 1.71733L20.5482 4.84056C20.4956 4.79845 20.4972 4.77005 20.5196 4.82922C20.5464 4.90028 20.5886 5.06469 20.5886 5.3584H24.5886ZM23.0586 1.72639C22.2024 1.03115 21.2071 0.82551 20.5441 0.760421C19.8512 0.692393 19.2676 0.754384 19.0293 0.785735L19.551 4.75157C19.6359 4.7404 19.8842 4.71487 20.1533 4.74128C20.2836 4.75408 20.3874 4.77623 20.4619 4.80112C20.5356 4.82574 20.5513 4.84309 20.537 4.83151L23.0586 1.72639ZM18.3847 0.985334C18.2069 1.07562 18.0284 1.17872 17.8521 1.29706L20.0817 4.61803C20.1127 4.59725 20.1501 4.57508 20.1956 4.55197L18.3847 0.985334ZM17.918 1.25466C17.258 1.66121 16.7606 2.29461 16.5297 3.0458L20.3533 4.22084C20.2946 4.41162 20.1706 4.56507 20.0158 4.66043L17.918 1.25466ZM16.4555 3.39743C16.3468 4.31224 16.6156 5.22626 17.1914 5.93683L20.2991 3.41846C20.3973 3.53962 20.4474 3.70204 20.4275 3.86921L16.4555 3.39743ZM17.0838 5.79098C17.2601 6.05416 17.4563 6.30246 17.6699 6.53419L20.6111 3.82323C20.5354 3.74113 20.4672 3.65452 20.4067 3.56431L17.0838 5.79098ZM17.6801 6.54525C17.441 6.28971 17.3123 5.94403 17.3308 5.5868L21.3255 5.79385C21.3635 5.06015 21.1003 4.34593 20.6008 3.81217L17.6801 6.54525ZM17.331 5.58344C17.3502 5.22576 17.5146 4.89817 17.7748 4.67171L20.4005 7.68931C20.9487 7.21231 21.286 6.53201 21.3253 5.79721L17.331 5.58344ZM17.758 4.68654C18.001 4.47025 18.3118 4.3568 18.6275 4.36029L18.5831 8.36005C19.2554 8.36749 19.9106 8.12548 20.4173 7.67448L17.758 4.68654ZM18.6021 4.36017C18.9526 4.35961 19.2966 4.50542 19.544 4.77697L16.5869 7.47064C17.1087 8.0435 17.8457 8.36139 18.6085 8.36017L18.6021 4.36017ZM19.5385 4.771C19.204 4.40682 19.0557 4.13817 18.9954 3.97478C18.943 3.83287 18.9579 3.77899 18.9619 3.7625L15.0761 2.81377C14.6346 4.62187 15.4563 6.23951 16.5924 7.47662L19.5385 4.771ZM18.9543 3.79264C18.9781 3.70146 19.0328 3.61329 19.118 3.54509L16.6174 0.423029C15.867 1.02405 15.327 1.85027 15.0837 2.78363L18.9543 3.79264ZM18.8458 0.239582C18.1418 -0.1552 17.3468 -0.356067 16.5425 -0.346773L16.5887 3.65296C16.6973 3.6517 16.8011 3.67896 16.8895 3.72854L18.8458 0.239582ZM16.5656 -0.346907C15.2375 -0.346907 14.373 0.403413 13.9255 1.11175C13.5315 1.73539 13.4194 2.36301 13.3868 2.58124L17.3428 3.17293C17.3405 3.18849 17.3401 3.18675 17.3416 3.18175C17.3444 3.17288 17.3382 3.19912 17.3071 3.24829C17.2742 3.30035 17.1922 3.41071 17.0365 3.50809C16.8651 3.61526 16.6894 3.65309 16.5656 3.65309V-0.346907ZM13.3648 2.87708V28.0135H17.3648V2.87708H13.3648ZM13.8731 29.3457C14.7569 30.3352 15.9256 31.0282 17.2167 31.3367L18.146 27.4461C17.6403 27.3253 17.191 27.0558 16.8564 26.6812L13.8731 29.3457ZM17.2159 31.3365C18.5063 31.6453 19.8625 31.5565 21.1011 31.0814L19.6685 27.3467C19.1849 27.5322 18.6527 27.5674 18.1468 27.4463L17.2159 31.3365ZM21.0443 31.1022C22.0449 30.7527 22.8928 30.0577 23.4246 29.1344L19.9585 27.1378C19.9124 27.2179 19.8326 27.2884 19.7253 27.3259L21.0443 31.1022ZM23.425 29.1337C23.9576 28.2083 24.1332 27.1212 23.9149 26.0741L19.9991 26.8904C20.0163 26.9728 20.0035 27.0598 19.9582 27.1385L23.425 29.1337ZM23.9409 26.2292C23.908 25.9708 23.7629 25.0934 23.1785 24.2171C22.5315 23.2469 21.3796 22.3505 19.6189 22.2861L19.4728 26.2835C19.6721 26.2908 19.7475 26.3354 19.7622 26.3442C19.7847 26.3577 19.8141 26.3817 19.8506 26.4364C19.8908 26.4966 19.9253 26.5738 19.9501 26.6528C19.9746 26.7309 19.9779 26.7733 19.9731 26.7353L23.9409 26.2292ZM18.8502 22.4097C18.2393 22.6363 17.7141 23.0596 17.365 23.6212L20.7621 25.7329C20.6363 25.9353 20.4508 26.0823 20.2416 26.1599L18.8502 22.4097ZM17.0635 24.6771C17.0635 24.5219 17.0822 24.4015 17.0915 24.3473C17.1016 24.2884 17.1121 24.2441 17.1147 24.2333C17.1169 24.2239 17.1204 24.2101 17.1164 24.2261C17.1142 24.235 17.1093 24.2546 17.1038 24.2789C17.0785 24.3898 17.0481 24.5566 17.043 24.7643C17.0328 25.1876 17.1316 25.5949 17.3052 25.9771L20.947 24.3225C20.9622 24.3561 20.9885 24.422 21.0097 24.5172C21.0315 24.6153 21.045 24.7314 21.0419 24.8606C21.0387 24.9933 21.0188 25.1018 21.0036 25.1686C21.0006 25.1818 20.9982 25.1913 20.9983 25.1908C20.9984 25.1906 20.9984 25.1904 20.9988 25.189C20.999 25.188 20.9996 25.1858 21.0002 25.1834C21.0013 25.1789 21.0036 25.1695 21.0063 25.1581C21.0107 25.1396 21.0228 25.0883 21.0339 25.0232C21.0443 24.9628 21.0635 24.837 21.0635 24.6771H17.0635ZM17.3193 26.0074C17.0016 25.3381 17.3106 24.5731 17.9332 24.2825L19.6248 27.9073C20.9691 27.2799 21.5876 25.6716 20.9329 24.2922L17.3193 26.0074ZM17.9826 24.2603C18.1302 24.1962 18.2856 24.1638 18.4395 24.1614L18.5015 28.1609C18.868 28.1552 19.2333 28.0779 19.5753 27.9295L17.9826 24.2603ZM18.4752 24.1612C18.9418 24.1623 19.3919 24.4258 19.6126 24.8788L16.0166 26.6306C16.4788 27.5794 17.4388 28.1587 18.4658 28.1611L18.4752 24.1612ZM19.5718 24.7996C19.5914 24.8357 19.5939 24.8844 19.575 24.9249L15.9479 23.2386C15.4312 24.3498 15.4733 25.6353 16.0574 26.7098L19.5718 24.7996ZM19.5622 24.952C19.5535 24.97 19.5418 24.9844 19.5294 24.9948L16.9583 21.9306C16.5388 22.2825 16.1988 22.7189 15.9607 23.2115L19.5622 24.952ZM19.8469 22.2669C19.869 22.2965 19.8857 22.3311 19.8951 22.3689L16.0139 23.3367C16.133 23.8144 16.3461 24.2636 16.6407 24.6585L19.8469 22.2669ZM19.9171 22.4676C19.9072 22.4171 19.9204 22.3563 19.973 22.3046L17.1705 19.4505C16.1689 20.434 15.72 21.8526 15.992 23.2381L19.9171 22.4676ZM20.0451 22.2301C19.5855 22.7307 18.8291 22.7782 18.3125 22.3602L20.8285 19.2506C19.7138 18.3487 18.0767 18.4594 17.0984 19.5251L20.0451 22.2301ZM18.3106 22.3587C17.772 21.9218 17.6676 21.1192 18.1045 20.5553L21.2666 23.005C22.1723 21.8359 21.9664 20.1736 20.8304 19.2521L18.3106 22.3587ZM18.1563 20.4912C18.067 20.5971 17.982 20.7091 17.9022 20.8275L21.2186 23.0639C21.2161 23.0675 21.2146 23.0694 21.2147 23.0692L18.1563 20.4912ZM18.0667 20.6156C17.5885 21.1527 17.3297 21.8581 17.3596 22.5896L21.3562 22.4265C21.3693 22.7459 21.2558 23.0491 21.0541 23.2757L18.0667 20.6156ZM17.481 23.1989C17.7097 23.8204 18.1641 24.3261 18.7443 24.6234L20.5689 21.0638C20.8712 21.2188 21.1123 21.4845 21.2348 21.8172L17.481 23.1989ZM19.5632 24.8415C19.6741 24.8466 19.7847 24.8591 19.8938 24.8785L20.596 20.9406C20.3169 20.8908 20.034 20.8591 19.75 20.8458L19.5632 24.8415ZM19.8876 24.8774C20.2449 24.9423 20.5705 25.1054 20.828 25.3421L23.5353 22.3976C22.7158 21.644 21.6974 21.1406 20.6022 20.9417L19.8876 24.8774ZM20.828 25.3421C21.0849 25.5783 21.2627 25.8774 21.3462 26.2015L25.2198 25.2039C24.9419 24.1249 24.3555 23.1516 23.5353 22.3976L20.828 25.3421ZM23.178 27.6999C24.3387 27.7609 25.4852 27.376 26.3711 26.6143L23.7631 23.5813C23.6668 23.6642 23.5324 23.713 23.3879 23.7055L23.178 27.6999ZM26.3944 26.5938C27.4137 25.6895 27.8182 24.4759 27.993 23.6938C28.0866 23.2747 28.1317 22.9002 28.1538 22.6236C28.165 22.4838 28.1706 22.3654 28.1734 22.2744C28.1748 22.2288 28.1755 22.1901 28.1758 22.1591C28.176 22.1437 28.1761 22.1304 28.1761 22.1197C28.1761 22.1102 28.1761 22.0996 28.1761 22.1016H24.1761C24.1761 22.1054 24.1763 22.1199 24.1753 22.1511C24.1743 22.1846 24.1719 22.2373 24.1665 22.3046C24.1555 22.4422 24.133 22.6256 24.0893 22.8215C23.9892 23.2693 23.8392 23.5135 23.7397 23.6017L26.3944 26.5938ZM28.1747 22.0253C28.1435 21.2091 27.8196 20.4346 27.2662 19.8384L24.3345 22.5597C24.2414 22.4593 24.1831 22.3242 24.1776 22.1779L28.1747 22.0253ZM26.912 19.5364C26.2051 19.0638 25.3237 18.9393 24.5171 19.1899L25.7039 23.0098C25.3641 23.1153 24.9914 23.064 24.6888 22.8617L26.912 19.5364ZM24.7688 19.1292C25.4189 19.0165 26.0972 19.4374 26.2277 20.161L22.2912 20.871C22.563 22.3779 24.0035 23.3216 25.4522 23.0704L24.7688 19.1292ZM26.2277 20.1607C26.3608 20.8985 25.8537 21.5388 25.1966 21.6527L24.5138 17.7114C23.0574 17.9637 22.0168 19.351 22.2913 20.8713L26.2277 20.1607ZM25.3037 21.6311C25.375 21.6147 25.4454 21.633 25.4921 21.669L27.9312 18.4988C26.9291 17.7277 25.6331 17.4507 24.4066 17.733L25.3037 21.6311ZM25.4688 21.6508C25.4637 21.6467 25.4581 21.6412 25.4525 21.6335L28.694 19.2898C28.4839 18.9993 28.2348 18.7392 27.9545 18.5169L25.4688 21.6508ZM28.8618 21.3567C30.2269 18.6287 30.1481 15.4162 28.6528 12.7566L25.1661 14.7169C26.0113 16.2203 26.0548 18.0277 25.2847 19.5666L28.8618 21.3567ZM28.9093 13.7097L28.9091 13.7008L24.9095 13.7549L24.9096 13.7638L28.9093 13.7097ZM22.573 19.1191C22.5365 18.379 23.106 17.8134 23.7627 17.7714L24.0182 21.7632C25.468 21.6704 26.643 20.4403 26.5681 18.9222L22.573 19.1191ZM23.8904 17.7673H23.5816V21.7673H23.8904V17.7673ZM23.5816 17.7673C22.9367 17.7673 22.1495 17.6188 21.5744 17.2865C21.0912 17.0073 20.774 16.6299 20.7261 15.9103L16.7349 16.1763C16.8848 18.4245 18.1179 19.9091 19.5732 20.75C20.9366 21.5377 22.4761 21.7673 23.5816 21.7673V17.7673ZM20.7259 15.9075C20.7502 16.2643 20.6273 16.606 20.4008 16.8599L17.4161 14.1969C16.9367 14.7342 16.6853 15.4464 16.7351 16.179L20.7259 15.9075ZM20.399 16.8619C20.1728 17.1147 19.8614 17.2619 19.5364 17.2831L19.2755 13.2917C18.567 13.338 17.8977 13.6585 17.4179 14.1949L20.399 16.8619ZM19.5376 17.2831C18.8732 17.3269 18.2327 16.8297 18.1821 16.0844L22.173 15.8136C22.0693 14.2851 20.7379 13.1951 19.2742 13.2917L19.5376 17.2831ZM18.1817 16.0776C18.2081 16.4872 18.2929 16.8905 18.4331 17.2755L22.1918 15.9075C22.1813 15.8785 22.1753 15.8492 22.1734 15.8204L18.1817 16.0776ZM18.4223 17.2451C19.1988 19.4907 21.3871 20.0832 22.4029 20.2482L23.0442 16.2999C22.7505 16.2522 22.5086 16.1719 22.3513 16.0794C22.2209 16.0026 22.2097 15.9584 22.2026 15.9379L18.4223 17.2451ZM22.4026 20.2481C22.8855 20.3266 23.3751 20.3587 23.8638 20.344L23.7434 16.3458C23.5097 16.3529 23.2754 16.3375 23.0445 16.3L22.4026 20.2481ZM23.9084 20.3422C23.5834 20.3592 23.2551 20.2492 22.9993 20.0202L25.6675 17.0401C25.1238 16.5534 24.4134 16.3102 23.6988 16.3477L23.9084 20.3422ZM23.0011 20.0218C22.7465 19.7944 22.5859 19.4664 22.572 19.1076L26.569 18.9529C26.5404 18.2117 26.209 17.5238 25.6657 17.0385L23.0011 20.0218ZM26.5705 19.0317L26.5706 19.0222L22.5706 19.0192L22.5705 19.0288L26.5705 19.0317ZM19.0767 11.5153C19.6644 11.5191 20.2146 11.9406 20.3257 12.5844L16.3839 13.2646C16.6121 14.5868 17.7603 15.5067 19.0504 15.5152L19.0767 11.5153ZM20.3071 12.4903C20.187 11.9504 20.2392 11.3878 20.4583 10.8763L16.7814 9.3014C16.2329 10.582 16.1001 11.9991 16.4025 13.3587L20.3071 12.4903ZM19.5219 8.30383C19.1637 8.12279 18.8381 7.90345 18.6246 7.66431C18.4408 7.45852 18.3794 7.291 18.386 7.08575L14.388 6.95779C14.2939 9.89945 16.7138 11.3665 17.7178 11.8739L19.5219 8.30383ZM18.387 7.03244C18.385 7.40445 18.2274 7.74672 17.9709 7.98541L15.2458 5.05732C14.7088 5.5571 14.391 6.26066 14.387 7.01111L18.387 7.03244ZM17.969 7.98713C17.7122 8.22559 17.3745 8.34584 17.034 8.32953L17.2254 4.33411C16.4994 4.29934 15.785 4.55672 15.2476 5.05561L17.969 7.98713ZM17.0682 8.33087C16.7383 8.32072 16.4204 8.18158 16.1862 7.93507L19.0863 5.18019C18.5891 4.65678 17.9066 4.35479 17.1912 4.33277L17.0682 8.33087ZM16.1845 7.93321C15.9475 7.68312 15.8161 7.34272 15.8307 6.98711L19.8273 7.15072C19.8574 6.41733 19.5874 5.70904 19.0881 5.18204L16.1845 7.93321ZM15.8298 7.01119C15.7915 8.34036 16.53 9.26605 17.105 9.77918C17.6823 10.2943 18.3305 10.6159 18.6994 10.7823L20.3438 7.1359C20.2365 7.08749 20.122 7.03076 20.0133 6.96661C19.9019 6.90091 19.8207 6.84145 19.7683 6.79471C19.7139 6.74615 19.7255 6.7424 19.7543 6.79553C19.7907 6.86272 19.8324 6.98225 19.8282 7.12664L15.8298 7.01119ZM20.7775 10.5156C21.1037 10.2524 21.5864 10.0887 22.116 10.0194C22.3647 9.98678 22.5835 9.98046 22.7351 9.98314C22.8107 9.98448 22.8613 9.9879 22.8824 9.98973C22.894 9.99073 22.8883 9.99052 22.8683 9.98779C22.859 9.98652 22.8351 9.98313 22.8019 9.97697C22.792 9.97515 22.6873 9.95684 22.5563 9.91372L23.807 6.11427C23.6697 6.06907 23.5547 6.04837 23.5308 6.04395C23.4836 6.03519 23.4419 6.029 23.4112 6.0248C23.3485 6.01621 23.2855 6.00966 23.2269 6.00459C23.1074 5.99426 22.9651 5.98658 22.8059 5.98377C22.4878 5.97814 22.0692 5.99131 21.5964 6.05325C20.6829 6.17293 19.3863 6.49844 18.2657 7.40254L20.7775 10.5156ZM22.9863 10.0044C22.3207 9.9391 21.7665 9.33782 21.8429 8.5906L25.8222 8.99729C25.9786 7.46683 24.8418 6.16735 23.377 6.02356L22.9863 10.0044ZM21.8427 8.5921C21.918 7.84979 22.5728 7.37664 23.2324 7.44138L22.8416 11.4222C24.3004 11.5654 25.6676 10.5207 25.8223 8.99579L21.8427 8.5921ZM23.1893 7.43762C22.8808 7.41406 22.571 7.41404 22.2625 7.43764L22.5676 11.426C22.6728 11.4179 22.7788 11.4179 22.8847 11.426L23.1893 7.43762ZM22.4002 7.43187C21.1237 7.44136 19.8892 7.90901 18.931 8.7549L21.5781 11.7537C21.8066 11.5519 22.1093 11.4341 22.4299 11.4318L22.4002 7.43187ZM18.7112 8.98223C17.9055 9.95977 17.5481 11.2314 17.7364 12.4881L21.6922 11.8952C21.6734 11.7694 21.7075 11.636 21.7979 11.5263L18.7112 8.98223ZM17.7143 12.1916C17.7143 12.5585 17.7875 12.9517 17.8 13.033L21.7539 12.4275C21.7461 12.377 21.736 12.3136 21.7308 12.2806C21.7243 12.239 21.7201 12.2109 21.7171 12.1884C21.7106 12.1401 21.7143 12.1508 21.7143 12.1916H17.7143ZM17.8092 13.0882C17.7454 12.7373 17.8276 12.3763 18.0352 12.0887L21.2784 14.43C21.7073 13.8359 21.8757 13.0931 21.7446 12.3724L17.8092 13.0882ZM18.0324 12.0927C18.2363 11.8087 18.5383 11.6286 18.8621 11.575L19.5158 15.5212C20.2176 15.405 20.8566 15.0173 21.2813 14.426L18.0324 12.0927ZM19.4768 11.569C19.5848 11.5847 19.6864 11.6121 19.7802 11.6481L18.3468 15.3824C18.5214 15.4494 18.707 15.4991 18.901 15.5273L19.4768 11.569ZM14.8949 6.96635C14.8487 5.43278 13.5563 4.29734 12.093 4.33961L12.2086 8.33795C11.5445 8.35713 10.9193 7.83763 10.8967 7.08665L14.8949 6.96635ZM12.0914 4.33966C10.6258 4.38322 9.40291 5.59615 9.45043 7.13084L13.4485 7.00705C13.4718 7.75916 12.8772 8.31807 12.2102 8.3379L12.0914 4.33966ZM9.4503 7.12667C9.44613 6.98228 9.48778 6.86275 9.52419 6.79556C9.55297 6.74244 9.56459 6.74618 9.51017 6.79474C9.4578 6.84148 9.37654 6.90094 9.26521 6.96665C9.15651 7.03079 9.04202 7.08752 8.93468 7.13593L10.5791 10.7823C10.948 10.6159 11.5962 10.2943 12.1734 9.77921C12.7485 9.26608 13.487 8.3404 13.4486 7.01122L9.4503 7.12667ZM11.0127 7.40258C9.89171 6.49809 8.59343 6.17282 7.68012 6.05326C7.20719 5.99135 6.78851 5.97817 6.47058 5.9838C6.31143 5.98662 6.16907 5.9943 6.04943 6.00469C5.99081 6.00978 5.92727 6.01642 5.86368 6.02522C5.83268 6.02951 5.78965 6.03596 5.74058 6.04523C5.71868 6.04937 5.59304 6.07211 5.44401 6.12357L6.74965 9.90449C6.60666 9.95386 6.491 9.97422 6.48286 9.97576C6.44755 9.98242 6.42206 9.98607 6.41222 9.98743C6.39095 9.99037 6.3842 9.99067 6.39552 9.98969C6.41577 9.98793 6.46593 9.98451 6.5414 9.98317C6.69273 9.98049 6.91176 9.9868 7.16093 10.0194C7.69182 10.0889 8.17529 10.2528 8.50101 10.5156L11.0127 7.40258ZM5.81037 6.03465C4.45321 6.23106 3.40701 7.42395 3.48226 8.85647L7.47675 8.64666C7.51366 9.34934 7.00246 9.9038 6.38329 9.99341L5.81037 6.03465ZM19.4883 15.4747C20.1954 15.3588 20.8329 14.9682 21.2557 14.3814L18.0103 12.0432C18.2118 11.7636 18.5123 11.5813 18.8413 11.5274L19.4883 15.4747ZM21.2575 14.379C21.6809 13.7894 21.8524 13.05 21.7209 12.3259L17.7853 13.0406C17.7211 12.6869 17.8058 12.328 18.0086 12.0456L21.2575 14.379ZM21.73 12.3804C21.7098 12.2482 21.6952 12.1152 21.6833 11.9751L17.6977 12.314C17.7147 12.5142 17.7385 12.7404 17.7761 12.986L21.73 12.3804ZM21.6684 11.8481C21.6496 11.7223 21.6837 11.5884 21.7745 11.478L18.6863 8.93582C17.8817 9.91318 17.5243 11.1843 17.7126 12.441L21.6684 11.8481ZM21.554 11.7062C21.7821 11.5049 22.0846 11.3871 22.4058 11.3847L22.3761 7.3848C21.1001 7.39428 19.8654 7.86124 18.9068 8.70754L21.554 11.7062ZM22.5466 11.3787C22.6498 11.3706 22.7539 11.3706 22.8572 11.3787L23.1686 7.39081C22.858 7.36657 22.5457 7.36657 22.2352 7.39081L22.5466 11.3787ZM22.8175 11.3752C24.2773 11.5185 25.6427 10.4729 25.7984 8.94993L21.8191 8.54316C21.8947 7.80345 22.5477 7.32946 23.2083 7.39431L22.8175 11.3752ZM25.7985 8.94838C25.9537 7.41895 24.8172 6.12026 23.3529 5.97649L22.9621 9.95735C22.297 9.89205 21.7432 9.29156 21.8189 8.5447L25.7985 8.94838ZM23.1575 5.96692C23.2952 5.96692 22.4648 5.91185 21.5723 6.02711C20.6726 6.14329 19.3732 6.45493 18.2521 7.34705L20.7428 10.477C21.0588 10.2255 21.5387 10.0647 22.0845 9.99417C22.6374 9.92277 22.9185 9.96692 23.1575 9.96692V5.96692ZM20.2838 7.07307C20.1882 7.0322 20.0805 6.98056 19.9771 6.92047C19.8711 6.85891 19.7936 6.80239 19.7442 6.75828C19.693 6.7126 19.7052 6.71003 19.7336 6.76286C19.7694 6.8294 19.8079 6.94373 19.8041 7.07877L15.8057 6.96491C15.7679 8.29173 16.496 9.22083 17.0809 9.74272C17.6645 10.2636 18.3201 10.5837 18.7111 10.7509L20.2838 7.07307ZM19.8036 7.09327C19.8298 6.3597 19.556 5.65528 19.0573 5.13275L16.1636 7.8943C15.9273 7.6467 15.7934 7.30751 15.8061 6.9504L19.8036 7.09327ZM19.0573 5.13276C18.5602 4.61181 17.8795 4.31235 17.1677 4.29033L17.044 8.28841C16.7157 8.27825 16.3983 8.14032 16.1636 7.89429L19.0573 5.13276ZM17.2014 4.29165C16.4757 4.25696 15.7612 4.51393 15.2235 5.01315L17.9449 7.94468C17.6877 8.18348 17.3499 8.30332 17.0104 8.28709L17.2014 4.29165ZM15.2199 5.0165C14.6847 5.51581 14.3672 6.21851 14.3632 6.96868L18.3632 6.98997C18.3612 7.3617 18.2039 7.7031 17.9485 7.94133L15.2199 5.0165ZM14.3642 6.91473C14.2695 9.84772 16.6786 11.3289 17.7088 11.8388L19.4832 8.25395C19.1402 8.08417 18.8163 7.86618 18.6028 7.62631C18.4172 7.41768 18.3556 7.24701 18.3621 7.04392L14.3642 6.91473ZM16.7576 9.25889C16.2093 10.5389 16.0758 11.9562 16.3784 13.3161L20.2829 12.4473C20.163 11.9085 20.2152 11.3458 20.4345 10.8339L16.7576 9.25889ZM16.3597 13.2215C16.5876 14.5436 17.7358 15.4652 19.0281 15.4724L19.0506 11.4725C19.6406 11.4758 20.1907 11.899 20.3016 12.542L16.3597 13.2215ZM18.4067 15.3697C18.6243 15.4423 18.8525 15.4861 19.0861 15.4981L19.2921 11.5035C19.4234 11.5102 19.5513 11.5349 19.6721 11.5752L18.4067 15.3697ZM19.1676 11.5009L19.1434 11.5012L19.1862 15.5009L19.2105 15.5007L19.1676 11.5009ZM23.1767 5.96221C23.3144 5.96221 22.484 5.90714 21.5914 6.0224C20.6918 6.13858 19.3923 6.45023 18.2713 7.34234L20.762 10.4723C21.0779 10.2208 21.5579 10.0599 22.1037 9.98946C22.6566 9.91807 22.9377 9.96221 23.1767 9.96221V5.96221ZM20.3029 7.06836C20.2074 7.02749 20.0997 6.97585 19.9962 6.91576C19.8902 6.85421 19.8127 6.79768 19.7633 6.75357C19.7121 6.70789 19.7244 6.70532 19.7528 6.75815C19.7885 6.8247 19.8271 6.93903 19.8232 7.07406L15.8248 6.9602C15.7871 8.28702 16.5152 9.21613 17.1 9.73802C17.6837 10.2589 18.3392 10.579 18.7303 10.7462L20.3029 7.06836ZM19.8229 7.085C19.8476 6.35782 19.5779 5.65216 19.0748 5.12631L16.1844 7.89132C15.9437 7.63974 15.8133 7.29997 15.8252 6.94926L19.8229 7.085ZM19.0765 5.12805C18.5793 4.60699 17.8996 4.30858 17.1904 4.28539L17.0597 8.28325C16.734 8.2726 16.4176 8.13571 16.1827 7.88958L19.0765 5.12805ZM17.2171 4.28645C16.493 4.25306 15.7802 4.50976 15.243 5.00843L17.9644 7.93997C17.7077 8.17822 17.3709 8.29778 17.033 8.2822L17.2171 4.28645ZM15.243 5.00844C14.702 5.51062 14.3877 6.21503 14.3824 6.96008L18.3823 6.98848C18.3797 7.35509 18.2248 7.69821 17.9644 7.93996L15.243 5.00844ZM14.3834 6.90968C14.2886 9.84268 16.6978 11.3239 17.728 11.8338L19.5024 8.2489C19.1594 8.07913 18.8354 7.86113 18.622 7.62127C18.4363 7.41263 18.3747 7.24197 18.3813 7.03888L14.3834 6.90968ZM16.7769 9.25359C16.2282 10.534 16.0955 11.9519 16.3974 13.3107L20.3022 12.4433C20.1823 11.9033 20.2346 11.3399 20.4535 10.8291L16.7769 9.25359ZM16.3789 13.2168C16.6069 14.5394 17.7555 15.4604 19.0476 15.4677L19.0701 11.4678C19.6592 11.4711 20.2098 11.8937 20.3207 12.5373L16.3789 13.2168ZM18.8389 15.4556C19.0268 15.4764 19.2164 15.4764 19.4043 15.4556L18.9644 11.4799C19.0689 11.4683 19.1743 11.4683 19.2788 11.4799L18.8389 15.4556ZM19.5079 15.4414C20.2142 15.3256 20.8524 14.9354 21.2755 14.3477L18.029 12.0109C18.2314 11.7297 18.5326 11.5479 18.8608 11.4941L19.5079 15.4414ZM21.2767 14.346C21.7002 13.7563 21.871 13.0176 21.741 12.2957L17.8043 13.0047C17.7409 12.6527 17.8249 12.2951 18.0278 12.0126L21.2767 14.346ZM21.7496 12.3474C21.7293 12.2152 21.7148 12.0822 21.7029 11.9421L17.7173 12.281C17.7343 12.4811 17.7581 12.7074 17.7957 12.953L21.7496 12.3474ZM21.688 11.8153C21.669 11.6881 21.7035 11.5549 21.7932 11.446L18.7067 8.90178C17.9003 9.88 17.544 11.1518 17.7321 12.4079L21.688 11.8153ZM21.574 11.6729C21.8014 11.472 22.1039 11.3539 22.4258 11.3514L22.3944 7.35148C21.1191 7.36148 19.8845 7.82818 18.9259 8.67491L21.574 11.6729ZM22.5624 11.3456C22.6682 11.3375 22.7743 11.3375 22.8801 11.3456L23.1847 7.35722C22.8761 7.33366 22.5664 7.33366 22.2578 7.35722L22.5624 11.3456ZM22.8368 11.3418C24.2957 11.4852 25.6618 10.4406 25.8176 8.91694L21.8383 8.51016C21.914 7.76977 22.5676 7.29612 23.228 7.361L22.8368 11.3418ZM25.8176 8.91691C25.974 7.38598 24.8361 6.08611 23.371 5.94335L22.9831 9.9245C22.3165 9.85955 21.7619 9.25788 21.8383 8.51019L25.8176 8.91691ZM21.1772 7.90671L21.1768 7.935L25.1765 7.98943L25.1769 7.96114L21.1772 7.90671Z" fill="white" mask="url(#path-1-inside-1_896_61)"/>
</svg>
