<svg width="27" height="36" viewBox="0 0 27 36" fill="none" xmlns="http://www.w3.org/2000/svg">
<path d="M12.8243 17.0994C15.7872 17.0994 18.2111 14.6755 18.2111 11.7126C18.2111 8.74975 15.7872 6.32581 12.8243 6.32581C9.86144 6.32581 7.4375 8.74975 7.4375 11.7126C7.4375 14.6755 9.86144 17.0994 12.8243 17.0994ZM12.8243 8.12128C14.7996 8.12128 16.4157 9.73735 16.4157 11.7126C16.4157 13.6879 14.7996 15.304 12.8243 15.304C10.849 15.304 9.23297 13.6879 9.23297 11.7126C9.23297 9.73735 10.849 8.12128 12.8243 8.12128Z" fill="white"/>
<path d="M0.840603 30.3872C1.06512 30.7016 1.42428 30.8362 1.78347 30.7463L7.17029 29.4894L8.56183 34.8762C8.6517 35.2354 8.96577 35.5047 9.28015 35.5494H9.4148C9.72919 35.5494 9.99848 35.37 10.1779 35.1004L13.8591 29.04L17.2259 34.6513C17.4054 34.9206 17.675 35.1004 17.989 35.1004H18.1237C18.4828 35.0556 18.7521 34.786 18.842 34.4271L20.2335 29.0403L25.6204 30.2973C25.9795 30.3871 26.3387 30.2525 26.5632 29.9381C26.7877 29.6237 26.7877 29.2649 26.608 28.9505L20.9516 19.4785C21.4454 19.2991 21.8493 18.9847 22.1637 18.5357C22.7922 17.6379 22.8821 16.5157 22.2984 15.528C22.1637 15.3035 22.119 15.0342 22.2085 14.7649C22.2984 14.4956 22.4778 14.3158 22.7471 14.1812C23.7795 13.7322 24.408 12.7897 24.408 11.6674C24.408 10.5451 23.7795 9.60225 22.7471 9.15358C22.5226 9.06371 22.2981 8.83919 22.2533 8.61499C22.1634 8.34569 22.2085 8.07639 22.3432 7.85188C22.9268 6.90901 22.837 5.74201 22.2085 4.88901C21.5801 3.99127 20.5026 3.58733 19.4254 3.8566C19.1561 3.90138 18.8868 3.8566 18.6623 3.72195C18.4377 3.5873 18.3031 3.318 18.3031 3.04872C18.2132 1.97126 17.4952 1.07344 16.4177 0.714312C15.3853 0.355146 14.263 0.669534 13.5447 1.47742C13.1855 1.88136 12.5123 1.88136 12.1531 1.47742C11.4348 0.669541 10.3125 0.355145 9.28011 0.669542C8.2477 1.02871 7.52937 1.88167 7.39469 3.00395C7.34992 3.27324 7.21527 3.49776 7.03553 3.67718C6.81101 3.85661 6.54171 3.9017 6.27242 3.81183C5.19496 3.58731 4.11775 3.99125 3.48927 4.84424C2.86082 5.74197 2.77095 6.86424 3.35463 7.85192C3.48927 8.07644 3.53405 8.34574 3.44449 8.61503C3.35462 8.88432 3.1752 9.06406 2.9059 9.1987C1.87349 9.64774 1.24502 10.5902 1.24502 11.7125C1.24502 12.8348 1.87348 13.7776 2.9059 14.2263C3.13042 14.3162 3.35494 14.5407 3.39972 14.7649C3.44449 14.9894 3.44449 15.3035 3.30985 15.528C2.77125 16.4709 2.81603 17.6379 3.44449 18.4909C4.07295 19.3886 5.15043 19.7926 6.22765 19.5233C6.36229 19.4785 6.54204 19.4785 6.67668 19.5233L0.795422 29.3993C0.615995 29.6686 0.615995 30.0725 0.840514 30.3869L0.840603 30.3872ZM19.8294 27.0652C19.3356 26.9753 18.8866 27.2446 18.752 27.6936L17.6745 31.8683L11.8386 22.2168C11.9285 22.1269 12.018 22.0373 12.1079 21.9475C12.4671 21.5435 13.1403 21.5435 13.4995 21.9475C14.038 22.5312 14.7564 22.8903 15.5195 22.8903C15.7888 22.8903 16.1031 22.8456 16.3725 22.7557C17.4049 22.3965 18.1232 21.5436 18.2579 20.4213C18.3027 20.152 18.4373 19.9275 18.617 19.7481C18.7069 19.7033 18.7965 19.6582 18.8863 19.6134L24.0039 28.0529L19.8294 27.0652ZM5.86838 17.8176C5.32978 17.9523 5.01537 17.5931 4.92551 17.4585C4.83564 17.3238 4.61112 16.9199 4.88073 16.4261C5.28468 15.7528 5.37455 14.9447 5.10525 14.1815C4.88073 13.4184 4.29737 12.8347 3.57904 12.5206C3.08523 12.2961 3.04045 11.8023 3.04045 11.6676C3.04045 11.533 3.08523 11.0392 3.62412 10.8146C4.34245 10.5002 4.88107 9.9169 5.15033 9.15376C5.37485 8.39065 5.28498 7.58242 4.88104 6.90922C4.61174 6.4154 4.83626 6.01148 4.92581 5.92162C5.01568 5.83175 5.32976 5.4278 5.86868 5.56245C6.63178 5.74188 7.44002 5.56245 8.06841 5.11341C8.69687 4.66438 9.10082 3.94633 9.19068 3.18327C9.23546 2.64467 9.6845 2.42016 9.81914 2.37539C9.95379 2.33062 10.4028 2.24074 10.8067 2.64469C11.3006 3.22837 12.0637 3.58756 12.8267 3.58756C13.5898 3.58756 14.353 3.27317 14.8468 2.64469C15.2059 2.24074 15.6998 2.3303 15.8344 2.37539C15.969 2.42017 16.418 2.59991 16.4628 3.18327C16.5527 3.94637 16.9566 4.66467 17.5851 5.11341C18.2135 5.56245 19.0217 5.74187 19.7848 5.56245C20.3234 5.4278 20.6378 5.78697 20.7277 5.92162C20.8175 6.05627 21.0421 6.46021 20.7725 6.95403C20.3685 7.62726 20.2786 8.43542 20.5479 9.19857C20.7725 9.96167 21.3558 10.5454 22.0741 10.8594C22.568 11.084 22.6127 11.5778 22.6127 11.7125C22.6127 11.8471 22.568 12.3409 22.0291 12.5655C21.3107 12.8798 20.7721 13.4632 20.5029 14.2263C20.2783 14.9894 20.3682 15.7977 20.7722 16.4709C21.0414 16.9647 20.8169 17.3686 20.7274 17.4585C20.6375 17.5931 20.3234 17.9523 19.7845 17.8176C19.0214 17.6382 18.2132 17.8176 17.5848 18.2667C16.9563 18.7157 16.5524 19.4338 16.4625 20.1968C16.4177 20.7354 15.9687 20.9599 15.834 21.0047C15.6994 21.0495 15.2504 21.1394 14.8464 20.7354C14.3526 20.1517 13.5895 19.7925 12.8264 19.7925C12.0634 19.7925 11.3002 20.1069 10.7613 20.7354C10.4021 21.1394 9.9083 21.0498 9.7737 21.0047C9.63905 20.9599 9.19003 20.7802 9.14525 20.1968C9.05538 19.4337 8.65143 18.7154 8.02298 18.2667C7.57394 17.9075 6.99057 17.7281 6.40691 17.7281C6.27226 17.7278 6.09283 17.7729 5.86831 17.8176H5.86838ZM7.70898 21.409C8.02337 22.0375 8.56199 22.4865 9.28032 22.7107C9.59471 22.8005 9.864 22.8453 10.1781 22.8453L12.8717 27.2896L9.81925 32.3173L8.74179 28.1426C8.60714 27.6488 8.15811 27.3795 7.66433 27.5141L3.48964 28.5017L7.70898 21.409Z" fill="white"/>
</svg>
