<?xml version="1.0" encoding="utf-8"?>
<!-- Generator: Adobe Illustrator 23.0.3, SVG Export Plug-In . SVG Version: 6.00 Build 0)  -->
<svg version="1.1" id="Layer_1" xmlns="http://www.w3.org/2000/svg" xmlns:xlink="http://www.w3.org/1999/xlink" x="0px" y="0px"
	 viewBox="0 0 24 24" style="enable-background:new 0 0 24 24;" xml:space="preserve">
<style type="text/css">
	.st0{fill-rule:evenodd;clip-rule:evenodd;}
</style>
<path d="M8.4,3.1C8.2,3.1,8,3.2,7.9,3.3C7.6,3.6,7.6,4,7.9,4.2l0.6,0.6C7.8,5.6,7.3,6.5,7.1,7.6C7.1,8,7.4,8.3,7.8,8.3h8.5
	c0.4,0,0.7-0.4,0.6-0.8c-0.2-1.1-0.7-2-1.4-2.7l0.7-0.6c0.3-0.3,0.3-0.7,0-0.9c-0.2-0.2-0.4-0.2-0.6-0.2c-0.1,0-0.2,0.1-0.3,0.2
	l-0.8,0.8c-0.7-0.4-1.5-0.6-2.4-0.6c-0.9,0-1.7,0.2-2.4,0.6L8.8,3.3C8.7,3.2,8.6,3.2,8.5,3.1C8.5,3.1,8.4,3.1,8.4,3.1L8.4,3.1z
	 M12,4.8c0.8,0,1.5,0.2,2.1,0.6c0,0,0,0,0.1,0c0.6,0.4,1,0.9,1.2,1.6H8.6c0.2-0.6,0.7-1.1,1.2-1.5c0.1,0,0.1-0.1,0.2-0.1
	C10.6,5,11.2,4.8,12,4.8L12,4.8z M5.7,9.1C5.3,9.1,5,9.4,5,9.8v4.4c0,0.4,0.3,0.7,0.7,0.7c0.4,0,0.7-0.3,0.7-0.7V9.8
	C6.3,9.4,6,9.1,5.7,9.1z M7.7,9.1c-0.4,0-0.7,0.3-0.7,0.7v7.3c0,0.4,0.3,0.7,0.7,0.7h1.2v2.5c0,0.4,0.3,0.7,0.7,0.7
	c0.4,0,0.7-0.3,0.7-0.7v-2.5h3.6v2.5c0,0.4,0.3,0.7,0.7,0.7c0.4,0,0.7-0.3,0.7-0.7v-2.5h1.2c0.4,0,0.7-0.3,0.7-0.7l0-7.3
	c0-0.4-0.3-0.7-0.7-0.7L7.7,9.1z M18.3,9.1c-0.4,0-0.7,0.3-0.7,0.7v4.4c0,0.4,0.3,0.7,0.7,0.7c0.4,0,0.7-0.3,0.7-0.7V9.8
	C19,9.4,18.7,9.1,18.3,9.1z M8.4,10.4h7.3v6H8.4V10.4z"/>
</svg>
