<?xml version="1.0" encoding="utf-8"?>
<!-- Generator: Adobe Illustrator 23.0.3, SVG Export Plug-In . SVG Version: 6.00 Build 0)  -->
<svg version="1.1" id="Layer_1" xmlns="http://www.w3.org/2000/svg" xmlns:xlink="http://www.w3.org/1999/xlink" x="0px" y="0px"
	 viewBox="0 0 24 24" style="enable-background:new 0 0 24 24;" xml:space="preserve">
<style type="text/css">
	.st0{fill-rule:evenodd;clip-rule:evenodd;}
</style>
<g>
	<g>
		<path d="M20.6,3.6H3.5c-0.4,0-0.7,0.2-1,0.4C2.2,4.3,2.1,4.7,2.1,5v14.2c0,0.4,0.2,0.7,0.4,1c0.3,0.3,0.6,0.4,1,0.4h17.1
			c0.4,0,0.7-0.2,1-0.4c0.3-0.3,0.4-0.6,0.4-1V5c0-0.4-0.2-0.7-0.4-1C21.3,3.8,21,3.6,20.6,3.6z M20.6,5v1.4H3.5V5L20.6,5z
			 M3.5,19.3V7.9h17.1v11.4H3.5z"/>
	</g>
	<g>
		<g>
			<g>
				<path d="M18.8,12.5c0,0.1,0,0.2-0.1,0.3c-0.1,0.1-0.2,0.1-0.3,0.1L15.7,13c-0.1,0-0.2,0-0.3-0.1c-0.1-0.1-0.1-0.2-0.1-0.3
					c0-0.1,0-0.2,0.1-0.3c0.1-0.1,0.2-0.1,0.3-0.1l2.6-0.1c0,0,0,0,0,0c0.1,0,0.2,0,0.3,0.1C18.7,12.3,18.7,12.4,18.8,12.5z"/>
			</g>
		</g>
		<g>
			<g>
				<path d="M18.2,15.8c0,0,0,0.1,0,0.1c0,0.1-0.1,0.2-0.2,0.2c-0.1,0.1-0.2,0.1-0.3,0l-0.3-0.1v0l-1.7-0.5c-0.1,0-0.2-0.1-0.2-0.2
					c-0.1-0.1-0.1-0.2,0-0.3c0-0.1,0.1-0.2,0.2-0.2c0.1-0.1,0.2-0.1,0.3,0l2,0.6c0.1,0,0.2,0.1,0.2,0.2
					C18.2,15.7,18.2,15.8,18.2,15.8z"/>
			</g>
		</g>
		<g>
			<g>
				<path d="M17.9,9.2c0,0.1,0,0.1,0,0.2c0,0.1-0.1,0.2-0.2,0.2l-2,0.7c0,0-0.1,0-0.1,0c-0.2,0-0.3-0.1-0.4-0.3c0-0.1,0-0.2,0-0.3
					c0-0.1,0.1-0.2,0.2-0.2l2-0.7c0,0,0.1,0,0.1,0c0.1,0,0.1,0,0.2,0c0.1,0,0.2,0.1,0.2,0.2C17.9,9.1,17.9,9.2,17.9,9.2z"/>
			</g>
		</g>
		<g>
			<g>
				<path d="M13.7,9c0-0.2-0.1-0.4-0.3-0.5c-0.1,0-0.1,0-0.2,0c-0.1,0-0.3,0-0.4,0.1l-0.2,0.2c-1.1,1-2.6,1.6-4.1,1.6H6.6
					c-0.3,0-0.7,0.1-0.9,0.4c-0.2,0.2-0.4,0.6-0.4,0.9v1.6c0,0.7,0.6,1.3,1.3,1.3h0.1l0,3.1c0,0.3,0.2,0.5,0.5,0.5l1.9,0
					c0.1,0,0.3-0.1,0.4-0.2c0.1-0.1,0.2-0.2,0.2-0.4l0-3l0,0c1.1,0.2,2.1,0.8,3,1.5l0.2,0.2c0.1,0.1,0.2,0.1,0.4,0.1
					c0.1,0,0.1,0,0.2,0c0.2-0.1,0.3-0.3,0.3-0.5L13.7,9z M6.6,13.6c-0.1,0-0.2-0.1-0.2-0.2l0-1.6c0-0.1,0-0.1,0.1-0.2
					c0,0,0.1-0.1,0.2-0.1l1.3,0v2.1H6.6z M7.7,17.2l0-2.6h0.7c0,0,0,0,0,0l0,0v0.1l0,2.5H7.7z M12.6,14.9c-1.1-0.7-2.3-1.2-3.6-1.3
					l0,0l0-2.1l0,0c1.3-0.1,2.5-0.6,3.6-1.3l0,0L12.6,14.9L12.6,14.9z"/>
			</g>
		</g>
	</g>
</g>
</svg>
