<?xml version="1.0" encoding="utf-8"?>
<!-- Generator: Adobe Illustrator 23.0.3, SVG Export Plug-In . SVG Version: 6.00 Build 0)  -->
<svg version="1.1" id="Layer_1" xmlns="http://www.w3.org/2000/svg" xmlns:xlink="http://www.w3.org/1999/xlink" x="0px" y="0px"
	 viewBox="0 0 24 24" style="enable-background:new 0 0 24 24;" xml:space="preserve">
<style type="text/css">
	.st0{fill-rule:evenodd;clip-rule:evenodd;}
</style>
<path d="M3.3,3.6c-1,0-1.7,0.8-1.7,1.7v13.7c0,1,0.8,1.7,1.7,1.7h17.5c1,0,1.7-0.8,1.7-1.7V5.3c0-1-0.8-1.7-1.7-1.7H3.3z M3.3,4.8
	h17.5c0.3,0,0.5,0.2,0.5,0.5v2H2.8v-2C2.8,5,3,4.8,3.3,4.8z M4.3,5.4C4,5.4,3.7,5.7,3.7,6.1c0,0.2,0.1,0.3,0.2,0.4
	C4,6.6,4.2,6.7,4.3,6.7h1c0.2,0,0.3-0.1,0.4-0.2c0.1-0.1,0.2-0.3,0.2-0.4c0-0.2-0.1-0.3-0.2-0.4C5.6,5.5,5.4,5.4,5.3,5.4H4.3z
	 M7.1,5.4c-0.3,0-0.6,0.3-0.6,0.6c0,0.2,0.1,0.3,0.2,0.4c0.1,0.1,0.3,0.2,0.4,0.2h1c0.2,0,0.3-0.1,0.4-0.2c0.1-0.1,0.2-0.3,0.2-0.4
	c0-0.2-0.1-0.3-0.2-0.4C8.4,5.5,8.2,5.4,8.1,5.4H7.1z M2.8,8.6h18.5v10.5c0,0.3-0.2,0.5-0.5,0.5H3.3c-0.3,0-0.5-0.2-0.5-0.5L2.8,8.6
	z M10.9,9.7c-0.3,0-0.6,0.3-0.6,0.6v0.9c-0.3,0.1-0.7,0.2-1,0.4L8.7,11c-0.2-0.2-0.6-0.2-0.9,0l-1.5,1.5c-0.2,0.2-0.2,0.6,0,0.9
	l0.7,0.7c-0.2,0.3-0.3,0.6-0.4,1H5.6C5.3,15,5,15.3,5,15.6v2.2c0,0.3,0.3,0.6,0.6,0.6h0.9c0,0.1,0.1,0.2,0.1,0.2
	c0.1,0.3,0.5,0.5,0.8,0.4c0.2-0.1,0.3-0.2,0.3-0.3c0.1-0.1,0.1-0.3,0-0.5c-0.1-0.2-0.1-0.4-0.2-0.6c-0.1-0.3-0.3-0.5-0.6-0.5H6.2
	v-0.9H7c0.3,0,0.5-0.2,0.6-0.5c0.1-0.5,0.3-1,0.6-1.5c0.2-0.2,0.1-0.6-0.1-0.8L7.6,13l0.7-0.7l0.6,0.6c0.2,0.2,0.5,0.2,0.8,0.1
	c0.5-0.3,1-0.5,1.5-0.6c0.3-0.1,0.5-0.3,0.5-0.6v-0.8h0.9v0.8c0,0.3,0.2,0.5,0.5,0.6c0.5,0.1,1,0.3,1.5,0.6c0.2,0.2,0.6,0.1,0.8-0.1
	l0.6-0.6l0.7,0.7l-0.6,0.6c-0.2,0.2-0.2,0.5-0.1,0.8c0.3,0.5,0.5,1,0.6,1.5c0.1,0.3,0.3,0.5,0.6,0.5h0.8v0.9H17
	c-0.3,0-0.5,0.2-0.6,0.5c0,0.2-0.1,0.4-0.2,0.6c-0.1,0.2,0,0.3,0,0.5c0.1,0.1,0.2,0.3,0.3,0.3c0.2,0.1,0.3,0,0.5,0
	c0.1-0.1,0.3-0.2,0.3-0.3c0-0.1,0.1-0.2,0.1-0.2h0.9c0.3,0,0.6-0.3,0.6-0.6v-2.2c0-0.3-0.3-0.6-0.6-0.6h-0.9c-0.1-0.3-0.2-0.7-0.4-1
	l0.7-0.7c0.2-0.2,0.2-0.6,0-0.9L16.2,11c-0.1-0.1-0.3-0.2-0.4-0.2c-0.2,0-0.3,0.1-0.4,0.2l-0.7,0.7c-0.3-0.2-0.6-0.3-1-0.4v-0.9
	c0-0.3-0.3-0.6-0.6-0.6L10.9,9.7z M12,14.2c-1.3,0-2.4,1.1-2.4,2.5c0,1.4,1.1,2.5,2.5,2.5s2.5-1.1,2.5-2.5
	C14.5,15.4,13.4,14.2,12,14.2C12,14.2,12,14.2,12,14.2L12,14.2z M12,15.5c0.7,0,1.3,0.6,1.3,1.3c0,0.7-0.6,1.3-1.3,1.3
	c-0.7,0-1.3-0.6-1.3-1.3C10.8,16,11.3,15.5,12,15.5z"/>
</svg>
