<?xml version="1.0" encoding="utf-8"?>
<!-- Generator: Adobe Illustrator 23.0.3, SVG Export Plug-In . SVG Version: 6.00 Build 0)  -->
<svg version="1.1" id="Layer_1" xmlns="http://www.w3.org/2000/svg" xmlns:xlink="http://www.w3.org/1999/xlink" x="0px" y="0px"
	 viewBox="0 0 24 24" style="enable-background:new 0 0 24 24;" xml:space="preserve">
<style type="text/css">
	.st0{fill-rule:evenodd;clip-rule:evenodd;}
</style>
<g>
	<g>
		<path d="M22.8,2.7c-0.3-0.3-0.6-0.4-1-0.4H4.7c-0.4,0-0.7,0.1-1,0.4c-0.3,0.3-0.4,0.6-0.4,1v14.2c0,0.4,0.2,0.7,0.4,1
			c0.3,0.3,0.6,0.4,1,0.4h17.1c0.4,0,0.7-0.2,1-0.4c0.3-0.3,0.4-0.6,0.4-1V3.7C23.3,3.3,23.1,2.9,22.8,2.7z M21.8,17.9H4.7V3.7h17.1
			V17.9z"/>
	</g>
	<g>
		<path d="M17.2,10.2l-5.4-3.7c-0.2-0.1-0.5-0.2-0.7,0c-0.2,0.1-0.4,0.3-0.4,0.6v7.4c0,0.3,0.1,0.5,0.4,0.6c0.1,0.1,0.2,0.1,0.3,0.1
			c0.1,0,0.3,0,0.4-0.1l5.4-3.7c0.2-0.1,0.3-0.3,0.3-0.6C17.5,10.6,17.4,10.4,17.2,10.2z M12.1,13.2V8.4l3.5,2.4L12.1,13.2z"/>
	</g>
</g>
</svg>
