<?xml version="1.0" encoding="utf-8"?>
<!-- Generator: Adobe Illustrator 23.0.3, SVG Export Plug-In . SVG Version: 6.00 Build 0)  -->
<svg version="1.1" id="Layer_1" xmlns="http://www.w3.org/2000/svg" xmlns:xlink="http://www.w3.org/1999/xlink" x="0px" y="0px"
	 viewBox="0 0 24 24" style="enable-background:new 0 0 24 24;" xml:space="preserve">
<style type="text/css">
	.st0{fill-rule:evenodd;clip-rule:evenodd;}
</style>
<g>
	<path d="M20.5,3.7H3.5c-0.4,0-0.7,0.2-1,0.4C2.2,4.3,2,4.7,2,5.1v14.2c0,0.4,0.2,0.7,0.4,1c0.3,0.3,0.6,0.4,1,0.4h17.1
		c0.4,0,0.7-0.2,1-0.4c0.3-0.3,0.4-0.6,0.4-1V5.1c0-0.4-0.2-0.7-0.4-1C21.3,3.8,20.9,3.7,20.5,3.7z M20.5,5.1v1.4H3.5V5.1H20.5z
		 M3.5,19.3V7.9h17.1v11.4H3.5z"/>
	<path d="M8.6,10.3l-2.8,2.8h0c-0.3,0.3-0.3,0.7,0,1L8.6,17l1-1l-2.3-2.3l2.3-2.3L8.6,10.3z"/>
	<path d="M10.6,17L12,9.9l1.4,0.3L12,17.3L10.6,17z"/>
	<path d="M15.4,10.3l-1,1l2.3,2.3L14.3,16l1,1l2.8-2.8v0c0.3-0.3,0.3-0.7,0-1L15.4,10.3z"/>
</g>
</svg>
