<?xml version="1.0" encoding="utf-8"?>
<!-- Generator: Adobe Illustrator 23.0.3, SVG Export Plug-In . SVG Version: 6.00 Build 0)  -->
<svg version="1.1" id="Layer_1" xmlns="http://www.w3.org/2000/svg" xmlns:xlink="http://www.w3.org/1999/xlink" x="0px" y="0px"
	 viewBox="0 0 24 24" style="enable-background:new 0 0 24 24;" xml:space="preserve">
<style type="text/css">
	.st0{fill-rule:evenodd;clip-rule:evenodd;}
</style>
<path class="st0" d="M20.1,9.5H18c-0.3,0-0.5,0.2-0.5,0.5v2.1c0,0.3,0.2,0.5,0.5,0.5h0.5c-0.1,1.6-0.8,3.1-1.9,4.2
	c-1.1,1.1-2.6,1.9-4.1,2c0.2-0.4,0.2-0.4,0.8-2c0.8-2.1,1.4-3.9,3-5.5v0c0.2-0.2,0.2-0.5,0-0.7c-1.2-1.2-1.8-2.7-1.9-4.4h0.5
	c0.3,0,0.5-0.2,0.5-0.5c0-0.3-0.2-0.5-0.5-0.5h-0.5V3.7c0-0.3-0.2-0.5-0.5-0.5H9.6c-0.3,0-0.5,0.2-0.5,0.5v1.6H8.6
	C8.3,5.3,8,5.5,8,5.8c0,0.3,0.2,0.5,0.5,0.5h0.5C9,8,8.3,9.6,7.1,10.7c-0.2,0.2-0.2,0.5,0,0.7c1.6,1.6,2.2,3.4,3,5.5
	c0.6,1.5,0.6,1.6,0.8,2v0c-1.6-0.2-3-0.9-4.1-2c-1.1-1.1-1.8-2.6-1.9-4.2h0.5c0.3,0,0.5-0.2,0.5-0.5V10c0-0.3-0.2-0.5-0.5-0.5H3.3
	C3,9.5,2.8,9.8,2.8,10v2.1c0,0.3,0.2,0.5,0.5,0.5h0.5c0.1,1.3,0.5,2.5,1.2,3.6c0.7,1.1,1.6,2,2.8,2.6H5.9v-0.5
	c0-0.3-0.2-0.5-0.5-0.5H3.3c-0.1,0-0.3,0.1-0.4,0.2c-0.1,0.1-0.2,0.2-0.2,0.4v2.1c0,0.1,0.1,0.3,0.2,0.4C3,21,3.1,21,3.3,21h2.1
	c0.3,0,0.5-0.2,0.5-0.5V20h11.6v0.5c0,0.1,0.1,0.3,0.2,0.4C17.7,21,17.9,21,18,21h2.1c0.1,0,0.3-0.1,0.4-0.2
	c0.1-0.1,0.2-0.2,0.2-0.4v-2.1c0-0.3-0.2-0.5-0.5-0.5H18c-0.3,0-0.5,0.2-0.5,0.5v0.5h-1.9c1.1-0.6,2.1-1.5,2.8-2.6
	c0.7-1.1,1.1-2.3,1.2-3.6h0.5c0.3,0,0.5-0.2,0.5-0.5V10C20.6,9.8,20.4,9.5,20.1,9.5L20.1,9.5z M4.9,11.6h-1v-1h1V11.6L4.9,11.6z
	 M4.9,20l-1,0v-1h1V20z M10.1,4.2h3.1v1.1h-3.1V4.2z M11.7,10.6c-0.2,0-0.4-0.1-0.5-0.3c-0.1-0.2,0-0.4,0.1-0.6s0.4-0.2,0.6-0.1
	c0.2,0.1,0.3,0.3,0.3,0.5C12.2,10.3,12,10.6,11.7,10.6z M12.2,16.7v-5.1c0.5-0.2,0.8-0.5,1-1c0.1-0.5,0.1-1-0.2-1.4
	c-0.3-0.4-0.8-0.6-1.3-0.6s-1,0.2-1.3,0.6c-0.3,0.4-0.4,0.9-0.2,1.4c0.1,0.5,0.5,0.9,1,1v5.1l0-0.1c-0.7-2-1.4-3.8-2.9-5.5h0
	c1.1-1.3,1.8-3,1.9-4.7h3.2c0.1,1.7,0.7,3.4,1.9,4.7c-1.5,1.6-2.2,3.5-2.9,5.5L12.2,16.7L12.2,16.7z M18.5,18.9l1,0v1l-1,0
	L18.5,18.9L18.5,18.9z M19.6,11.6h-1v-1h1V11.6z"/>
</svg>
