<?xml version="1.0" encoding="utf-8"?>
<!-- Generator: Adobe Illustrator 23.0.3, SVG Export Plug-In . SVG Version: 6.00 Build 0)  -->
<svg version="1.1" id="Layer_1" xmlns="http://www.w3.org/2000/svg" xmlns:xlink="http://www.w3.org/1999/xlink" x="0px" y="0px"
	 viewBox="0 0 24 24" style="enable-background:new 0 0 24 24;" xml:space="preserve">
<style type="text/css">
	.st0{fill-rule:evenodd;clip-rule:evenodd;}
</style>
<g>
	<path d="M16,9.3c-0.3,0.3-0.7,0.7-1,1c0,0.2,0,0.3,0,0.5c0,3-2.5,5.5-5.5,5.5c-3,0-5.5-2.5-5.5-5.5c0-3,2.5-5.5,5.5-5.5
		c1.7,0,3.3,0.8,4.3,2.1c0.3-0.3,0.5-0.5,0.8-0.8c-1.2-1.5-3-2.4-5.1-2.4c-3.6,0-6.6,3-6.6,6.6s3,6.6,6.6,6.6c3.6,0,6.6-3,6.6-6.6
		C16.1,10.3,16.1,9.8,16,9.3z"/>
	<path d="M13.5,15.8c1.4,1.4,2.7,2.7,4.1,4.1c0.7,0.7,1.8-0.4,1.1-1.1c-1.4-1.4-2.7-2.7-4.1-4.1C13.9,14,12.8,15.1,13.5,15.8
		L13.5,15.8z"/>
	<path d="M3.1,11.2C3.6,11.6,4,12,4.4,12.4c0.2,0.2,0.6,0.2,0.9,0c0.9-0.9,1.8-1.8,2.7-2.7c-0.3,0-0.6,0-0.9,0
		c1.1,1.1,2.1,2.1,3.2,3.2c0.2,0.2,0.6,0.2,0.9,0c2.7-2.7,5.3-5.3,8-8c0.6-0.6-0.3-1.5-0.9-0.9c-2.7,2.7-5.3,5.3-8,8
		c0.3,0,0.6,0,0.9,0C10.1,11,9,10,8,8.9c-0.2-0.2-0.6-0.2-0.9,0c-0.9,0.9-1.8,1.8-2.7,2.7c0.3,0,0.6,0,0.9,0
		c-0.4-0.4-0.8-0.8-1.3-1.3C3.5,9.7,2.6,10.6,3.1,11.2L3.1,11.2z"/>
	<path d="M19.4,6.5c0-0.7,0-1.4,0-2.1c0-0.3-0.2-0.5-0.5-0.5c-0.7,0-1.4,0-2.1,0c-0.6,0-0.6,0.9,0,0.9c0.7,0,1.4,0,2.1,0
		c-0.2-0.2-0.3-0.3-0.5-0.5c0,0.7,0,1.4,0,2.1C18.5,7.1,19.4,7.2,19.4,6.5L19.4,6.5z"/>
</g>
</svg>
