<?xml version="1.0" encoding="utf-8"?>
<!-- Generator: Adobe Illustrator 23.0.3, SVG Export Plug-In . SVG Version: 6.00 Build 0)  -->
<svg version="1.1" id="Layer_1" xmlns="http://www.w3.org/2000/svg" xmlns:xlink="http://www.w3.org/1999/xlink" x="0px" y="0px"
	 viewBox="0 0 24 24" style="enable-background:new 0 0 24 24;" xml:space="preserve">
<style type="text/css">
	.st0{fill-rule:evenodd;clip-rule:evenodd;}
</style>
<g>
	<g>
		<g>
			<path d="M11,17.3C11,17.4,11,17.4,11,17.3c0,0.6-0.5,1-1,1c-0.6,0-1-0.5-1-1c0-0.6,0.5-1,1-1C10.5,16.3,11,16.8,11,17.3
				C11,17.3,11,17.3,11,17.3z"/>
		</g>
		<g>
			<path d="M15.9,17.3C15.9,17.4,15.9,17.4,15.9,17.3c0,0.6-0.5,1-1,1c-0.6,0-1-0.5-1-1c0-0.6,0.5-1,1-1
				C15.4,16.3,15.9,16.8,15.9,17.3C15.9,17.3,15.9,17.3,15.9,17.3z"/>
		</g>
		<g>
			<g>
				<path d="M16.1,10.2C16.1,10.2,16.1,10.2,16.1,10.2l-6.3,0c0-0.1-0.1-0.3-0.1-0.4C9.6,9.6,9.5,9.4,9.3,9.2C9,8.8,8.4,8.5,7.9,8.5
					c-0.2,0-0.5,0-0.6,0.2C7.1,8.8,7,9.1,7.1,9.3c0.3,0.6,1.1,0.2,1.4,0.8c0.1,0.1,0.1,0.3,0.1,0.4c0.1,0.3,0.2,0.7,0.2,1
					c0.2,0.8,0.4,1.7,0.6,2.5c0.1,0.5,0.2,1.1,0.4,1.6c0.2,0.6,0.8,0.5,1.3,0.5h2.5c0.2,0,0.5,0,0.7,0c0.4,0,0.7-0.4,0.6-0.8
					c-0.1-0.4-0.4-0.4-0.8-0.4h-3.3c0-0.2-0.1-0.3-0.1-0.5h3.6c0.2,0,0.3,0,0.5,0c0.4-0.1,0.6-0.3,0.7-0.6c0.3-0.6,0.6-1.3,1-1.9
					c0.1-0.2,0.3-0.5,0.3-0.7C17,10.7,16.6,10.3,16.1,10.2z M14.6,13.3h-4c-0.1-0.6-0.3-1.3-0.4-1.9h5.4
					C15.2,12,14.9,12.7,14.6,13.3z"/>
			</g>
		</g>
	</g>
	<g>
		<path d="M20.5,3.6H3.5c-0.4,0-0.7,0.2-1,0.4C2.2,4.3,2,4.7,2,5v14.2c0,0.4,0.2,0.7,0.4,1c0.3,0.3,0.6,0.4,1,0.4h17.1
			c0.4,0,0.7-0.2,1-0.4c0.3-0.3,0.4-0.6,0.4-1V5c0-0.4-0.2-0.7-0.4-1C21.3,3.8,20.9,3.6,20.5,3.6z M20.5,5v1.4H3.5V5L20.5,5z
			 M3.5,19.3V7.9h17.1v11.4H3.5z"/>
	</g>
</g>
</svg>
