<?xml version="1.0" encoding="utf-8"?>
<!-- Generator: Adobe Illustrator 23.0.3, SVG Export Plug-In . SVG Version: 6.00 Build 0)  -->
<svg version="1.1" id="Layer_1" xmlns="http://www.w3.org/2000/svg" xmlns:xlink="http://www.w3.org/1999/xlink" x="0px" y="0px"
	 viewBox="0 0 24 24" style="enable-background:new 0 0 24 24;" xml:space="preserve">
<style type="text/css">
	.st0{fill-rule:evenodd;clip-rule:evenodd;}
</style>
<g>
	<path class="st0" d="M21,12.5c-0.1,0.2-0.2,0.3-0.4,0.3c-0.1,0-0.2,0-0.3,0l-1.6-0.5c-0.3-0.1-0.4-0.4-0.3-0.7
		c0.1-0.3,0.4-0.4,0.7-0.3l1.6,0.5C21,12,21.1,12.3,21,12.5L21,12.5z M16.9,10.5l-0.3-1.4c0.3,0,0.6,0.3,0.7,0.6
		C17.3,10,17.2,10.4,16.9,10.5z M16.6,14.5c0.1,0.3-0.1,0.6-0.5,0.7c-0.3,0.1-0.6-0.1-0.7-0.5l-1.8-8.9c-0.1-0.3,0.1-0.6,0.5-0.7
		c0.3-0.1,0.6,0.1,0.7,0.5L16.6,14.5z M7.8,17.6l-1-2.9l0.7-0.1l0.9,2.7L7.8,17.6z M3.5,12.4c-0.2-1,0.5-2,1.5-2.2l1.6-0.3l0.7,3.6
		l-1.6,0.3C4.7,14.1,3.7,13.4,3.5,12.4L3.5,12.4z M7.6,9.9c2.1-0.7,3.9-1.8,5.2-3l1.4,7.1c-1.7-0.7-3.7-0.9-6-0.8L7.6,9.9z
		 M18.3,9.5c-0.2-0.9-1-1.5-1.9-1.5l-0.5-2.7c-0.2-0.9-1-1.5-1.9-1.3c-0.8,0.1-1.3,0.8-1.3,1.5c-1.2,1.3-3.1,2.5-5.3,3.3
		C7.2,8.8,7,8.8,6.9,8.8L4.8,9.2C3.2,9.5,2.2,11,2.5,12.6c0.3,1.6,1.8,2.6,3.4,2.3c0,0,1,3.1,1,3.1c0.2,0.5,0.8,0.8,1.3,0.6l0.7-0.3
		C9.4,18,9.6,17.5,9.5,17l-0.9-2.8c2.3-0.1,4.5,0.3,6,1c0.3,0.7,1,1.1,1.8,0.9c0.9-0.2,1.5-1,1.3-1.9l-0.5-2.7
		C17.9,11.3,18.4,10.4,18.3,9.5L18.3,9.5z M17.6,7.4c-0.2-0.2-0.2-0.5,0-0.7l1.3-1.1c0.2-0.2,0.5-0.2,0.7,0c0.2,0.2,0.2,0.5,0,0.7
		l-1.3,1.1c-0.1,0.1-0.2,0.1-0.2,0.1C17.9,7.6,17.7,7.6,17.6,7.4L17.6,7.4z M21.6,8.8c0.1,0.3-0.1,0.6-0.4,0.6l-1.6,0.3
		c-0.3,0.1-0.6-0.1-0.6-0.4c-0.1-0.3,0.1-0.6,0.4-0.6L21,8.4C21.2,8.4,21.5,8.6,21.6,8.8z"/>
</g>
</svg>
