<svg width="24" height="19" viewBox="0 0 24 19" fill="none" xmlns="http://www.w3.org/2000/svg">
<path d="M17.936 0.968066C19.0187 0.968066 20.008 1.24807 20.904 1.80806C21.7627 2.4054 22.4533 3.20806 22.976 4.21606C23.4987 5.2614 23.76 6.45606 23.76 7.80006C23.76 8.92007 23.536 10.0027 23.088 11.0481C22.64 12.1307 22.024 13.1387 21.24 14.0721C20.456 15.0054 19.5227 15.8267 18.44 16.5361C17.3573 17.2827 16.2 17.8241 14.968 18.1601L12.504 15.1921C14.0347 14.5201 15.2853 13.7174 16.256 12.7841C17.1893 11.8507 17.656 11.0481 17.656 10.3761C17.656 9.92807 17.5067 9.5174 17.208 9.14406C16.872 8.77073 16.4613 8.41606 15.976 8.08006C15.1173 7.40806 14.5387 6.79206 14.24 6.23206C13.904 5.7094 13.736 5.13073 13.736 4.49606C13.736 3.4134 14.128 2.55473 14.912 1.92006C15.696 1.2854 16.704 0.968065 17.936 0.968066ZM5.448 0.968064C6.53067 0.968065 7.52 1.24806 8.416 1.80806C9.27467 2.4054 9.96534 3.20806 10.488 4.21606C11.0107 5.2614 11.272 6.45606 11.272 7.80006C11.272 8.92006 11.048 10.0027 10.6 11.0481C10.152 12.1307 9.536 13.1387 8.752 14.0721C7.968 15.0054 7.03467 15.8267 5.952 16.5361C4.86933 17.2827 3.712 17.8241 2.48 18.1601L0.0160008 15.1921C1.54667 14.5201 2.79733 13.7174 3.768 12.7841C4.70133 11.8507 5.168 11.0481 5.168 10.3761C5.168 9.92806 5.01867 9.5174 4.72 9.14406C4.384 8.77073 3.97333 8.41606 3.488 8.08006C2.62934 7.40806 2.05067 6.79206 1.752 6.23206C1.416 5.7094 1.248 5.13073 1.248 4.49606C1.248 3.4134 1.64 2.55473 2.424 1.92006C3.208 1.2854 4.216 0.968064 5.448 0.968064Z" fill="#FFB401"/>
</svg>
