<svg width="24" height="18" viewBox="0 0 24 18" fill="none" xmlns="http://www.w3.org/2000/svg">
<path d="M6.064 17.4641C4.98133 17.4641 3.992 17.1841 3.096 16.6241C2.23733 16.0267 1.54667 15.2241 1.024 14.2161C0.501333 13.1707 0.24 11.9761 0.24 10.6321C0.24 9.51206 0.464 8.4294 0.912 7.38406C1.36 6.3014 1.976 5.2934 2.76 4.36006C3.544 3.42673 4.47733 2.6054 5.56 1.89606C6.64267 1.1494 7.8 0.608064 9.032 0.272064L11.496 3.24006C9.96533 3.91206 8.71467 4.71473 7.744 5.64806C6.81067 6.5814 6.344 7.38406 6.344 8.05606C6.344 8.50406 6.49333 8.91473 6.792 9.28806C7.128 9.6614 7.53867 10.0161 8.024 10.3521C8.88267 11.0241 9.46133 11.6401 9.76 12.2001C10.096 12.7227 10.264 13.3014 10.264 13.9361C10.264 15.0187 9.872 15.8774 9.088 16.5121C8.304 17.1467 7.296 17.4641 6.064 17.4641ZM18.552 17.4641C17.4693 17.4641 16.48 17.1841 15.584 16.6241C14.7253 16.0267 14.0347 15.2241 13.512 14.2161C12.9893 13.1707 12.728 11.9761 12.728 10.6321C12.728 9.51206 12.952 8.4294 13.4 7.38406C13.848 6.3014 14.464 5.2934 15.248 4.36006C16.032 3.42673 16.9653 2.6054 18.048 1.89606C19.1307 1.1494 20.288 0.608064 21.52 0.272064L23.984 3.24006C22.4533 3.91206 21.2027 4.71473 20.232 5.64806C19.2987 6.5814 18.832 7.38406 18.832 8.05606C18.832 8.50406 18.9813 8.91473 19.28 9.28806C19.616 9.6614 20.0267 10.0161 20.512 10.3521C21.3707 11.0241 21.9493 11.6401 22.248 12.2001C22.584 12.7227 22.752 13.3014 22.752 13.9361C22.752 15.0187 22.36 15.8774 21.576 16.5121C20.792 17.1467 19.784 17.4641 18.552 17.4641Z" fill="#FFB401"/>
</svg>
